%TF.GenerationSoftware,KiCad,Pcbnew,7.0.9-7.0.9~ubuntu20.04.1*%
%TF.CreationDate,2024-01-18T00:40:23+01:00*%
%TF.ProjectId,kicad-pmod_bldc,6b696361-642d-4706-9d6f-645f626c6463,1.0*%
%TF.SameCoordinates,Original*%
%TF.FileFunction,Drillmap*%
%TF.FilePolarity,Positive*%
%FSLAX45Y45*%
G04 Gerber Fmt 4.5, Leading zero omitted, Abs format (unit mm)*
G04 Created by KiCad (PCBNEW 7.0.9-7.0.9~ubuntu20.04.1) date 2024-01-18 00:40:23*
%MOMM*%
%LPD*%
G01*
G04 APERTURE LIST*
%ADD10C,0.100000*%
%ADD11C,0.200000*%
G04 APERTURE END LIST*
D10*
X12903200Y-10160000D02*
G75*
G03*
X12954000Y-10109200I0J50800D01*
G01*
X9906000Y-10109200D02*
G75*
G03*
X9956800Y-10160000I50800J0D01*
G01*
X9969500Y-5054600D02*
G75*
G03*
X9906000Y-5118100I0J-63500D01*
G01*
X12954000Y-5118100D02*
G75*
G03*
X12890500Y-5054600I-63500J0D01*
G01*
X12954000Y-10109200D02*
X12954000Y-5118100D01*
X12890500Y-5054600D02*
X9969500Y-5054600D01*
X9956800Y-10160000D02*
X12903200Y-10160000D01*
X9906000Y-5118100D02*
X9906000Y-10109200D01*
D11*
X10161777Y-10476484D02*
X10161777Y-10276484D01*
X10161777Y-10276484D02*
X10209396Y-10276484D01*
X10209396Y-10276484D02*
X10237967Y-10286008D01*
X10237967Y-10286008D02*
X10257015Y-10305055D01*
X10257015Y-10305055D02*
X10266539Y-10324103D01*
X10266539Y-10324103D02*
X10276063Y-10362198D01*
X10276063Y-10362198D02*
X10276063Y-10390770D01*
X10276063Y-10390770D02*
X10266539Y-10428865D01*
X10266539Y-10428865D02*
X10257015Y-10447912D01*
X10257015Y-10447912D02*
X10237967Y-10466960D01*
X10237967Y-10466960D02*
X10209396Y-10476484D01*
X10209396Y-10476484D02*
X10161777Y-10476484D01*
X10361777Y-10476484D02*
X10361777Y-10343150D01*
X10361777Y-10381246D02*
X10371301Y-10362198D01*
X10371301Y-10362198D02*
X10380824Y-10352674D01*
X10380824Y-10352674D02*
X10399872Y-10343150D01*
X10399872Y-10343150D02*
X10418920Y-10343150D01*
X10485586Y-10476484D02*
X10485586Y-10343150D01*
X10485586Y-10276484D02*
X10476063Y-10286008D01*
X10476063Y-10286008D02*
X10485586Y-10295531D01*
X10485586Y-10295531D02*
X10495110Y-10286008D01*
X10495110Y-10286008D02*
X10485586Y-10276484D01*
X10485586Y-10276484D02*
X10485586Y-10295531D01*
X10609396Y-10476484D02*
X10590348Y-10466960D01*
X10590348Y-10466960D02*
X10580824Y-10447912D01*
X10580824Y-10447912D02*
X10580824Y-10276484D01*
X10714158Y-10476484D02*
X10695110Y-10466960D01*
X10695110Y-10466960D02*
X10685586Y-10447912D01*
X10685586Y-10447912D02*
X10685586Y-10276484D01*
X10942729Y-10476484D02*
X10942729Y-10276484D01*
X10942729Y-10276484D02*
X11009396Y-10419341D01*
X11009396Y-10419341D02*
X11076063Y-10276484D01*
X11076063Y-10276484D02*
X11076063Y-10476484D01*
X11257015Y-10476484D02*
X11257015Y-10371722D01*
X11257015Y-10371722D02*
X11247491Y-10352674D01*
X11247491Y-10352674D02*
X11228443Y-10343150D01*
X11228443Y-10343150D02*
X11190348Y-10343150D01*
X11190348Y-10343150D02*
X11171301Y-10352674D01*
X11257015Y-10466960D02*
X11237967Y-10476484D01*
X11237967Y-10476484D02*
X11190348Y-10476484D01*
X11190348Y-10476484D02*
X11171301Y-10466960D01*
X11171301Y-10466960D02*
X11161777Y-10447912D01*
X11161777Y-10447912D02*
X11161777Y-10428865D01*
X11161777Y-10428865D02*
X11171301Y-10409817D01*
X11171301Y-10409817D02*
X11190348Y-10400293D01*
X11190348Y-10400293D02*
X11237967Y-10400293D01*
X11237967Y-10400293D02*
X11257015Y-10390770D01*
X11352253Y-10343150D02*
X11352253Y-10543150D01*
X11352253Y-10352674D02*
X11371301Y-10343150D01*
X11371301Y-10343150D02*
X11409396Y-10343150D01*
X11409396Y-10343150D02*
X11428443Y-10352674D01*
X11428443Y-10352674D02*
X11437967Y-10362198D01*
X11437967Y-10362198D02*
X11447491Y-10381246D01*
X11447491Y-10381246D02*
X11447491Y-10438389D01*
X11447491Y-10438389D02*
X11437967Y-10457436D01*
X11437967Y-10457436D02*
X11428443Y-10466960D01*
X11428443Y-10466960D02*
X11409396Y-10476484D01*
X11409396Y-10476484D02*
X11371301Y-10476484D01*
X11371301Y-10476484D02*
X11352253Y-10466960D01*
X11533205Y-10457436D02*
X11542729Y-10466960D01*
X11542729Y-10466960D02*
X11533205Y-10476484D01*
X11533205Y-10476484D02*
X11523682Y-10466960D01*
X11523682Y-10466960D02*
X11533205Y-10457436D01*
X11533205Y-10457436D02*
X11533205Y-10476484D01*
X11533205Y-10352674D02*
X11542729Y-10362198D01*
X11542729Y-10362198D02*
X11533205Y-10371722D01*
X11533205Y-10371722D02*
X11523682Y-10362198D01*
X11523682Y-10362198D02*
X11533205Y-10352674D01*
X11533205Y-10352674D02*
X11533205Y-10371722D01*
M02*
