G04 #@! TF.GenerationSoftware,KiCad,Pcbnew,7.0.9-7.0.9~ubuntu20.04.1*
G04 #@! TF.CreationDate,2024-01-18T00:40:07+01:00*
G04 #@! TF.ProjectId,kicad-pmod_bldc,6b696361-642d-4706-9d6f-645f626c6463,1.0*
G04 #@! TF.SameCoordinates,Original*
G04 #@! TF.FileFunction,Copper,L2,Bot*
G04 #@! TF.FilePolarity,Positive*
%FSLAX46Y46*%
G04 Gerber Fmt 4.6, Leading zero omitted, Abs format (unit mm)*
G04 Created by KiCad (PCBNEW 7.0.9-7.0.9~ubuntu20.04.1) date 2024-01-18 00:40:07*
%MOMM*%
%LPD*%
G01*
G04 APERTURE LIST*
G04 #@! TA.AperFunction,ComponentPad*
%ADD10R,1.700000X1.700000*%
G04 #@! TD*
G04 #@! TA.AperFunction,ComponentPad*
%ADD11O,1.700000X1.700000*%
G04 #@! TD*
G04 #@! TA.AperFunction,ComponentPad*
%ADD12R,3.000000X3.000000*%
G04 #@! TD*
G04 #@! TA.AperFunction,ComponentPad*
%ADD13C,3.000000*%
G04 #@! TD*
G04 #@! TA.AperFunction,ComponentPad*
%ADD14C,0.600000*%
G04 #@! TD*
G04 #@! TA.AperFunction,SMDPad,CuDef*
%ADD15R,7.100000X3.200000*%
G04 #@! TD*
G04 #@! TA.AperFunction,ViaPad*
%ADD16C,0.800000*%
G04 #@! TD*
G04 #@! TA.AperFunction,Conductor*
%ADD17C,0.400000*%
G04 #@! TD*
G04 #@! TA.AperFunction,Conductor*
%ADD18C,1.000000*%
G04 #@! TD*
G04 #@! TA.AperFunction,Conductor*
%ADD19C,0.250000*%
G04 #@! TD*
G04 APERTURE END LIST*
D10*
X120650000Y-57150000D03*
D11*
X120650000Y-54610000D03*
X118110000Y-57150000D03*
X118110000Y-54610000D03*
X115570000Y-57150000D03*
X115570000Y-54610000D03*
X113030000Y-57150000D03*
X113030000Y-54610000D03*
X110490000Y-57150000D03*
X110490000Y-54610000D03*
X107950000Y-57150000D03*
X107950000Y-54610000D03*
D12*
X121920000Y-96520000D03*
D13*
X127000000Y-96520000D03*
D12*
X101600000Y-96520000D03*
D13*
X106680000Y-96520000D03*
D14*
X111200000Y-82012000D03*
X109900000Y-82012000D03*
X108600000Y-82012000D03*
X107300000Y-82012000D03*
X106000000Y-82012000D03*
X104700000Y-82012000D03*
X111200000Y-83312000D03*
X109900000Y-83312000D03*
X108600000Y-83312000D03*
D15*
X107950000Y-83312000D03*
D14*
X107300000Y-83312000D03*
X106000000Y-83312000D03*
X104700000Y-83312000D03*
X111200000Y-84612000D03*
X109900000Y-84612000D03*
X108600000Y-84612000D03*
X107300000Y-84612000D03*
X106000000Y-84612000D03*
X104700000Y-84612000D03*
D12*
X111760000Y-96520000D03*
D13*
X116840000Y-96520000D03*
D16*
X105994200Y-87630000D03*
X107442000Y-67564000D03*
X122174000Y-85090000D03*
X125222000Y-76835000D03*
X106299000Y-78486000D03*
X123190000Y-71628000D03*
X105283000Y-78486000D03*
X121285000Y-73025000D03*
X121285000Y-74930000D03*
X104267000Y-78486000D03*
X103378000Y-80391000D03*
X121285000Y-76835000D03*
X124079000Y-80137000D03*
X103377500Y-85051500D03*
X103505000Y-87249000D03*
D17*
X107442000Y-67564000D02*
X107442000Y-62611000D01*
D18*
X116840000Y-99695000D02*
X116840000Y-96520000D01*
X127000000Y-99695000D02*
X116840000Y-99695000D01*
D17*
X110490000Y-57150000D02*
X110490000Y-54610000D01*
X110490000Y-59563000D02*
X110490000Y-57150000D01*
X107442000Y-62611000D02*
X110490000Y-59563000D01*
D18*
X127000000Y-96520000D02*
X127000000Y-99695000D01*
D19*
X106299000Y-73535792D02*
X106299000Y-78486000D01*
X125222000Y-76835000D02*
X125222000Y-82042000D01*
X108967396Y-70867396D02*
X106299000Y-73535792D01*
X125222000Y-82042000D02*
X122174000Y-85090000D01*
X122429396Y-70867396D02*
X108967396Y-70867396D01*
X123190000Y-71628000D02*
X122429396Y-70867396D01*
X105283000Y-73915396D02*
X120650000Y-58548396D01*
X105283000Y-78486000D02*
X105283000Y-73915396D01*
X120110000Y-76737208D02*
X120110000Y-74200000D01*
X120110000Y-74200000D02*
X121285000Y-73025000D01*
X106278695Y-79491000D02*
X117356208Y-79491000D01*
X105283000Y-78486000D02*
X105283000Y-78495305D01*
X105283000Y-78495305D02*
X106278695Y-79491000D01*
X117356208Y-79491000D02*
X120110000Y-76737208D01*
X120650000Y-58548396D02*
X120650000Y-57150000D01*
X104267000Y-78486000D02*
X104267000Y-78495305D01*
X104267000Y-78495305D02*
X105712695Y-79941000D01*
X120560000Y-75655000D02*
X121285000Y-74930000D01*
X105712695Y-79941000D02*
X117542604Y-79941000D01*
X118110000Y-60452000D02*
X118110000Y-57150000D01*
X117542604Y-79941000D02*
X120560000Y-76923604D01*
X104267000Y-78486000D02*
X104267000Y-74295000D01*
X120560000Y-76923604D02*
X120560000Y-75655000D01*
X104267000Y-74295000D02*
X118110000Y-60452000D01*
X103378000Y-80391000D02*
X117729000Y-80391000D01*
X115570000Y-62355604D02*
X115570000Y-57150000D01*
X103378000Y-80391000D02*
X103378000Y-74547604D01*
X117729000Y-80391000D02*
X121285000Y-76835000D01*
X103378000Y-74547604D02*
X115570000Y-62355604D01*
X103505000Y-84924000D02*
X103505000Y-81407000D01*
X104071000Y-80841000D02*
X117915396Y-80841000D01*
X117915396Y-80841000D02*
X118619396Y-80137000D01*
X103505000Y-81407000D02*
X104071000Y-80841000D01*
X103377500Y-85051500D02*
X103505000Y-84924000D01*
X118619396Y-80137000D02*
X124079000Y-80137000D01*
X102653000Y-85381000D02*
X102653000Y-74636208D01*
X102653000Y-74636208D02*
X113030000Y-64259208D01*
X113030000Y-64259208D02*
X113030000Y-57150000D01*
X103505000Y-87249000D02*
X103505000Y-86233000D01*
X103505000Y-86233000D02*
X102653000Y-85381000D01*
G04 #@! TA.AperFunction,Conductor*
G36*
X110740000Y-56714498D02*
G01*
X110632315Y-56665320D01*
X110525763Y-56650000D01*
X110454237Y-56650000D01*
X110347685Y-56665320D01*
X110240000Y-56714498D01*
X110240000Y-55045501D01*
X110347685Y-55094680D01*
X110454237Y-55110000D01*
X110525763Y-55110000D01*
X110632315Y-55094680D01*
X110740000Y-55045501D01*
X110740000Y-56714498D01*
G37*
G04 #@! TD.AperFunction*
G04 #@! TA.AperFunction,Conductor*
G36*
X128908460Y-50546890D02*
G01*
X128911301Y-50547209D01*
X128931348Y-50549468D01*
X129043499Y-50564233D01*
X129068249Y-50570126D01*
X129112451Y-50585593D01*
X129115637Y-50586810D01*
X129190533Y-50617833D01*
X129209028Y-50627387D01*
X129241778Y-50647965D01*
X129254423Y-50655911D01*
X129259168Y-50659210D01*
X129323502Y-50708575D01*
X129329590Y-50713914D01*
X129372083Y-50756407D01*
X129377429Y-50762503D01*
X129426778Y-50826816D01*
X129430087Y-50831575D01*
X129448162Y-50860339D01*
X129458607Y-50876962D01*
X129468172Y-50895478D01*
X129499176Y-50970329D01*
X129500416Y-50973578D01*
X129515869Y-51017740D01*
X129521767Y-51042510D01*
X129536531Y-51154654D01*
X129536538Y-51154715D01*
X129539110Y-51177538D01*
X129539500Y-51184481D01*
X129539500Y-101088517D01*
X129539110Y-101095465D01*
X129536532Y-101118340D01*
X129525810Y-101199773D01*
X129519913Y-101224540D01*
X129507767Y-101259249D01*
X129506527Y-101262499D01*
X129483564Y-101317936D01*
X129473998Y-101336454D01*
X129451731Y-101371892D01*
X129448419Y-101376653D01*
X129410901Y-101425547D01*
X129405548Y-101431650D01*
X129371650Y-101465548D01*
X129365547Y-101470901D01*
X129316653Y-101508419D01*
X129311892Y-101511731D01*
X129276454Y-101533998D01*
X129257936Y-101543564D01*
X129202499Y-101566527D01*
X129199249Y-101567767D01*
X129164540Y-101579913D01*
X129139773Y-101585810D01*
X129058340Y-101596532D01*
X129050728Y-101597389D01*
X129035457Y-101599110D01*
X129028517Y-101599500D01*
X99571482Y-101599500D01*
X99564543Y-101599110D01*
X99545079Y-101596917D01*
X99541659Y-101596532D01*
X99460225Y-101585810D01*
X99435458Y-101579913D01*
X99400749Y-101567767D01*
X99397499Y-101566527D01*
X99342062Y-101543564D01*
X99323544Y-101533998D01*
X99288106Y-101511731D01*
X99283352Y-101508424D01*
X99234446Y-101470897D01*
X99228348Y-101465548D01*
X99194450Y-101431650D01*
X99189104Y-101425555D01*
X99151569Y-101376638D01*
X99148277Y-101371906D01*
X99125997Y-101336449D01*
X99116437Y-101317941D01*
X99093458Y-101262466D01*
X99092231Y-101259249D01*
X99080082Y-101224529D01*
X99074188Y-101199770D01*
X99063468Y-101118340D01*
X99061570Y-101101498D01*
X99060890Y-101095459D01*
X99060500Y-101088513D01*
X99060500Y-98067870D01*
X99599500Y-98067870D01*
X99599501Y-98067876D01*
X99605908Y-98127483D01*
X99656202Y-98262328D01*
X99656206Y-98262335D01*
X99742452Y-98377544D01*
X99742455Y-98377547D01*
X99857664Y-98463793D01*
X99857671Y-98463797D01*
X99992517Y-98514091D01*
X99992516Y-98514091D01*
X99999444Y-98514835D01*
X100052127Y-98520500D01*
X103147872Y-98520499D01*
X103207483Y-98514091D01*
X103342331Y-98463796D01*
X103457546Y-98377546D01*
X103543796Y-98262331D01*
X103594091Y-98127483D01*
X103600500Y-98067873D01*
X103600500Y-96520001D01*
X104674390Y-96520001D01*
X104694804Y-96805433D01*
X104755628Y-97085037D01*
X104755630Y-97085043D01*
X104755631Y-97085046D01*
X104828345Y-97280000D01*
X104855635Y-97353166D01*
X104992770Y-97604309D01*
X104992775Y-97604317D01*
X105164254Y-97833387D01*
X105164270Y-97833405D01*
X105366594Y-98035729D01*
X105366612Y-98035745D01*
X105595682Y-98207224D01*
X105595690Y-98207229D01*
X105846833Y-98344364D01*
X105846832Y-98344364D01*
X105846836Y-98344365D01*
X105846839Y-98344367D01*
X106114954Y-98444369D01*
X106114960Y-98444370D01*
X106114962Y-98444371D01*
X106394566Y-98505195D01*
X106394568Y-98505195D01*
X106394572Y-98505196D01*
X106648220Y-98523337D01*
X106679999Y-98525610D01*
X106680000Y-98525610D01*
X106680001Y-98525610D01*
X106708595Y-98523564D01*
X106965428Y-98505196D01*
X107155742Y-98463796D01*
X107245037Y-98444371D01*
X107245037Y-98444370D01*
X107245046Y-98444369D01*
X107513161Y-98344367D01*
X107764315Y-98207226D01*
X107950473Y-98067870D01*
X109759500Y-98067870D01*
X109759501Y-98067876D01*
X109765908Y-98127483D01*
X109816202Y-98262328D01*
X109816206Y-98262335D01*
X109902452Y-98377544D01*
X109902455Y-98377547D01*
X110017664Y-98463793D01*
X110017671Y-98463797D01*
X110152517Y-98514091D01*
X110152516Y-98514091D01*
X110159444Y-98514835D01*
X110212127Y-98520500D01*
X113307872Y-98520499D01*
X113367483Y-98514091D01*
X113502331Y-98463796D01*
X113617546Y-98377546D01*
X113703796Y-98262331D01*
X113754091Y-98127483D01*
X113760500Y-98067873D01*
X113760500Y-96520001D01*
X114834891Y-96520001D01*
X114855300Y-96805362D01*
X114916109Y-97084895D01*
X115016091Y-97352958D01*
X115153191Y-97604038D01*
X115153196Y-97604046D01*
X115259882Y-97746561D01*
X115259883Y-97746562D01*
X116155195Y-96851250D01*
X116177340Y-96902587D01*
X116283433Y-97045094D01*
X116419530Y-97159294D01*
X116509216Y-97204335D01*
X115613436Y-98100115D01*
X115755960Y-98206807D01*
X115755961Y-98206808D01*
X116007042Y-98343908D01*
X116007041Y-98343908D01*
X116275104Y-98443890D01*
X116554637Y-98504699D01*
X116839999Y-98525109D01*
X116840001Y-98525109D01*
X117125362Y-98504699D01*
X117404895Y-98443890D01*
X117672958Y-98343908D01*
X117924047Y-98206803D01*
X118066561Y-98100116D01*
X118066562Y-98100115D01*
X118034317Y-98067870D01*
X119919500Y-98067870D01*
X119919501Y-98067876D01*
X119925908Y-98127483D01*
X119976202Y-98262328D01*
X119976206Y-98262335D01*
X120062452Y-98377544D01*
X120062455Y-98377547D01*
X120177664Y-98463793D01*
X120177671Y-98463797D01*
X120312517Y-98514091D01*
X120312516Y-98514091D01*
X120319444Y-98514835D01*
X120372127Y-98520500D01*
X123467872Y-98520499D01*
X123527483Y-98514091D01*
X123662331Y-98463796D01*
X123777546Y-98377546D01*
X123863796Y-98262331D01*
X123914091Y-98127483D01*
X123920500Y-98067873D01*
X123920500Y-96520001D01*
X124994891Y-96520001D01*
X125015300Y-96805362D01*
X125076109Y-97084895D01*
X125176091Y-97352958D01*
X125313191Y-97604038D01*
X125313196Y-97604046D01*
X125419882Y-97746561D01*
X125419883Y-97746562D01*
X126315195Y-96851250D01*
X126337340Y-96902587D01*
X126443433Y-97045094D01*
X126579530Y-97159294D01*
X126669216Y-97204335D01*
X125773436Y-98100115D01*
X125915960Y-98206807D01*
X125915961Y-98206808D01*
X126167042Y-98343908D01*
X126167041Y-98343908D01*
X126435104Y-98443890D01*
X126714637Y-98504699D01*
X126999999Y-98525109D01*
X127000001Y-98525109D01*
X127285362Y-98504699D01*
X127564895Y-98443890D01*
X127832958Y-98343908D01*
X128084047Y-98206803D01*
X128226561Y-98100116D01*
X128226562Y-98100115D01*
X127333748Y-97207300D01*
X127343409Y-97203784D01*
X127491844Y-97106157D01*
X127613764Y-96976930D01*
X127685768Y-96852215D01*
X128580115Y-97746562D01*
X128580116Y-97746561D01*
X128686803Y-97604047D01*
X128823908Y-97352958D01*
X128923890Y-97084895D01*
X128984699Y-96805362D01*
X129005109Y-96520001D01*
X129005109Y-96519998D01*
X128984699Y-96234637D01*
X128923890Y-95955104D01*
X128823908Y-95687041D01*
X128686808Y-95435961D01*
X128686807Y-95435960D01*
X128580115Y-95293436D01*
X127684803Y-96188747D01*
X127662660Y-96137413D01*
X127556567Y-95994906D01*
X127420470Y-95880706D01*
X127330782Y-95835663D01*
X128226562Y-94939883D01*
X128226561Y-94939882D01*
X128084046Y-94833196D01*
X128084038Y-94833191D01*
X127832957Y-94696091D01*
X127832958Y-94696091D01*
X127564895Y-94596109D01*
X127285362Y-94535300D01*
X127000001Y-94514891D01*
X126999999Y-94514891D01*
X126714637Y-94535300D01*
X126435104Y-94596109D01*
X126167041Y-94696091D01*
X125915961Y-94833191D01*
X125915953Y-94833196D01*
X125773437Y-94939882D01*
X125773436Y-94939883D01*
X126666252Y-95832699D01*
X126656591Y-95836216D01*
X126508156Y-95933843D01*
X126386236Y-96063070D01*
X126314231Y-96187784D01*
X125419883Y-95293436D01*
X125419882Y-95293437D01*
X125313196Y-95435953D01*
X125313191Y-95435961D01*
X125176091Y-95687041D01*
X125076109Y-95955104D01*
X125015300Y-96234637D01*
X124994891Y-96519998D01*
X124994891Y-96520001D01*
X123920500Y-96520001D01*
X123920499Y-94972128D01*
X123914091Y-94912517D01*
X123884506Y-94833196D01*
X123863797Y-94777671D01*
X123863793Y-94777664D01*
X123777547Y-94662455D01*
X123777544Y-94662452D01*
X123662335Y-94576206D01*
X123662328Y-94576202D01*
X123527482Y-94525908D01*
X123527483Y-94525908D01*
X123467883Y-94519501D01*
X123467881Y-94519500D01*
X123467873Y-94519500D01*
X123467864Y-94519500D01*
X120372129Y-94519500D01*
X120372123Y-94519501D01*
X120312516Y-94525908D01*
X120177671Y-94576202D01*
X120177664Y-94576206D01*
X120062455Y-94662452D01*
X120062452Y-94662455D01*
X119976206Y-94777664D01*
X119976202Y-94777671D01*
X119925908Y-94912517D01*
X119919501Y-94972116D01*
X119919501Y-94972123D01*
X119919500Y-94972135D01*
X119919500Y-98067870D01*
X118034317Y-98067870D01*
X117173748Y-97207300D01*
X117183409Y-97203784D01*
X117331844Y-97106157D01*
X117453764Y-96976930D01*
X117525768Y-96852215D01*
X118420115Y-97746562D01*
X118420116Y-97746561D01*
X118526803Y-97604047D01*
X118663908Y-97352958D01*
X118763890Y-97084895D01*
X118824699Y-96805362D01*
X118845109Y-96520001D01*
X118845109Y-96519998D01*
X118824699Y-96234637D01*
X118763890Y-95955104D01*
X118663908Y-95687041D01*
X118526808Y-95435961D01*
X118526807Y-95435960D01*
X118420115Y-95293436D01*
X117524803Y-96188747D01*
X117502660Y-96137413D01*
X117396567Y-95994906D01*
X117260470Y-95880706D01*
X117170782Y-95835663D01*
X118066562Y-94939883D01*
X118066561Y-94939882D01*
X117924046Y-94833196D01*
X117924038Y-94833191D01*
X117672957Y-94696091D01*
X117672958Y-94696091D01*
X117404895Y-94596109D01*
X117125362Y-94535300D01*
X116840001Y-94514891D01*
X116839999Y-94514891D01*
X116554637Y-94535300D01*
X116275104Y-94596109D01*
X116007041Y-94696091D01*
X115755961Y-94833191D01*
X115755953Y-94833196D01*
X115613437Y-94939882D01*
X115613436Y-94939883D01*
X116506252Y-95832699D01*
X116496591Y-95836216D01*
X116348156Y-95933843D01*
X116226236Y-96063070D01*
X116154231Y-96187784D01*
X115259883Y-95293436D01*
X115259882Y-95293437D01*
X115153196Y-95435953D01*
X115153191Y-95435961D01*
X115016091Y-95687041D01*
X114916109Y-95955104D01*
X114855300Y-96234637D01*
X114834891Y-96519998D01*
X114834891Y-96520001D01*
X113760500Y-96520001D01*
X113760499Y-94972128D01*
X113754091Y-94912517D01*
X113724506Y-94833196D01*
X113703797Y-94777671D01*
X113703793Y-94777664D01*
X113617547Y-94662455D01*
X113617544Y-94662452D01*
X113502335Y-94576206D01*
X113502328Y-94576202D01*
X113367482Y-94525908D01*
X113367483Y-94525908D01*
X113307883Y-94519501D01*
X113307881Y-94519500D01*
X113307873Y-94519500D01*
X113307864Y-94519500D01*
X110212129Y-94519500D01*
X110212123Y-94519501D01*
X110152516Y-94525908D01*
X110017671Y-94576202D01*
X110017664Y-94576206D01*
X109902455Y-94662452D01*
X109902452Y-94662455D01*
X109816206Y-94777664D01*
X109816202Y-94777671D01*
X109765908Y-94912517D01*
X109759501Y-94972116D01*
X109759501Y-94972123D01*
X109759500Y-94972135D01*
X109759500Y-98067870D01*
X107950473Y-98067870D01*
X107993395Y-98035739D01*
X108195739Y-97833395D01*
X108367226Y-97604315D01*
X108504367Y-97353161D01*
X108604369Y-97085046D01*
X108665196Y-96805428D01*
X108685610Y-96520000D01*
X108665196Y-96234572D01*
X108661358Y-96216930D01*
X108604371Y-95954962D01*
X108604370Y-95954960D01*
X108604369Y-95954954D01*
X108504367Y-95686839D01*
X108367372Y-95435953D01*
X108367229Y-95435690D01*
X108367224Y-95435682D01*
X108195745Y-95206612D01*
X108195729Y-95206594D01*
X107993405Y-95004270D01*
X107993387Y-95004254D01*
X107764317Y-94832775D01*
X107764309Y-94832770D01*
X107513166Y-94695635D01*
X107513167Y-94695635D01*
X107405915Y-94655632D01*
X107245046Y-94595631D01*
X107245043Y-94595630D01*
X107245037Y-94595628D01*
X106965433Y-94534804D01*
X106680001Y-94514390D01*
X106679999Y-94514390D01*
X106394566Y-94534804D01*
X106114962Y-94595628D01*
X105846833Y-94695635D01*
X105595690Y-94832770D01*
X105595682Y-94832775D01*
X105366612Y-95004254D01*
X105366594Y-95004270D01*
X105164270Y-95206594D01*
X105164254Y-95206612D01*
X104992775Y-95435682D01*
X104992770Y-95435690D01*
X104855635Y-95686833D01*
X104755628Y-95954962D01*
X104694804Y-96234566D01*
X104674390Y-96519998D01*
X104674390Y-96520001D01*
X103600500Y-96520001D01*
X103600499Y-94972128D01*
X103594091Y-94912517D01*
X103564506Y-94833196D01*
X103543797Y-94777671D01*
X103543793Y-94777664D01*
X103457547Y-94662455D01*
X103457544Y-94662452D01*
X103342335Y-94576206D01*
X103342328Y-94576202D01*
X103207482Y-94525908D01*
X103207483Y-94525908D01*
X103147883Y-94519501D01*
X103147881Y-94519500D01*
X103147873Y-94519500D01*
X103147864Y-94519500D01*
X100052129Y-94519500D01*
X100052123Y-94519501D01*
X99992516Y-94525908D01*
X99857671Y-94576202D01*
X99857664Y-94576206D01*
X99742455Y-94662452D01*
X99742452Y-94662455D01*
X99656206Y-94777664D01*
X99656202Y-94777671D01*
X99605908Y-94912517D01*
X99599501Y-94972116D01*
X99599501Y-94972123D01*
X99599500Y-94972135D01*
X99599500Y-98067870D01*
X99060500Y-98067870D01*
X99060500Y-74616403D01*
X102022840Y-74616403D01*
X102027225Y-74662791D01*
X102027500Y-74668629D01*
X102027500Y-85298255D01*
X102025775Y-85313872D01*
X102026061Y-85313899D01*
X102025326Y-85321665D01*
X102027500Y-85390814D01*
X102027500Y-85420343D01*
X102027501Y-85420360D01*
X102028368Y-85427231D01*
X102028826Y-85433050D01*
X102030290Y-85479624D01*
X102030291Y-85479627D01*
X102035880Y-85498867D01*
X102039824Y-85517911D01*
X102042336Y-85537791D01*
X102059490Y-85581119D01*
X102061382Y-85586647D01*
X102074381Y-85631388D01*
X102084580Y-85648634D01*
X102093138Y-85666103D01*
X102100514Y-85684732D01*
X102127898Y-85722423D01*
X102131106Y-85727307D01*
X102154827Y-85767416D01*
X102154833Y-85767424D01*
X102168990Y-85781580D01*
X102181627Y-85796375D01*
X102193406Y-85812587D01*
X102226377Y-85839863D01*
X102229309Y-85842288D01*
X102233620Y-85846210D01*
X102568353Y-86180943D01*
X102843181Y-86455771D01*
X102876666Y-86517094D01*
X102879500Y-86543452D01*
X102879500Y-86550312D01*
X102859815Y-86617351D01*
X102847650Y-86633284D01*
X102772466Y-86716784D01*
X102677821Y-86880715D01*
X102677818Y-86880722D01*
X102619327Y-87060740D01*
X102619326Y-87060744D01*
X102599540Y-87249000D01*
X102619326Y-87437256D01*
X102619327Y-87437259D01*
X102677818Y-87617277D01*
X102677821Y-87617284D01*
X102772467Y-87781216D01*
X102899129Y-87921888D01*
X103052265Y-88033148D01*
X103052270Y-88033151D01*
X103225192Y-88110142D01*
X103225197Y-88110144D01*
X103410354Y-88149500D01*
X103410355Y-88149500D01*
X103599644Y-88149500D01*
X103599646Y-88149500D01*
X103784803Y-88110144D01*
X103957730Y-88033151D01*
X104110871Y-87921888D01*
X104237533Y-87781216D01*
X104332179Y-87617284D01*
X104390674Y-87437256D01*
X104410460Y-87249000D01*
X104390674Y-87060744D01*
X104332179Y-86880716D01*
X104237533Y-86716784D01*
X104162350Y-86633284D01*
X104132120Y-86570292D01*
X104130500Y-86550312D01*
X104130500Y-86315742D01*
X104132224Y-86300122D01*
X104131939Y-86300096D01*
X104132671Y-86292340D01*
X104132673Y-86292333D01*
X104130500Y-86223185D01*
X104130500Y-86193650D01*
X104129631Y-86186772D01*
X104129172Y-86180943D01*
X104127709Y-86134372D01*
X104122122Y-86115144D01*
X104118174Y-86096084D01*
X104115663Y-86076204D01*
X104098512Y-86032887D01*
X104096619Y-86027358D01*
X104083618Y-85982609D01*
X104083616Y-85982606D01*
X104073423Y-85965371D01*
X104064861Y-85947894D01*
X104057487Y-85929270D01*
X104057486Y-85929268D01*
X104030079Y-85891545D01*
X104026888Y-85886686D01*
X104019473Y-85874148D01*
X104003170Y-85846580D01*
X103999198Y-85839863D01*
X104001668Y-85838402D01*
X103981099Y-85785996D01*
X103994787Y-85717480D01*
X104012459Y-85692082D01*
X104110033Y-85583716D01*
X104177163Y-85467442D01*
X104227728Y-85419229D01*
X104296335Y-85406005D01*
X104297806Y-85406155D01*
X104352158Y-85411999D01*
X104352172Y-85412000D01*
X104651591Y-85412000D01*
X104658539Y-85412390D01*
X104699998Y-85417062D01*
X104700002Y-85417062D01*
X104741461Y-85412390D01*
X104748409Y-85412000D01*
X105951591Y-85412000D01*
X105958539Y-85412390D01*
X105999998Y-85417062D01*
X106000002Y-85417062D01*
X106041461Y-85412390D01*
X106048409Y-85412000D01*
X107251591Y-85412000D01*
X107258539Y-85412390D01*
X107299998Y-85417062D01*
X107300002Y-85417062D01*
X107341461Y-85412390D01*
X107348409Y-85412000D01*
X107700000Y-85412000D01*
X107700000Y-83562000D01*
X108200000Y-83562000D01*
X108200000Y-85412000D01*
X108551591Y-85412000D01*
X108558539Y-85412390D01*
X108599998Y-85417062D01*
X108600002Y-85417062D01*
X108641461Y-85412390D01*
X108648409Y-85412000D01*
X109851591Y-85412000D01*
X109858539Y-85412390D01*
X109899998Y-85417062D01*
X109900002Y-85417062D01*
X109941461Y-85412390D01*
X109948409Y-85412000D01*
X111151591Y-85412000D01*
X111158539Y-85412390D01*
X111199998Y-85417062D01*
X111200002Y-85417062D01*
X111241461Y-85412390D01*
X111248409Y-85412000D01*
X111547828Y-85412000D01*
X111547844Y-85411999D01*
X111607372Y-85405598D01*
X111607379Y-85405596D01*
X111742086Y-85355354D01*
X111742093Y-85355350D01*
X111857187Y-85269190D01*
X111857190Y-85269187D01*
X111943350Y-85154093D01*
X111943354Y-85154086D01*
X111993596Y-85019379D01*
X111993598Y-85019372D01*
X111999999Y-84959844D01*
X112000000Y-84959827D01*
X112000000Y-84660407D01*
X112000390Y-84653459D01*
X112005062Y-84612000D01*
X112005062Y-84611998D01*
X112000390Y-84570539D01*
X112000000Y-84563591D01*
X112000000Y-83562000D01*
X108200000Y-83562000D01*
X107700000Y-83562000D01*
X107700000Y-83312000D01*
X108444709Y-83312000D01*
X108465514Y-83389645D01*
X108522355Y-83446486D01*
X108580254Y-83462000D01*
X108619746Y-83462000D01*
X108677645Y-83446486D01*
X108734486Y-83389646D01*
X108755291Y-83312000D01*
X109744709Y-83312000D01*
X109765514Y-83389645D01*
X109822355Y-83446486D01*
X109880254Y-83462000D01*
X109919746Y-83462000D01*
X109977645Y-83446486D01*
X110034486Y-83389646D01*
X110055291Y-83312000D01*
X111044709Y-83312000D01*
X111065514Y-83389645D01*
X111122355Y-83446486D01*
X111180254Y-83462000D01*
X111219746Y-83462000D01*
X111277645Y-83446486D01*
X111334486Y-83389646D01*
X111355291Y-83312000D01*
X111334486Y-83234355D01*
X111277645Y-83177514D01*
X111219746Y-83162000D01*
X111180254Y-83162000D01*
X111122355Y-83177514D01*
X111065514Y-83234354D01*
X111044709Y-83312000D01*
X110055291Y-83312000D01*
X110034486Y-83234355D01*
X109977645Y-83177514D01*
X109919746Y-83162000D01*
X109880254Y-83162000D01*
X109822355Y-83177514D01*
X109765514Y-83234354D01*
X109744709Y-83312000D01*
X108755291Y-83312000D01*
X108734486Y-83234355D01*
X108677645Y-83177514D01*
X108619746Y-83162000D01*
X108580254Y-83162000D01*
X108522355Y-83177514D01*
X108465514Y-83234354D01*
X108444709Y-83312000D01*
X107700000Y-83312000D01*
X107700000Y-83186000D01*
X107719685Y-83118961D01*
X107772489Y-83073206D01*
X107824000Y-83062000D01*
X112000000Y-83062000D01*
X112000000Y-82060407D01*
X112000390Y-82053459D01*
X112005062Y-82012000D01*
X112005062Y-82011998D01*
X112000390Y-81970539D01*
X112000000Y-81963591D01*
X112000000Y-81664172D01*
X111999999Y-81664155D01*
X111993505Y-81603756D01*
X112005910Y-81534996D01*
X112053520Y-81483859D01*
X112116794Y-81466500D01*
X117832653Y-81466500D01*
X117848273Y-81468224D01*
X117848300Y-81467939D01*
X117856056Y-81468671D01*
X117856063Y-81468673D01*
X117925210Y-81466500D01*
X117954746Y-81466500D01*
X117961624Y-81465630D01*
X117967437Y-81465172D01*
X118014023Y-81463709D01*
X118033265Y-81458117D01*
X118052308Y-81454174D01*
X118072188Y-81451664D01*
X118115518Y-81434507D01*
X118121042Y-81432617D01*
X118124792Y-81431527D01*
X118165786Y-81419618D01*
X118183025Y-81409422D01*
X118200499Y-81400862D01*
X118219123Y-81393488D01*
X118219123Y-81393487D01*
X118219128Y-81393486D01*
X118256845Y-81366082D01*
X118261701Y-81362892D01*
X118301816Y-81339170D01*
X118315985Y-81324999D01*
X118330775Y-81312368D01*
X118346983Y-81300594D01*
X118376695Y-81264676D01*
X118380608Y-81260376D01*
X118842169Y-80798816D01*
X118903491Y-80765334D01*
X118929849Y-80762500D01*
X123375252Y-80762500D01*
X123442291Y-80782185D01*
X123467400Y-80803526D01*
X123473126Y-80809885D01*
X123473130Y-80809889D01*
X123626265Y-80921148D01*
X123626270Y-80921151D01*
X123799192Y-80998142D01*
X123799197Y-80998144D01*
X123984354Y-81037500D01*
X123984355Y-81037500D01*
X124173644Y-81037500D01*
X124173646Y-81037500D01*
X124358803Y-80998144D01*
X124422064Y-80969977D01*
X124491313Y-80960692D01*
X124554590Y-80990320D01*
X124591804Y-81049455D01*
X124596500Y-81083257D01*
X124596500Y-81731547D01*
X124576815Y-81798586D01*
X124560181Y-81819228D01*
X122226228Y-84153181D01*
X122164905Y-84186666D01*
X122138547Y-84189500D01*
X122079354Y-84189500D01*
X122046897Y-84196398D01*
X121894197Y-84228855D01*
X121894192Y-84228857D01*
X121721270Y-84305848D01*
X121721265Y-84305851D01*
X121568129Y-84417111D01*
X121441466Y-84557785D01*
X121346821Y-84721715D01*
X121346818Y-84721722D01*
X121300835Y-84863244D01*
X121288326Y-84901744D01*
X121268540Y-85090000D01*
X121288326Y-85278256D01*
X121288327Y-85278259D01*
X121346818Y-85458277D01*
X121346821Y-85458284D01*
X121441467Y-85622216D01*
X121533831Y-85724796D01*
X121568129Y-85762888D01*
X121721265Y-85874148D01*
X121721270Y-85874151D01*
X121894192Y-85951142D01*
X121894197Y-85951144D01*
X122079354Y-85990500D01*
X122079355Y-85990500D01*
X122268644Y-85990500D01*
X122268646Y-85990500D01*
X122453803Y-85951144D01*
X122626730Y-85874151D01*
X122779871Y-85762888D01*
X122906533Y-85622216D01*
X123001179Y-85458284D01*
X123059674Y-85278256D01*
X123077321Y-85110344D01*
X123103904Y-85045734D01*
X123112951Y-85035638D01*
X125605788Y-82542801D01*
X125618042Y-82532986D01*
X125617859Y-82532764D01*
X125623866Y-82527792D01*
X125623877Y-82527786D01*
X125654775Y-82494882D01*
X125671227Y-82477364D01*
X125681671Y-82466918D01*
X125692120Y-82456471D01*
X125696379Y-82450978D01*
X125700152Y-82446561D01*
X125732062Y-82412582D01*
X125741715Y-82395020D01*
X125752389Y-82378770D01*
X125764673Y-82362936D01*
X125783180Y-82320167D01*
X125785749Y-82314924D01*
X125808196Y-82274093D01*
X125808197Y-82274092D01*
X125813177Y-82254691D01*
X125819478Y-82236288D01*
X125827438Y-82217896D01*
X125834730Y-82171849D01*
X125835911Y-82166152D01*
X125836977Y-82162000D01*
X125847500Y-82121019D01*
X125847500Y-82100983D01*
X125849027Y-82081582D01*
X125852160Y-82061804D01*
X125847775Y-82015415D01*
X125847500Y-82009577D01*
X125847500Y-77533687D01*
X125867185Y-77466648D01*
X125879350Y-77450715D01*
X125897891Y-77430122D01*
X125954533Y-77367216D01*
X126049179Y-77203284D01*
X126107674Y-77023256D01*
X126127460Y-76835000D01*
X126107674Y-76646744D01*
X126049179Y-76466716D01*
X125954533Y-76302784D01*
X125827871Y-76162112D01*
X125827870Y-76162111D01*
X125674734Y-76050851D01*
X125674729Y-76050848D01*
X125501807Y-75973857D01*
X125501802Y-75973855D01*
X125356001Y-75942865D01*
X125316646Y-75934500D01*
X125127354Y-75934500D01*
X125094897Y-75941398D01*
X124942197Y-75973855D01*
X124942192Y-75973857D01*
X124769270Y-76050848D01*
X124769265Y-76050851D01*
X124616129Y-76162111D01*
X124489466Y-76302785D01*
X124394821Y-76466715D01*
X124394818Y-76466722D01*
X124336327Y-76646740D01*
X124336326Y-76646744D01*
X124316540Y-76835000D01*
X124336326Y-77023256D01*
X124336327Y-77023259D01*
X124394818Y-77203277D01*
X124394821Y-77203284D01*
X124489467Y-77367216D01*
X124532772Y-77415310D01*
X124564650Y-77450715D01*
X124594880Y-77513706D01*
X124596500Y-77533687D01*
X124596500Y-79190742D01*
X124576815Y-79257781D01*
X124524011Y-79303536D01*
X124454853Y-79313480D01*
X124422065Y-79304022D01*
X124358802Y-79275855D01*
X124213001Y-79244865D01*
X124173646Y-79236500D01*
X123984354Y-79236500D01*
X123951897Y-79243398D01*
X123799197Y-79275855D01*
X123799192Y-79275857D01*
X123626270Y-79352848D01*
X123626265Y-79352851D01*
X123473130Y-79464110D01*
X123473126Y-79464114D01*
X123467400Y-79470474D01*
X123407913Y-79507121D01*
X123375252Y-79511500D01*
X119792452Y-79511500D01*
X119725413Y-79491815D01*
X119679658Y-79439011D01*
X119669714Y-79369853D01*
X119698739Y-79306297D01*
X119704771Y-79299819D01*
X121232772Y-77771819D01*
X121294095Y-77738334D01*
X121320453Y-77735500D01*
X121379644Y-77735500D01*
X121379646Y-77735500D01*
X121564803Y-77696144D01*
X121737730Y-77619151D01*
X121890871Y-77507888D01*
X122017533Y-77367216D01*
X122112179Y-77203284D01*
X122170674Y-77023256D01*
X122190460Y-76835000D01*
X122170674Y-76646744D01*
X122112179Y-76466716D01*
X122017533Y-76302784D01*
X121890871Y-76162112D01*
X121890870Y-76162111D01*
X121737734Y-76050851D01*
X121737729Y-76050848D01*
X121614043Y-75995779D01*
X121560806Y-75950529D01*
X121540485Y-75883680D01*
X121559531Y-75816456D01*
X121611897Y-75770201D01*
X121614043Y-75769221D01*
X121666498Y-75745865D01*
X121737730Y-75714151D01*
X121890871Y-75602888D01*
X122017533Y-75462216D01*
X122112179Y-75298284D01*
X122170674Y-75118256D01*
X122190460Y-74930000D01*
X122170674Y-74741744D01*
X122112179Y-74561716D01*
X122017533Y-74397784D01*
X121890871Y-74257112D01*
X121856887Y-74232421D01*
X121737734Y-74145851D01*
X121737729Y-74145848D01*
X121614043Y-74090779D01*
X121560806Y-74045529D01*
X121540485Y-73978680D01*
X121559531Y-73911456D01*
X121611897Y-73865201D01*
X121614043Y-73864221D01*
X121666498Y-73840865D01*
X121737730Y-73809151D01*
X121890871Y-73697888D01*
X122017533Y-73557216D01*
X122112179Y-73393284D01*
X122170674Y-73213256D01*
X122190460Y-73025000D01*
X122170674Y-72836744D01*
X122112179Y-72656716D01*
X122017533Y-72492784D01*
X121890871Y-72352112D01*
X121890870Y-72352111D01*
X121737734Y-72240851D01*
X121737729Y-72240848D01*
X121564807Y-72163857D01*
X121564802Y-72163855D01*
X121419001Y-72132865D01*
X121379646Y-72124500D01*
X121190354Y-72124500D01*
X121157897Y-72131398D01*
X121005197Y-72163855D01*
X121005192Y-72163857D01*
X120832270Y-72240848D01*
X120832265Y-72240851D01*
X120679129Y-72352111D01*
X120552466Y-72492785D01*
X120457821Y-72656715D01*
X120457818Y-72656722D01*
X120399327Y-72836740D01*
X120399326Y-72836744D01*
X120381679Y-73004649D01*
X120355094Y-73069263D01*
X120346039Y-73079368D01*
X119726208Y-73699199D01*
X119713951Y-73709020D01*
X119714134Y-73709241D01*
X119708123Y-73714213D01*
X119660772Y-73764636D01*
X119639889Y-73785519D01*
X119639877Y-73785532D01*
X119635621Y-73791017D01*
X119631837Y-73795447D01*
X119599937Y-73829418D01*
X119599936Y-73829420D01*
X119590284Y-73846976D01*
X119579610Y-73863226D01*
X119567329Y-73879061D01*
X119567324Y-73879068D01*
X119548815Y-73921838D01*
X119546245Y-73927084D01*
X119523803Y-73967906D01*
X119518822Y-73987307D01*
X119512521Y-74005710D01*
X119504562Y-74024102D01*
X119504561Y-74024105D01*
X119497271Y-74070127D01*
X119496087Y-74075846D01*
X119484501Y-74120972D01*
X119484500Y-74120982D01*
X119484500Y-74141016D01*
X119482973Y-74160415D01*
X119479840Y-74180194D01*
X119479840Y-74180195D01*
X119484225Y-74226583D01*
X119484500Y-74232421D01*
X119484500Y-76426755D01*
X119464815Y-76493794D01*
X119448181Y-76514436D01*
X117133436Y-78829181D01*
X117072113Y-78862666D01*
X117045755Y-78865500D01*
X107293206Y-78865500D01*
X107226167Y-78845815D01*
X107180412Y-78793011D01*
X107170468Y-78723853D01*
X107175273Y-78703187D01*
X107184674Y-78674256D01*
X107204460Y-78486000D01*
X107184674Y-78297744D01*
X107126179Y-78117716D01*
X107031533Y-77953784D01*
X106956350Y-77870284D01*
X106926120Y-77807292D01*
X106924500Y-77787312D01*
X106924500Y-73846244D01*
X106944185Y-73779205D01*
X106960819Y-73758563D01*
X109190168Y-71529215D01*
X109251491Y-71495730D01*
X109277849Y-71492896D01*
X122118943Y-71492896D01*
X122185982Y-71512581D01*
X122206624Y-71529215D01*
X122251039Y-71573630D01*
X122284524Y-71634953D01*
X122286678Y-71648343D01*
X122304326Y-71816256D01*
X122304327Y-71816259D01*
X122362818Y-71996277D01*
X122362821Y-71996284D01*
X122457467Y-72160216D01*
X122584129Y-72300888D01*
X122737265Y-72412148D01*
X122737270Y-72412151D01*
X122910192Y-72489142D01*
X122910197Y-72489144D01*
X123095354Y-72528500D01*
X123095355Y-72528500D01*
X123284644Y-72528500D01*
X123284646Y-72528500D01*
X123469803Y-72489144D01*
X123642730Y-72412151D01*
X123795871Y-72300888D01*
X123922533Y-72160216D01*
X124017179Y-71996284D01*
X124075674Y-71816256D01*
X124095460Y-71628000D01*
X124075674Y-71439744D01*
X124017179Y-71259716D01*
X123922533Y-71095784D01*
X123795871Y-70955112D01*
X123795870Y-70955111D01*
X123642734Y-70843851D01*
X123642729Y-70843848D01*
X123469807Y-70766857D01*
X123469802Y-70766855D01*
X123324001Y-70735865D01*
X123284646Y-70727500D01*
X123284645Y-70727500D01*
X123225453Y-70727500D01*
X123158414Y-70707815D01*
X123137772Y-70691181D01*
X122930199Y-70483608D01*
X122920376Y-70471346D01*
X122920155Y-70471530D01*
X122915182Y-70465519D01*
X122864760Y-70418169D01*
X122854315Y-70407724D01*
X122843871Y-70397279D01*
X122838382Y-70393021D01*
X122833957Y-70389243D01*
X122799978Y-70357334D01*
X122799976Y-70357332D01*
X122799973Y-70357331D01*
X122782425Y-70347684D01*
X122766159Y-70337000D01*
X122750329Y-70324721D01*
X122707564Y-70306214D01*
X122702318Y-70303644D01*
X122661489Y-70281199D01*
X122661488Y-70281198D01*
X122642089Y-70276218D01*
X122623677Y-70269914D01*
X122605294Y-70261958D01*
X122605288Y-70261956D01*
X122559270Y-70254668D01*
X122553548Y-70253483D01*
X122508417Y-70241896D01*
X122508415Y-70241896D01*
X122488380Y-70241896D01*
X122468982Y-70240369D01*
X122461558Y-70239193D01*
X122449201Y-70237236D01*
X122449200Y-70237236D01*
X122402812Y-70241621D01*
X122396974Y-70241896D01*
X110140452Y-70241896D01*
X110073413Y-70222211D01*
X110027658Y-70169407D01*
X110017714Y-70100249D01*
X110046739Y-70036693D01*
X110052771Y-70030215D01*
X121033788Y-59049197D01*
X121046042Y-59039382D01*
X121045859Y-59039160D01*
X121051866Y-59034188D01*
X121051877Y-59034182D01*
X121082775Y-59001278D01*
X121099227Y-58983760D01*
X121109671Y-58973314D01*
X121120120Y-58962867D01*
X121124379Y-58957374D01*
X121128152Y-58952957D01*
X121160062Y-58918978D01*
X121169715Y-58901416D01*
X121180389Y-58885166D01*
X121192673Y-58869332D01*
X121211180Y-58826563D01*
X121213749Y-58821320D01*
X121236196Y-58780489D01*
X121236197Y-58780488D01*
X121241177Y-58761087D01*
X121247478Y-58742684D01*
X121255438Y-58724292D01*
X121262730Y-58678245D01*
X121263911Y-58672548D01*
X121275500Y-58627415D01*
X121275500Y-58624499D01*
X121276146Y-58622298D01*
X121276478Y-58619672D01*
X121276901Y-58619725D01*
X121295185Y-58557460D01*
X121347989Y-58511705D01*
X121399500Y-58500499D01*
X121547871Y-58500499D01*
X121547872Y-58500499D01*
X121607483Y-58494091D01*
X121742331Y-58443796D01*
X121857546Y-58357546D01*
X121943796Y-58242331D01*
X121994091Y-58107483D01*
X122000500Y-58047873D01*
X122000499Y-56252128D01*
X121994091Y-56192517D01*
X121992810Y-56189083D01*
X121943797Y-56057671D01*
X121943793Y-56057664D01*
X121857547Y-55942455D01*
X121857544Y-55942452D01*
X121742335Y-55856206D01*
X121742328Y-55856202D01*
X121610917Y-55807189D01*
X121554983Y-55765318D01*
X121530566Y-55699853D01*
X121545418Y-55631580D01*
X121566563Y-55603332D01*
X121688495Y-55481401D01*
X121824035Y-55287830D01*
X121923903Y-55073663D01*
X121985063Y-54845408D01*
X122005659Y-54610000D01*
X121985063Y-54374592D01*
X121923903Y-54146337D01*
X121824035Y-53932171D01*
X121818731Y-53924595D01*
X121688494Y-53738597D01*
X121521402Y-53571506D01*
X121521395Y-53571501D01*
X121327834Y-53435967D01*
X121327830Y-53435965D01*
X121327828Y-53435964D01*
X121113663Y-53336097D01*
X121113659Y-53336096D01*
X121113655Y-53336094D01*
X120885413Y-53274938D01*
X120885403Y-53274936D01*
X120650001Y-53254341D01*
X120649999Y-53254341D01*
X120414596Y-53274936D01*
X120414586Y-53274938D01*
X120186344Y-53336094D01*
X120186335Y-53336098D01*
X119972171Y-53435964D01*
X119972169Y-53435965D01*
X119778597Y-53571505D01*
X119611505Y-53738597D01*
X119481575Y-53924158D01*
X119426998Y-53967783D01*
X119357500Y-53974977D01*
X119295145Y-53943454D01*
X119278425Y-53924158D01*
X119148494Y-53738597D01*
X118981402Y-53571506D01*
X118981395Y-53571501D01*
X118787834Y-53435967D01*
X118787830Y-53435965D01*
X118787828Y-53435964D01*
X118573663Y-53336097D01*
X118573659Y-53336096D01*
X118573655Y-53336094D01*
X118345413Y-53274938D01*
X118345403Y-53274936D01*
X118110001Y-53254341D01*
X118109999Y-53254341D01*
X117874596Y-53274936D01*
X117874586Y-53274938D01*
X117646344Y-53336094D01*
X117646335Y-53336098D01*
X117432171Y-53435964D01*
X117432169Y-53435965D01*
X117238597Y-53571505D01*
X117071505Y-53738597D01*
X116941575Y-53924158D01*
X116886998Y-53967783D01*
X116817500Y-53974977D01*
X116755145Y-53943454D01*
X116738425Y-53924158D01*
X116608494Y-53738597D01*
X116441402Y-53571506D01*
X116441395Y-53571501D01*
X116247834Y-53435967D01*
X116247830Y-53435965D01*
X116247828Y-53435964D01*
X116033663Y-53336097D01*
X116033659Y-53336096D01*
X116033655Y-53336094D01*
X115805413Y-53274938D01*
X115805403Y-53274936D01*
X115570001Y-53254341D01*
X115569999Y-53254341D01*
X115334596Y-53274936D01*
X115334586Y-53274938D01*
X115106344Y-53336094D01*
X115106335Y-53336098D01*
X114892171Y-53435964D01*
X114892169Y-53435965D01*
X114698597Y-53571505D01*
X114531505Y-53738597D01*
X114401575Y-53924158D01*
X114346998Y-53967783D01*
X114277500Y-53974977D01*
X114215145Y-53943454D01*
X114198425Y-53924158D01*
X114068494Y-53738597D01*
X113901402Y-53571506D01*
X113901395Y-53571501D01*
X113707834Y-53435967D01*
X113707830Y-53435965D01*
X113707828Y-53435964D01*
X113493663Y-53336097D01*
X113493659Y-53336096D01*
X113493655Y-53336094D01*
X113265413Y-53274938D01*
X113265403Y-53274936D01*
X113030001Y-53254341D01*
X113029999Y-53254341D01*
X112794596Y-53274936D01*
X112794586Y-53274938D01*
X112566344Y-53336094D01*
X112566335Y-53336098D01*
X112352171Y-53435964D01*
X112352169Y-53435965D01*
X112158597Y-53571505D01*
X111991508Y-53738594D01*
X111861269Y-53924595D01*
X111806692Y-53968219D01*
X111737193Y-53975412D01*
X111674839Y-53943890D01*
X111658119Y-53924594D01*
X111528113Y-53738926D01*
X111528108Y-53738920D01*
X111361082Y-53571894D01*
X111167578Y-53436399D01*
X110953492Y-53336570D01*
X110953486Y-53336567D01*
X110740000Y-53279364D01*
X110740000Y-54174498D01*
X110632315Y-54125320D01*
X110525763Y-54110000D01*
X110454237Y-54110000D01*
X110347685Y-54125320D01*
X110240000Y-54174498D01*
X110240000Y-53279364D01*
X110239999Y-53279364D01*
X110026513Y-53336567D01*
X110026507Y-53336570D01*
X109812422Y-53436399D01*
X109812420Y-53436400D01*
X109618926Y-53571886D01*
X109618920Y-53571891D01*
X109451891Y-53738920D01*
X109451890Y-53738922D01*
X109321880Y-53924595D01*
X109267303Y-53968219D01*
X109197804Y-53975412D01*
X109135450Y-53943890D01*
X109118730Y-53924594D01*
X108988494Y-53738597D01*
X108821402Y-53571506D01*
X108821395Y-53571501D01*
X108627834Y-53435967D01*
X108627830Y-53435965D01*
X108627828Y-53435964D01*
X108413663Y-53336097D01*
X108413659Y-53336096D01*
X108413655Y-53336094D01*
X108185413Y-53274938D01*
X108185403Y-53274936D01*
X107950001Y-53254341D01*
X107949999Y-53254341D01*
X107714596Y-53274936D01*
X107714586Y-53274938D01*
X107486344Y-53336094D01*
X107486335Y-53336098D01*
X107272171Y-53435964D01*
X107272169Y-53435965D01*
X107078597Y-53571505D01*
X106911505Y-53738597D01*
X106775965Y-53932169D01*
X106775964Y-53932171D01*
X106676098Y-54146335D01*
X106676094Y-54146344D01*
X106614938Y-54374586D01*
X106614936Y-54374596D01*
X106594341Y-54609999D01*
X106594341Y-54610000D01*
X106614936Y-54845403D01*
X106614938Y-54845413D01*
X106676094Y-55073655D01*
X106676096Y-55073659D01*
X106676097Y-55073663D01*
X106755801Y-55244588D01*
X106775965Y-55287830D01*
X106775967Y-55287834D01*
X106884281Y-55442521D01*
X106911504Y-55481400D01*
X106911506Y-55481402D01*
X107078597Y-55648493D01*
X107078603Y-55648498D01*
X107264158Y-55778425D01*
X107307783Y-55833002D01*
X107314977Y-55902500D01*
X107283454Y-55964855D01*
X107264158Y-55981575D01*
X107078597Y-56111505D01*
X106911505Y-56278597D01*
X106775965Y-56472169D01*
X106775964Y-56472171D01*
X106676098Y-56686335D01*
X106676094Y-56686344D01*
X106614938Y-56914586D01*
X106614936Y-56914596D01*
X106594341Y-57149999D01*
X106594341Y-57150000D01*
X106614936Y-57385403D01*
X106614938Y-57385413D01*
X106676094Y-57613655D01*
X106676096Y-57613659D01*
X106676097Y-57613663D01*
X106755801Y-57784588D01*
X106775965Y-57827830D01*
X106775967Y-57827834D01*
X106884281Y-57982521D01*
X106911505Y-58021401D01*
X107078599Y-58188495D01*
X107175384Y-58256265D01*
X107272165Y-58324032D01*
X107272167Y-58324033D01*
X107272170Y-58324035D01*
X107486337Y-58423903D01*
X107486343Y-58423904D01*
X107486344Y-58423905D01*
X107541285Y-58438626D01*
X107714592Y-58485063D01*
X107891034Y-58500500D01*
X107949999Y-58505659D01*
X107950000Y-58505659D01*
X107950001Y-58505659D01*
X108008966Y-58500500D01*
X108185408Y-58485063D01*
X108413663Y-58423903D01*
X108627830Y-58324035D01*
X108821401Y-58188495D01*
X108988495Y-58021401D01*
X109118730Y-57835405D01*
X109173307Y-57791781D01*
X109242805Y-57784587D01*
X109305160Y-57816110D01*
X109321879Y-57835405D01*
X109451890Y-58021078D01*
X109618917Y-58188105D01*
X109812421Y-58323600D01*
X110026507Y-58423429D01*
X110026516Y-58423433D01*
X110240000Y-58480634D01*
X110240000Y-57585501D01*
X110347685Y-57634680D01*
X110454237Y-57650000D01*
X110525763Y-57650000D01*
X110632315Y-57634680D01*
X110740000Y-57585501D01*
X110740000Y-58480633D01*
X110953483Y-58423433D01*
X110953492Y-58423429D01*
X111167578Y-58323600D01*
X111361082Y-58188105D01*
X111528105Y-58021082D01*
X111658119Y-57835405D01*
X111712696Y-57791781D01*
X111782195Y-57784588D01*
X111844549Y-57816110D01*
X111861269Y-57835405D01*
X111991505Y-58021401D01*
X112158599Y-58188495D01*
X112351624Y-58323653D01*
X112395248Y-58378228D01*
X112404500Y-58425226D01*
X112404500Y-63948754D01*
X112384815Y-64015793D01*
X112368181Y-64036435D01*
X102269208Y-74135407D01*
X102256951Y-74145228D01*
X102257134Y-74145449D01*
X102251123Y-74150421D01*
X102203772Y-74200844D01*
X102182889Y-74221727D01*
X102182877Y-74221740D01*
X102178621Y-74227225D01*
X102174837Y-74231655D01*
X102142937Y-74265626D01*
X102142936Y-74265628D01*
X102133284Y-74283184D01*
X102122610Y-74299434D01*
X102110329Y-74315269D01*
X102110324Y-74315276D01*
X102091815Y-74358046D01*
X102089245Y-74363292D01*
X102066803Y-74404114D01*
X102061822Y-74423515D01*
X102055521Y-74441918D01*
X102047562Y-74460310D01*
X102047561Y-74460313D01*
X102040271Y-74506335D01*
X102039087Y-74512054D01*
X102027501Y-74557180D01*
X102027500Y-74557190D01*
X102027500Y-74577224D01*
X102025973Y-74596623D01*
X102022840Y-74616402D01*
X102022840Y-74616403D01*
X99060500Y-74616403D01*
X99060500Y-51184483D01*
X99060890Y-51177538D01*
X99060891Y-51177532D01*
X99063470Y-51154633D01*
X99078234Y-51042498D01*
X99084125Y-51017754D01*
X99099602Y-50973524D01*
X99100800Y-50970385D01*
X99131837Y-50895456D01*
X99141381Y-50876980D01*
X99169918Y-50831564D01*
X99173195Y-50826850D01*
X99222587Y-50762481D01*
X99227900Y-50756423D01*
X99270423Y-50713900D01*
X99276481Y-50708587D01*
X99340850Y-50659195D01*
X99345564Y-50655918D01*
X99390980Y-50627381D01*
X99409456Y-50617837D01*
X99484385Y-50586800D01*
X99487524Y-50585602D01*
X99531754Y-50570125D01*
X99556498Y-50564234D01*
X99668633Y-50549470D01*
X99691539Y-50546890D01*
X99698484Y-50546500D01*
X128901515Y-50546500D01*
X128908460Y-50546890D01*
G37*
G04 #@! TD.AperFunction*
M02*
