G04 #@! TF.GenerationSoftware,KiCad,Pcbnew,7.0.9-7.0.9~ubuntu20.04.1*
G04 #@! TF.CreationDate,2024-01-18T00:40:06+01:00*
G04 #@! TF.ProjectId,kicad-pmod_bldc,6b696361-642d-4706-9d6f-645f626c6463,1.0*
G04 #@! TF.SameCoordinates,Original*
G04 #@! TF.FileFunction,Copper,L1,Top*
G04 #@! TF.FilePolarity,Positive*
%FSLAX46Y46*%
G04 Gerber Fmt 4.6, Leading zero omitted, Abs format (unit mm)*
G04 Created by KiCad (PCBNEW 7.0.9-7.0.9~ubuntu20.04.1) date 2024-01-18 00:40:06*
%MOMM*%
%LPD*%
G01*
G04 APERTURE LIST*
G04 Aperture macros list*
%AMRoundRect*
0 Rectangle with rounded corners*
0 $1 Rounding radius*
0 $2 $3 $4 $5 $6 $7 $8 $9 X,Y pos of 4 corners*
0 Add a 4 corners polygon primitive as box body*
4,1,4,$2,$3,$4,$5,$6,$7,$8,$9,$2,$3,0*
0 Add four circle primitives for the rounded corners*
1,1,$1+$1,$2,$3*
1,1,$1+$1,$4,$5*
1,1,$1+$1,$6,$7*
1,1,$1+$1,$8,$9*
0 Add four rect primitives between the rounded corners*
20,1,$1+$1,$2,$3,$4,$5,0*
20,1,$1+$1,$4,$5,$6,$7,0*
20,1,$1+$1,$6,$7,$8,$9,0*
20,1,$1+$1,$8,$9,$2,$3,0*%
G04 Aperture macros list end*
G04 #@! TA.AperFunction,SMDPad,CuDef*
%ADD10RoundRect,0.237500X0.250000X0.237500X-0.250000X0.237500X-0.250000X-0.237500X0.250000X-0.237500X0*%
G04 #@! TD*
G04 #@! TA.AperFunction,SMDPad,CuDef*
%ADD11RoundRect,0.237500X0.237500X-0.287500X0.237500X0.287500X-0.237500X0.287500X-0.237500X-0.287500X0*%
G04 #@! TD*
G04 #@! TA.AperFunction,SMDPad,CuDef*
%ADD12RoundRect,0.237500X-0.287500X-0.237500X0.287500X-0.237500X0.287500X0.237500X-0.287500X0.237500X0*%
G04 #@! TD*
G04 #@! TA.AperFunction,SMDPad,CuDef*
%ADD13RoundRect,0.237500X-0.237500X0.300000X-0.237500X-0.300000X0.237500X-0.300000X0.237500X0.300000X0*%
G04 #@! TD*
G04 #@! TA.AperFunction,SMDPad,CuDef*
%ADD14R,1.500000X1.500000*%
G04 #@! TD*
G04 #@! TA.AperFunction,ComponentPad*
%ADD15R,1.700000X1.700000*%
G04 #@! TD*
G04 #@! TA.AperFunction,ComponentPad*
%ADD16O,1.700000X1.700000*%
G04 #@! TD*
G04 #@! TA.AperFunction,SMDPad,CuDef*
%ADD17RoundRect,0.237500X-0.250000X-0.237500X0.250000X-0.237500X0.250000X0.237500X-0.250000X0.237500X0*%
G04 #@! TD*
G04 #@! TA.AperFunction,ComponentPad*
%ADD18R,3.000000X3.000000*%
G04 #@! TD*
G04 #@! TA.AperFunction,ComponentPad*
%ADD19C,3.000000*%
G04 #@! TD*
G04 #@! TA.AperFunction,SMDPad,CuDef*
%ADD20RoundRect,0.237500X-0.300000X-0.237500X0.300000X-0.237500X0.300000X0.237500X-0.300000X0.237500X0*%
G04 #@! TD*
G04 #@! TA.AperFunction,SMDPad,CuDef*
%ADD21RoundRect,0.237500X-0.237500X0.250000X-0.237500X-0.250000X0.237500X-0.250000X0.237500X0.250000X0*%
G04 #@! TD*
G04 #@! TA.AperFunction,SMDPad,CuDef*
%ADD22RoundRect,0.250000X1.100000X-0.412500X1.100000X0.412500X-1.100000X0.412500X-1.100000X-0.412500X0*%
G04 #@! TD*
G04 #@! TA.AperFunction,SMDPad,CuDef*
%ADD23RoundRect,0.100000X-0.100000X0.687500X-0.100000X-0.687500X0.100000X-0.687500X0.100000X0.687500X0*%
G04 #@! TD*
G04 #@! TA.AperFunction,ComponentPad*
%ADD24C,0.600000*%
G04 #@! TD*
G04 #@! TA.AperFunction,SMDPad,CuDef*
%ADD25R,7.800000X3.400000*%
G04 #@! TD*
G04 #@! TA.AperFunction,SMDPad,CuDef*
%ADD26RoundRect,0.237500X0.237500X-0.300000X0.237500X0.300000X-0.237500X0.300000X-0.237500X-0.300000X0*%
G04 #@! TD*
G04 #@! TA.AperFunction,SMDPad,CuDef*
%ADD27RoundRect,0.237500X-0.237500X0.287500X-0.237500X-0.287500X0.237500X-0.287500X0.237500X0.287500X0*%
G04 #@! TD*
G04 #@! TA.AperFunction,ViaPad*
%ADD28C,0.800000*%
G04 #@! TD*
G04 #@! TA.AperFunction,Conductor*
%ADD29C,1.000000*%
G04 #@! TD*
G04 #@! TA.AperFunction,Conductor*
%ADD30C,0.500000*%
G04 #@! TD*
G04 #@! TA.AperFunction,Conductor*
%ADD31C,0.400000*%
G04 #@! TD*
G04 #@! TA.AperFunction,Conductor*
%ADD32C,2.280000*%
G04 #@! TD*
G04 #@! TA.AperFunction,Conductor*
%ADD33C,0.250000*%
G04 #@! TD*
G04 APERTURE END LIST*
D10*
X102512500Y-86233000D03*
X100687500Y-86233000D03*
X124102500Y-73025000D03*
X122277500Y-73025000D03*
D11*
X109220000Y-67550000D03*
X109220000Y-65800000D03*
D12*
X123585000Y-86868000D03*
X125335000Y-86868000D03*
D13*
X106680000Y-75491000D03*
X106680000Y-77216000D03*
D14*
X104140000Y-62140000D03*
X104140000Y-69940000D03*
D15*
X120650000Y-57150000D03*
D16*
X120650000Y-54610000D03*
X118110000Y-57150000D03*
X118110000Y-54610000D03*
X115570000Y-57150000D03*
X115570000Y-54610000D03*
X113030000Y-57150000D03*
X113030000Y-54610000D03*
X110490000Y-57150000D03*
X110490000Y-54610000D03*
X107950000Y-57150000D03*
X107950000Y-54610000D03*
D17*
X124817500Y-55245000D03*
X126642500Y-55245000D03*
D18*
X121920000Y-96520000D03*
D19*
X127000000Y-96520000D03*
D20*
X111506000Y-77216000D03*
X113231000Y-77216000D03*
D10*
X124102500Y-78740000D03*
X122277500Y-78740000D03*
D12*
X111506000Y-75438000D03*
X113256000Y-75438000D03*
D18*
X101600000Y-96520000D03*
D19*
X106680000Y-96520000D03*
D21*
X109220000Y-61952500D03*
X109220000Y-63777500D03*
D22*
X116459000Y-86233000D03*
X116459000Y-83108000D03*
D10*
X124102500Y-74930000D03*
X122277500Y-74930000D03*
D13*
X105156000Y-75491000D03*
X105156000Y-77216000D03*
D17*
X113387500Y-67310000D03*
X115212500Y-67310000D03*
D10*
X124102500Y-76835000D03*
X122277500Y-76835000D03*
D13*
X108204000Y-75491000D03*
X108204000Y-77216000D03*
D11*
X119380000Y-67550000D03*
X119380000Y-65800000D03*
D21*
X119380000Y-61952500D03*
X119380000Y-63777500D03*
D12*
X113425000Y-70485000D03*
X115175000Y-70485000D03*
D10*
X103782500Y-58420000D03*
X101957500Y-58420000D03*
D23*
X111525000Y-80449500D03*
X110875000Y-80449500D03*
X110225000Y-80449500D03*
X109575000Y-80449500D03*
X108925000Y-80449500D03*
X108275000Y-80449500D03*
X107625000Y-80449500D03*
X106975000Y-80449500D03*
X106325000Y-80449500D03*
X105675000Y-80449500D03*
X105025000Y-80449500D03*
X104375000Y-80449500D03*
X104375000Y-86174500D03*
X105025000Y-86174500D03*
X105675000Y-86174500D03*
X106325000Y-86174500D03*
X106975000Y-86174500D03*
X107625000Y-86174500D03*
X108275000Y-86174500D03*
X108925000Y-86174500D03*
X109575000Y-86174500D03*
X110225000Y-86174500D03*
X110875000Y-86174500D03*
X111525000Y-86174500D03*
D24*
X111200000Y-82012000D03*
X109900000Y-82012000D03*
X108600000Y-82012000D03*
X107300000Y-82012000D03*
X106000000Y-82012000D03*
X104700000Y-82012000D03*
X111200000Y-83312000D03*
X109900000Y-83312000D03*
X108600000Y-83312000D03*
D25*
X107950000Y-83312000D03*
D24*
X107300000Y-83312000D03*
X106000000Y-83312000D03*
X104700000Y-83312000D03*
X111200000Y-84612000D03*
X109900000Y-84612000D03*
X108600000Y-84612000D03*
X107300000Y-84612000D03*
X106000000Y-84612000D03*
X104700000Y-84612000D03*
D14*
X124460000Y-62140000D03*
X124460000Y-69940000D03*
D10*
X103782500Y-55245000D03*
X101957500Y-55245000D03*
D26*
X113665000Y-84047500D03*
X113665000Y-82322500D03*
D27*
X109728000Y-75466000D03*
X109728000Y-77216000D03*
D17*
X123547500Y-85090000D03*
X125372500Y-85090000D03*
X124817500Y-58420000D03*
X126642500Y-58420000D03*
D18*
X111760000Y-96520000D03*
D19*
X116840000Y-96520000D03*
D28*
X105994200Y-87630000D03*
X107442000Y-67564000D03*
X122174000Y-85090000D03*
X125222000Y-76835000D03*
X106299000Y-78486000D03*
X123190000Y-71628000D03*
X105283000Y-78486000D03*
X121285000Y-73025000D03*
X121285000Y-74930000D03*
X104267000Y-78486000D03*
X103378000Y-80391000D03*
X121285000Y-76835000D03*
X124079000Y-80137000D03*
X103377500Y-85051500D03*
X103505000Y-87249000D03*
D29*
X121920000Y-96520000D02*
X116459000Y-91059000D01*
X113665000Y-86233000D02*
X111167000Y-86233000D01*
X111525000Y-86250000D02*
X111150000Y-86250000D01*
X116459000Y-86233000D02*
X113665000Y-86233000D01*
X116459000Y-91059000D02*
X116459000Y-86233000D01*
X111167000Y-86233000D02*
X111150000Y-86250000D01*
X113665000Y-84047500D02*
X113665000Y-86233000D01*
X113665000Y-82322500D02*
X113665000Y-80391000D01*
X113665000Y-80391000D02*
X111800000Y-80391000D01*
X111800000Y-80391000D02*
X111800000Y-80374000D01*
D30*
X108204000Y-75491000D02*
X108204000Y-73025000D01*
D31*
X108925000Y-80374000D02*
X108925000Y-82337000D01*
X108925000Y-82337000D02*
X107950000Y-83312000D01*
X117094000Y-72517000D02*
X116459000Y-73152000D01*
X106000000Y-84612000D02*
X106000000Y-86168700D01*
X104140000Y-72009000D02*
X105156000Y-73025000D01*
X109220000Y-72898000D02*
X109347000Y-73025000D01*
D29*
X116509000Y-83058000D02*
X116459000Y-83108000D01*
X116459000Y-83108000D02*
X116459000Y-82423000D01*
D31*
X113425000Y-72884000D02*
X113284000Y-73025000D01*
X105675000Y-86174500D02*
X105994200Y-86174500D01*
D29*
X127000000Y-84836000D02*
X127000000Y-83820000D01*
D30*
X106680000Y-75491000D02*
X106680000Y-73025000D01*
D32*
X106680000Y-73025000D02*
X108204000Y-73025000D01*
D31*
X119380000Y-67550000D02*
X117235000Y-67550000D01*
D32*
X116459000Y-73152000D02*
X116459000Y-82423000D01*
D31*
X120142000Y-83185000D02*
X120015000Y-83058000D01*
D32*
X100838000Y-83312000D02*
X100838000Y-73025000D01*
X113284000Y-73025000D02*
X116332000Y-73025000D01*
D30*
X105156000Y-75491000D02*
X105156000Y-73025000D01*
D31*
X109220000Y-67550000D02*
X107456000Y-67550000D01*
D29*
X120015000Y-83058000D02*
X116509000Y-83058000D01*
D31*
X106975000Y-82337000D02*
X107950000Y-83312000D01*
D29*
X127000000Y-83820000D02*
X126238000Y-83058000D01*
D31*
X124460000Y-69940000D02*
X127000000Y-72480000D01*
D32*
X109347000Y-73025000D02*
X113284000Y-73025000D01*
D29*
X127000000Y-96520000D02*
X127000000Y-84836000D01*
D31*
X105675000Y-83312000D02*
X107950000Y-83312000D01*
D29*
X126238000Y-83058000D02*
X120015000Y-83058000D01*
D31*
X104140000Y-69940000D02*
X104140000Y-72009000D01*
X109220000Y-67550000D02*
X109220000Y-72898000D01*
D32*
X116332000Y-73025000D02*
X116459000Y-73152000D01*
D31*
X106975000Y-80374000D02*
X106975000Y-82337000D01*
D32*
X100838000Y-73025000D02*
X105156000Y-73025000D01*
D31*
X123585000Y-86868000D02*
X120904000Y-86868000D01*
X117235000Y-67550000D02*
X117094000Y-67691000D01*
X117094000Y-67691000D02*
X117094000Y-72517000D01*
D29*
X105994200Y-86174500D02*
X106000000Y-86168700D01*
D32*
X107950000Y-83312000D02*
X100838000Y-83312000D01*
D31*
X100687500Y-86233000D02*
X100687500Y-83462500D01*
X120142000Y-86106000D02*
X120142000Y-83185000D01*
D32*
X108204000Y-73025000D02*
X109347000Y-73025000D01*
D31*
X127000000Y-72480000D02*
X127000000Y-84836000D01*
X107456000Y-67550000D02*
X107442000Y-67564000D01*
D29*
X105994200Y-87630000D02*
X105994200Y-86174500D01*
D30*
X113256000Y-73053000D02*
X113284000Y-73025000D01*
D31*
X120904000Y-86868000D02*
X120142000Y-86106000D01*
D32*
X105156000Y-73025000D02*
X106680000Y-73025000D01*
D30*
X113256000Y-75438000D02*
X113256000Y-73053000D01*
D31*
X105994200Y-86174500D02*
X106325000Y-86174500D01*
X100687500Y-83462500D02*
X100838000Y-83312000D01*
X113425000Y-70485000D02*
X113425000Y-72884000D01*
D33*
X110225000Y-80374000D02*
X110225000Y-78497000D01*
X110225000Y-78497000D02*
X111506000Y-77216000D01*
X112776000Y-78740000D02*
X113231000Y-78285000D01*
X110875000Y-79386500D02*
X111521500Y-78740000D01*
X111521500Y-78740000D02*
X112776000Y-78740000D01*
X113231000Y-78285000D02*
X113231000Y-77216000D01*
X110875000Y-80374000D02*
X110875000Y-79386500D01*
X107625000Y-78161000D02*
X106680000Y-77216000D01*
X107625000Y-80374000D02*
X107625000Y-78161000D01*
X106299000Y-78359000D02*
X105156000Y-77216000D01*
X123698000Y-71628000D02*
X124102500Y-72032500D01*
X124102500Y-76835000D02*
X125222000Y-76835000D01*
X106325000Y-78512000D02*
X106325000Y-80374000D01*
X124102500Y-72032500D02*
X124102500Y-73025000D01*
X123547500Y-85090000D02*
X122174000Y-85090000D01*
X124102500Y-74930000D02*
X124102500Y-73025000D01*
X106299000Y-78486000D02*
X106325000Y-78512000D01*
X124102500Y-76835000D02*
X124102500Y-74930000D01*
X106299000Y-78486000D02*
X106299000Y-78359000D01*
X123190000Y-71628000D02*
X123698000Y-71628000D01*
X119380000Y-63777500D02*
X119380000Y-65800000D01*
X125372500Y-85090000D02*
X125372500Y-86830500D01*
X125372500Y-86830500D02*
X125335000Y-86868000D01*
X115175000Y-67347500D02*
X115212500Y-67310000D01*
X115175000Y-70485000D02*
X115175000Y-67347500D01*
X109575000Y-80374000D02*
X109575000Y-77369000D01*
X109575000Y-77369000D02*
X109728000Y-77216000D01*
X105675000Y-78878000D02*
X105675000Y-80374000D01*
X105283000Y-78486000D02*
X105675000Y-78878000D01*
X122277500Y-73025000D02*
X121285000Y-73025000D01*
X105025000Y-80374000D02*
X105025000Y-79253305D01*
X105025000Y-79253305D02*
X104267000Y-78495305D01*
X104267000Y-78495305D02*
X104267000Y-78486000D01*
X122277500Y-74930000D02*
X121285000Y-74930000D01*
X104375000Y-80374000D02*
X103395000Y-80374000D01*
X103395000Y-80374000D02*
X103378000Y-80391000D01*
X122277500Y-76835000D02*
X121285000Y-76835000D01*
X124102500Y-80113500D02*
X124079000Y-80137000D01*
X124102500Y-78740000D02*
X124102500Y-80113500D01*
X103377500Y-85051500D02*
X102781500Y-85051500D01*
X102781500Y-85051500D02*
X102512500Y-85320500D01*
X102512500Y-85320500D02*
X102512500Y-86233000D01*
X102529500Y-86250000D02*
X102512500Y-86233000D01*
X104375000Y-86250000D02*
X102529500Y-86250000D01*
X104653812Y-87287000D02*
X105025000Y-86915812D01*
X103543000Y-87287000D02*
X104653812Y-87287000D01*
X105025000Y-86915812D02*
X105025000Y-86250000D01*
X103505000Y-87249000D02*
X103543000Y-87287000D01*
D29*
X101600000Y-96520000D02*
X101600000Y-94361000D01*
D33*
X107625000Y-86250000D02*
X107332000Y-86250000D01*
X107298000Y-86250000D02*
X107315000Y-86233000D01*
X107332000Y-86250000D02*
X107315000Y-86233000D01*
D29*
X101600000Y-94361000D02*
X107315000Y-88646000D01*
D33*
X106975000Y-86250000D02*
X107298000Y-86250000D01*
D29*
X107315000Y-88646000D02*
X107315000Y-86233000D01*
X106680000Y-96520000D02*
X106680000Y-91440000D01*
X108650000Y-89470000D02*
X108650000Y-86250000D01*
D33*
X108925000Y-86250000D02*
X108650000Y-86250000D01*
X108275000Y-86250000D02*
X108650000Y-86250000D01*
D29*
X106680000Y-91440000D02*
X108650000Y-89470000D01*
D33*
X110225000Y-86250000D02*
X109950000Y-86250000D01*
D29*
X109950000Y-89249000D02*
X109950000Y-86250000D01*
X111760000Y-91059000D02*
X109950000Y-89249000D01*
X111760000Y-96520000D02*
X111760000Y-91059000D01*
D33*
X109575000Y-86250000D02*
X109950000Y-86250000D01*
X109220000Y-56515000D02*
X109950000Y-55785000D01*
X114395000Y-55785000D02*
X115570000Y-54610000D01*
X109950000Y-55785000D02*
X114395000Y-55785000D01*
X109220000Y-61952500D02*
X109220000Y-56515000D01*
X120560000Y-62042500D02*
X120650000Y-61952500D01*
X118110000Y-54610000D02*
X119380000Y-55880000D01*
X125730000Y-58042924D02*
X125730000Y-59055000D01*
X120560000Y-77510000D02*
X120560000Y-73750000D01*
X122912500Y-59690000D02*
X120650000Y-61952500D01*
X119380000Y-55880000D02*
X123567076Y-55880000D01*
X120650000Y-61952500D02*
X119380000Y-61952500D01*
X123567076Y-55880000D02*
X125730000Y-58042924D01*
X125095000Y-59690000D02*
X122912500Y-59690000D01*
X120560000Y-73750000D02*
X120650000Y-73660000D01*
X121790000Y-78740000D02*
X120560000Y-77510000D01*
X125730000Y-59055000D02*
X125095000Y-59690000D01*
X120650000Y-73660000D02*
X120560000Y-73570000D01*
X120560000Y-73570000D02*
X120560000Y-62042500D01*
X122277500Y-78740000D02*
X121790000Y-78740000D01*
X124817500Y-55245000D02*
X122936000Y-55245000D01*
X122936000Y-55245000D02*
X122301000Y-54610000D01*
X122301000Y-54610000D02*
X120650000Y-54610000D01*
X111633000Y-53213000D02*
X113030000Y-54610000D01*
X104394000Y-53213000D02*
X111633000Y-53213000D01*
X103782500Y-53824500D02*
X104394000Y-53213000D01*
X103782500Y-55245000D02*
X103782500Y-53824500D01*
X107950000Y-62230000D02*
X107950000Y-57150000D01*
X123317000Y-58420000D02*
X120904000Y-60833000D01*
X113387500Y-67310000D02*
X113411000Y-67286500D01*
X112268000Y-62865000D02*
X108585000Y-62865000D01*
X103782500Y-58420000D02*
X103782500Y-57761500D01*
X107950000Y-54610000D02*
X107950000Y-57150000D01*
X103782500Y-57761500D02*
X104394000Y-57150000D01*
X116967000Y-60833000D02*
X113855500Y-63944500D01*
X113855500Y-63944500D02*
X113347500Y-63944500D01*
X113411000Y-67286500D02*
X113411000Y-64008000D01*
X104394000Y-57150000D02*
X107950000Y-57150000D01*
X120904000Y-60833000D02*
X116967000Y-60833000D01*
X113411000Y-64008000D02*
X113347500Y-63944500D01*
X108585000Y-62865000D02*
X107950000Y-62230000D01*
X124817500Y-58420000D02*
X123317000Y-58420000D01*
X113347500Y-63944500D02*
X112268000Y-62865000D01*
X102780000Y-62140000D02*
X104140000Y-62140000D01*
X101957500Y-61317500D02*
X102780000Y-62140000D01*
X101957500Y-58420000D02*
X101957500Y-61317500D01*
X101957500Y-55245000D02*
X101957500Y-58420000D01*
X125947000Y-62140000D02*
X126642500Y-61444500D01*
X124460000Y-62140000D02*
X125947000Y-62140000D01*
X126642500Y-61444500D02*
X126642500Y-58420000D01*
X126642500Y-55245000D02*
X126642500Y-58420000D01*
X108204000Y-76990000D02*
X109728000Y-75466000D01*
X109728000Y-75466000D02*
X111478000Y-75466000D01*
X108204000Y-77216000D02*
X108204000Y-76990000D01*
X108275000Y-80374000D02*
X108275000Y-77287000D01*
X108275000Y-77287000D02*
X108204000Y-77216000D01*
X111478000Y-75466000D02*
X111506000Y-75438000D01*
X109220000Y-63777500D02*
X109220000Y-65800000D01*
G04 #@! TA.AperFunction,Conductor*
G36*
X106217539Y-85994185D02*
G01*
X106263294Y-86046989D01*
X106274500Y-86098499D01*
X106274501Y-86250499D01*
X106254817Y-86317539D01*
X106202013Y-86363294D01*
X106150501Y-86374500D01*
X105849499Y-86374500D01*
X105782460Y-86354815D01*
X105736705Y-86302011D01*
X105725499Y-86250502D01*
X105725499Y-86098498D01*
X105745184Y-86031461D01*
X105797988Y-85985706D01*
X105849499Y-85974500D01*
X106150500Y-85974500D01*
X106217539Y-85994185D01*
G37*
G04 #@! TD.AperFunction*
G04 #@! TA.AperFunction,Conductor*
G36*
X123323663Y-56525185D02*
G01*
X123344305Y-56541819D01*
X124178523Y-57376037D01*
X124212008Y-57437360D01*
X124207024Y-57507052D01*
X124165152Y-57562985D01*
X124155941Y-57569255D01*
X124106653Y-57599657D01*
X124106649Y-57599660D01*
X123984660Y-57721649D01*
X123984659Y-57721651D01*
X123976058Y-57735596D01*
X123924110Y-57782321D01*
X123870519Y-57794500D01*
X123399737Y-57794500D01*
X123384120Y-57792776D01*
X123384093Y-57793062D01*
X123376331Y-57792327D01*
X123307203Y-57794500D01*
X123277650Y-57794500D01*
X123276929Y-57794590D01*
X123270757Y-57795369D01*
X123264945Y-57795826D01*
X123218378Y-57797290D01*
X123218367Y-57797292D01*
X123199134Y-57802879D01*
X123180094Y-57806822D01*
X123160217Y-57809334D01*
X123160210Y-57809335D01*
X123160208Y-57809336D01*
X123160206Y-57809336D01*
X123160205Y-57809337D01*
X123116868Y-57826494D01*
X123111342Y-57828386D01*
X123066611Y-57841382D01*
X123066608Y-57841383D01*
X123049363Y-57851581D01*
X123031901Y-57860135D01*
X123013272Y-57867511D01*
X123013267Y-57867513D01*
X122975564Y-57894906D01*
X122970682Y-57898112D01*
X122930580Y-57921828D01*
X122916408Y-57936000D01*
X122901623Y-57948628D01*
X122885412Y-57960407D01*
X122855709Y-57996310D01*
X122851776Y-58000631D01*
X121754539Y-59097870D01*
X120681228Y-60171181D01*
X120619905Y-60204666D01*
X120593547Y-60207500D01*
X117049737Y-60207500D01*
X117034120Y-60205776D01*
X117034093Y-60206062D01*
X117026331Y-60205327D01*
X116957203Y-60207500D01*
X116927650Y-60207500D01*
X116926929Y-60207590D01*
X116920757Y-60208369D01*
X116914945Y-60208826D01*
X116868372Y-60210290D01*
X116868369Y-60210291D01*
X116849126Y-60215881D01*
X116830083Y-60219825D01*
X116810204Y-60222336D01*
X116810203Y-60222337D01*
X116766878Y-60239490D01*
X116761352Y-60241382D01*
X116716608Y-60254383D01*
X116716604Y-60254385D01*
X116699365Y-60264580D01*
X116681898Y-60273137D01*
X116663269Y-60280512D01*
X116663267Y-60280513D01*
X116625564Y-60307906D01*
X116620682Y-60311112D01*
X116580580Y-60334828D01*
X116566408Y-60349000D01*
X116551623Y-60361628D01*
X116535412Y-60373407D01*
X116505709Y-60409310D01*
X116501777Y-60413631D01*
X113689180Y-63226227D01*
X113627857Y-63259712D01*
X113558165Y-63254728D01*
X113513818Y-63226227D01*
X112768803Y-62481212D01*
X112758980Y-62468950D01*
X112758759Y-62469134D01*
X112753786Y-62463123D01*
X112724527Y-62435647D01*
X112703364Y-62415773D01*
X112692919Y-62405328D01*
X112682475Y-62394883D01*
X112676986Y-62390625D01*
X112672561Y-62386847D01*
X112638582Y-62354938D01*
X112638580Y-62354936D01*
X112638577Y-62354935D01*
X112621029Y-62345288D01*
X112604763Y-62334604D01*
X112588936Y-62322327D01*
X112588935Y-62322326D01*
X112588933Y-62322325D01*
X112546168Y-62303818D01*
X112540922Y-62301248D01*
X112500093Y-62278803D01*
X112500092Y-62278802D01*
X112480693Y-62273822D01*
X112462281Y-62267518D01*
X112443898Y-62259562D01*
X112443892Y-62259560D01*
X112397874Y-62252272D01*
X112392152Y-62251087D01*
X112347021Y-62239500D01*
X112347019Y-62239500D01*
X112326984Y-62239500D01*
X112307586Y-62237973D01*
X112300162Y-62236797D01*
X112287805Y-62234840D01*
X112287804Y-62234840D01*
X112241416Y-62239225D01*
X112235578Y-62239500D01*
X110319500Y-62239500D01*
X110252461Y-62219815D01*
X110206706Y-62167011D01*
X110195500Y-62115500D01*
X110195499Y-61653330D01*
X110195498Y-61653312D01*
X110185174Y-61552247D01*
X110159342Y-61474292D01*
X110130908Y-61388484D01*
X110040340Y-61241650D01*
X109918350Y-61119660D01*
X109904400Y-61111055D01*
X109857677Y-61059105D01*
X109845500Y-61005518D01*
X109845500Y-58533665D01*
X109865185Y-58466626D01*
X109917989Y-58420871D01*
X109987147Y-58410927D01*
X110021914Y-58421287D01*
X110026513Y-58423432D01*
X110026516Y-58423433D01*
X110240000Y-58480634D01*
X110240000Y-57585501D01*
X110347685Y-57634680D01*
X110454237Y-57650000D01*
X110525763Y-57650000D01*
X110632315Y-57634680D01*
X110740000Y-57585501D01*
X110740000Y-58480633D01*
X110953483Y-58423433D01*
X110953492Y-58423429D01*
X111167578Y-58323600D01*
X111361082Y-58188105D01*
X111528105Y-58021082D01*
X111658119Y-57835405D01*
X111712696Y-57791781D01*
X111782195Y-57784588D01*
X111844549Y-57816110D01*
X111861269Y-57835405D01*
X111991505Y-58021401D01*
X112158599Y-58188495D01*
X112255384Y-58256265D01*
X112352165Y-58324032D01*
X112352167Y-58324033D01*
X112352170Y-58324035D01*
X112566337Y-58423903D01*
X112566343Y-58423904D01*
X112566344Y-58423905D01*
X112621285Y-58438626D01*
X112794592Y-58485063D01*
X112971034Y-58500500D01*
X113029999Y-58505659D01*
X113030000Y-58505659D01*
X113030001Y-58505659D01*
X113088966Y-58500500D01*
X113265408Y-58485063D01*
X113493663Y-58423903D01*
X113707830Y-58324035D01*
X113901401Y-58188495D01*
X114068495Y-58021401D01*
X114198425Y-57835842D01*
X114253002Y-57792217D01*
X114322500Y-57785023D01*
X114384855Y-57816546D01*
X114401575Y-57835842D01*
X114531281Y-58021082D01*
X114531505Y-58021401D01*
X114698599Y-58188495D01*
X114795384Y-58256265D01*
X114892165Y-58324032D01*
X114892167Y-58324033D01*
X114892170Y-58324035D01*
X115106337Y-58423903D01*
X115106343Y-58423904D01*
X115106344Y-58423905D01*
X115161285Y-58438626D01*
X115334592Y-58485063D01*
X115511034Y-58500500D01*
X115569999Y-58505659D01*
X115570000Y-58505659D01*
X115570001Y-58505659D01*
X115628966Y-58500500D01*
X115805408Y-58485063D01*
X116033663Y-58423903D01*
X116247830Y-58324035D01*
X116441401Y-58188495D01*
X116608495Y-58021401D01*
X116738425Y-57835842D01*
X116793002Y-57792217D01*
X116862500Y-57785023D01*
X116924855Y-57816546D01*
X116941575Y-57835842D01*
X117071281Y-58021082D01*
X117071505Y-58021401D01*
X117238599Y-58188495D01*
X117335384Y-58256265D01*
X117432165Y-58324032D01*
X117432167Y-58324033D01*
X117432170Y-58324035D01*
X117646337Y-58423903D01*
X117646343Y-58423904D01*
X117646344Y-58423905D01*
X117701285Y-58438626D01*
X117874592Y-58485063D01*
X118051034Y-58500500D01*
X118109999Y-58505659D01*
X118110000Y-58505659D01*
X118110001Y-58505659D01*
X118168966Y-58500500D01*
X118345408Y-58485063D01*
X118573663Y-58423903D01*
X118787830Y-58324035D01*
X118981401Y-58188495D01*
X119103329Y-58066566D01*
X119164648Y-58033084D01*
X119234340Y-58038068D01*
X119290274Y-58079939D01*
X119307189Y-58110917D01*
X119356202Y-58242328D01*
X119356206Y-58242335D01*
X119442452Y-58357544D01*
X119442455Y-58357547D01*
X119557664Y-58443793D01*
X119557671Y-58443797D01*
X119692517Y-58494091D01*
X119692516Y-58494091D01*
X119699444Y-58494835D01*
X119752127Y-58500500D01*
X121547872Y-58500499D01*
X121607483Y-58494091D01*
X121742331Y-58443796D01*
X121857546Y-58357546D01*
X121943796Y-58242331D01*
X121994091Y-58107483D01*
X122000500Y-58047873D01*
X122000499Y-56629499D01*
X122020184Y-56562461D01*
X122072987Y-56516706D01*
X122124499Y-56505500D01*
X123256624Y-56505500D01*
X123323663Y-56525185D01*
G37*
G04 #@! TD.AperFunction*
G04 #@! TA.AperFunction,Conductor*
G36*
X110683039Y-56430185D02*
G01*
X110728794Y-56482989D01*
X110740000Y-56534500D01*
X110740000Y-56714498D01*
X110632315Y-56665320D01*
X110525763Y-56650000D01*
X110454237Y-56650000D01*
X110347685Y-56665320D01*
X110240000Y-56714498D01*
X110240000Y-56534500D01*
X110259685Y-56467461D01*
X110312489Y-56421706D01*
X110364000Y-56410500D01*
X110616000Y-56410500D01*
X110683039Y-56430185D01*
G37*
G04 #@! TD.AperFunction*
G04 #@! TA.AperFunction,Conductor*
G36*
X110347685Y-55094680D02*
G01*
X110454237Y-55110000D01*
X110525763Y-55110000D01*
X110632315Y-55094680D01*
X110736608Y-55047050D01*
X110720315Y-55102539D01*
X110667511Y-55148294D01*
X110616000Y-55159500D01*
X110364000Y-55159500D01*
X110296961Y-55139815D01*
X110251206Y-55087011D01*
X110242415Y-55046604D01*
X110347685Y-55094680D01*
G37*
G04 #@! TD.AperFunction*
G04 #@! TA.AperFunction,Conductor*
G36*
X128908460Y-50546890D02*
G01*
X128911301Y-50547209D01*
X128931348Y-50549468D01*
X129043499Y-50564233D01*
X129068249Y-50570126D01*
X129112451Y-50585593D01*
X129115637Y-50586810D01*
X129190533Y-50617833D01*
X129209028Y-50627387D01*
X129241778Y-50647965D01*
X129254423Y-50655911D01*
X129259168Y-50659210D01*
X129323502Y-50708575D01*
X129329590Y-50713914D01*
X129372083Y-50756407D01*
X129377429Y-50762503D01*
X129426778Y-50826816D01*
X129430087Y-50831575D01*
X129448162Y-50860339D01*
X129458607Y-50876962D01*
X129468172Y-50895478D01*
X129499176Y-50970329D01*
X129500416Y-50973578D01*
X129515869Y-51017740D01*
X129521767Y-51042510D01*
X129536531Y-51154654D01*
X129536538Y-51154715D01*
X129539110Y-51177538D01*
X129539500Y-51184481D01*
X129539500Y-101088517D01*
X129539110Y-101095465D01*
X129536532Y-101118340D01*
X129525810Y-101199773D01*
X129519913Y-101224540D01*
X129507767Y-101259249D01*
X129506527Y-101262499D01*
X129483564Y-101317936D01*
X129473998Y-101336454D01*
X129451731Y-101371892D01*
X129448419Y-101376653D01*
X129410901Y-101425547D01*
X129405548Y-101431650D01*
X129371650Y-101465548D01*
X129365547Y-101470901D01*
X129316653Y-101508419D01*
X129311892Y-101511731D01*
X129276454Y-101533998D01*
X129257936Y-101543564D01*
X129202499Y-101566527D01*
X129199249Y-101567767D01*
X129164540Y-101579913D01*
X129139773Y-101585810D01*
X129058340Y-101596532D01*
X129050728Y-101597389D01*
X129035457Y-101599110D01*
X129028517Y-101599500D01*
X99571482Y-101599500D01*
X99564543Y-101599110D01*
X99545079Y-101596917D01*
X99541659Y-101596532D01*
X99460225Y-101585810D01*
X99435458Y-101579913D01*
X99400749Y-101567767D01*
X99397499Y-101566527D01*
X99342062Y-101543564D01*
X99323544Y-101533998D01*
X99288106Y-101511731D01*
X99283352Y-101508424D01*
X99234446Y-101470897D01*
X99228348Y-101465548D01*
X99194450Y-101431650D01*
X99189104Y-101425555D01*
X99151569Y-101376638D01*
X99148277Y-101371906D01*
X99125997Y-101336449D01*
X99116437Y-101317941D01*
X99093458Y-101262466D01*
X99092231Y-101259249D01*
X99080082Y-101224529D01*
X99074188Y-101199770D01*
X99063468Y-101118340D01*
X99061570Y-101101498D01*
X99060890Y-101095459D01*
X99060500Y-101088513D01*
X99060500Y-98067870D01*
X99599500Y-98067870D01*
X99599501Y-98067876D01*
X99605908Y-98127483D01*
X99656202Y-98262328D01*
X99656206Y-98262335D01*
X99742452Y-98377544D01*
X99742455Y-98377547D01*
X99857664Y-98463793D01*
X99857671Y-98463797D01*
X99992517Y-98514091D01*
X99992516Y-98514091D01*
X99999444Y-98514835D01*
X100052127Y-98520500D01*
X103147872Y-98520499D01*
X103207483Y-98514091D01*
X103342331Y-98463796D01*
X103457546Y-98377546D01*
X103543796Y-98262331D01*
X103594091Y-98127483D01*
X103600500Y-98067873D01*
X103600499Y-94972128D01*
X103594091Y-94912517D01*
X103564506Y-94833196D01*
X103543797Y-94777671D01*
X103543793Y-94777664D01*
X103457547Y-94662455D01*
X103457544Y-94662452D01*
X103342335Y-94576206D01*
X103342328Y-94576202D01*
X103207482Y-94525908D01*
X103207483Y-94525908D01*
X103144572Y-94519145D01*
X103144686Y-94518077D01*
X103082984Y-94496284D01*
X103040141Y-94441091D01*
X103033940Y-94371497D01*
X103066347Y-94309598D01*
X103067804Y-94308115D01*
X105467821Y-91908099D01*
X105529142Y-91874616D01*
X105598834Y-91879600D01*
X105654767Y-91921472D01*
X105679184Y-91986936D01*
X105679500Y-91995782D01*
X105679500Y-94713434D01*
X105659815Y-94780473D01*
X105614929Y-94822265D01*
X105595690Y-94832770D01*
X105595682Y-94832775D01*
X105366612Y-95004254D01*
X105366594Y-95004270D01*
X105164270Y-95206594D01*
X105164254Y-95206612D01*
X104992775Y-95435682D01*
X104992770Y-95435690D01*
X104855635Y-95686833D01*
X104755628Y-95954962D01*
X104694804Y-96234566D01*
X104674390Y-96519998D01*
X104674390Y-96520001D01*
X104694804Y-96805433D01*
X104755628Y-97085037D01*
X104755630Y-97085043D01*
X104755631Y-97085046D01*
X104828345Y-97280000D01*
X104855635Y-97353166D01*
X104992770Y-97604309D01*
X104992775Y-97604317D01*
X105164254Y-97833387D01*
X105164270Y-97833405D01*
X105366594Y-98035729D01*
X105366612Y-98035745D01*
X105595682Y-98207224D01*
X105595690Y-98207229D01*
X105846833Y-98344364D01*
X105846832Y-98344364D01*
X105846836Y-98344365D01*
X105846839Y-98344367D01*
X106114954Y-98444369D01*
X106114960Y-98444370D01*
X106114962Y-98444371D01*
X106394566Y-98505195D01*
X106394568Y-98505195D01*
X106394572Y-98505196D01*
X106648220Y-98523337D01*
X106679999Y-98525610D01*
X106680000Y-98525610D01*
X106680001Y-98525610D01*
X106708595Y-98523564D01*
X106965428Y-98505196D01*
X107155742Y-98463796D01*
X107245037Y-98444371D01*
X107245037Y-98444370D01*
X107245046Y-98444369D01*
X107513161Y-98344367D01*
X107764315Y-98207226D01*
X107993395Y-98035739D01*
X108195739Y-97833395D01*
X108367226Y-97604315D01*
X108504367Y-97353161D01*
X108604369Y-97085046D01*
X108665196Y-96805428D01*
X108685610Y-96520000D01*
X108665196Y-96234572D01*
X108661358Y-96216930D01*
X108604371Y-95954962D01*
X108604370Y-95954960D01*
X108604369Y-95954954D01*
X108504367Y-95686839D01*
X108367372Y-95435953D01*
X108367229Y-95435690D01*
X108367224Y-95435682D01*
X108195745Y-95206612D01*
X108195729Y-95206594D01*
X107993405Y-95004270D01*
X107993387Y-95004254D01*
X107764317Y-94832775D01*
X107764309Y-94832770D01*
X107745071Y-94822265D01*
X107695667Y-94772859D01*
X107680500Y-94713434D01*
X107680500Y-91905782D01*
X107700185Y-91838743D01*
X107716814Y-91818106D01*
X109322820Y-90212099D01*
X109384141Y-90178616D01*
X109453833Y-90183600D01*
X109498180Y-90212101D01*
X110723181Y-91437102D01*
X110756666Y-91498425D01*
X110759500Y-91524783D01*
X110759500Y-94395500D01*
X110739815Y-94462539D01*
X110687011Y-94508294D01*
X110635500Y-94519500D01*
X110212129Y-94519500D01*
X110212123Y-94519501D01*
X110152516Y-94525908D01*
X110017671Y-94576202D01*
X110017664Y-94576206D01*
X109902455Y-94662452D01*
X109902452Y-94662455D01*
X109816206Y-94777664D01*
X109816202Y-94777671D01*
X109765908Y-94912517D01*
X109759501Y-94972116D01*
X109759501Y-94972123D01*
X109759500Y-94972135D01*
X109759500Y-98067870D01*
X109759501Y-98067876D01*
X109765908Y-98127483D01*
X109816202Y-98262328D01*
X109816206Y-98262335D01*
X109902452Y-98377544D01*
X109902455Y-98377547D01*
X110017664Y-98463793D01*
X110017671Y-98463797D01*
X110152517Y-98514091D01*
X110152516Y-98514091D01*
X110159444Y-98514835D01*
X110212127Y-98520500D01*
X113307872Y-98520499D01*
X113367483Y-98514091D01*
X113502331Y-98463796D01*
X113617546Y-98377546D01*
X113703796Y-98262331D01*
X113754091Y-98127483D01*
X113760500Y-98067873D01*
X113760500Y-96520001D01*
X114834891Y-96520001D01*
X114855300Y-96805362D01*
X114916109Y-97084895D01*
X115016091Y-97352958D01*
X115153191Y-97604038D01*
X115153196Y-97604046D01*
X115259882Y-97746561D01*
X115259883Y-97746562D01*
X116155195Y-96851250D01*
X116177340Y-96902587D01*
X116283433Y-97045094D01*
X116419530Y-97159294D01*
X116509216Y-97204335D01*
X115613436Y-98100115D01*
X115755960Y-98206807D01*
X115755961Y-98206808D01*
X116007042Y-98343908D01*
X116007041Y-98343908D01*
X116275104Y-98443890D01*
X116554637Y-98504699D01*
X116839999Y-98525109D01*
X116840001Y-98525109D01*
X117125362Y-98504699D01*
X117404895Y-98443890D01*
X117672958Y-98343908D01*
X117924047Y-98206803D01*
X118066561Y-98100116D01*
X118066562Y-98100115D01*
X117173748Y-97207300D01*
X117183409Y-97203784D01*
X117331844Y-97106157D01*
X117453764Y-96976930D01*
X117525768Y-96852215D01*
X118420115Y-97746562D01*
X118420116Y-97746561D01*
X118526803Y-97604047D01*
X118663908Y-97352958D01*
X118763890Y-97084895D01*
X118824699Y-96805362D01*
X118845109Y-96520001D01*
X118845109Y-96519998D01*
X118824699Y-96234637D01*
X118763890Y-95955104D01*
X118663908Y-95687041D01*
X118526808Y-95435961D01*
X118526807Y-95435960D01*
X118420115Y-95293436D01*
X117524803Y-96188747D01*
X117502660Y-96137413D01*
X117396567Y-95994906D01*
X117260470Y-95880706D01*
X117170782Y-95835663D01*
X118066562Y-94939883D01*
X118066561Y-94939882D01*
X117924046Y-94833196D01*
X117924038Y-94833191D01*
X117672957Y-94696091D01*
X117672958Y-94696091D01*
X117404895Y-94596109D01*
X117125362Y-94535300D01*
X116840001Y-94514891D01*
X116839999Y-94514891D01*
X116554637Y-94535300D01*
X116275104Y-94596109D01*
X116007041Y-94696091D01*
X115755961Y-94833191D01*
X115755953Y-94833196D01*
X115613437Y-94939882D01*
X115613436Y-94939883D01*
X116506252Y-95832699D01*
X116496591Y-95836216D01*
X116348156Y-95933843D01*
X116226236Y-96063070D01*
X116154231Y-96187784D01*
X115259883Y-95293436D01*
X115259882Y-95293437D01*
X115153196Y-95435953D01*
X115153191Y-95435961D01*
X115016091Y-95687041D01*
X114916109Y-95955104D01*
X114855300Y-96234637D01*
X114834891Y-96519998D01*
X114834891Y-96520001D01*
X113760500Y-96520001D01*
X113760499Y-94972128D01*
X113754091Y-94912517D01*
X113724506Y-94833196D01*
X113703797Y-94777671D01*
X113703793Y-94777664D01*
X113617547Y-94662455D01*
X113617544Y-94662452D01*
X113502335Y-94576206D01*
X113502328Y-94576202D01*
X113367482Y-94525908D01*
X113367483Y-94525908D01*
X113307883Y-94519501D01*
X113307881Y-94519500D01*
X113307873Y-94519500D01*
X113307865Y-94519500D01*
X112884500Y-94519500D01*
X112817461Y-94499815D01*
X112771706Y-94447011D01*
X112760500Y-94395500D01*
X112760500Y-91071715D01*
X112762757Y-90982642D01*
X112762756Y-90982641D01*
X112762757Y-90982637D01*
X112751930Y-90922234D01*
X112751280Y-90917599D01*
X112745074Y-90856562D01*
X112734790Y-90823786D01*
X112732920Y-90816168D01*
X112726859Y-90782348D01*
X112726858Y-90782346D01*
X112726858Y-90782344D01*
X112704098Y-90725366D01*
X112702517Y-90720925D01*
X112684160Y-90662415D01*
X112684159Y-90662414D01*
X112684159Y-90662412D01*
X112667482Y-90632366D01*
X112664122Y-90625288D01*
X112661840Y-90619575D01*
X112651378Y-90593383D01*
X112651375Y-90593378D01*
X112651374Y-90593376D01*
X112638853Y-90574378D01*
X112617605Y-90542139D01*
X112615183Y-90538142D01*
X112585409Y-90484498D01*
X112563034Y-90458434D01*
X112558306Y-90452163D01*
X112539404Y-90423484D01*
X112539399Y-90423478D01*
X112517715Y-90401795D01*
X112496019Y-90380099D01*
X112492828Y-90376655D01*
X112452865Y-90330104D01*
X112425694Y-90309072D01*
X112419807Y-90303887D01*
X110986819Y-88870899D01*
X110953334Y-88809576D01*
X110950500Y-88783218D01*
X110950500Y-87579651D01*
X110970185Y-87512612D01*
X111022989Y-87466857D01*
X111058314Y-87456712D01*
X111131762Y-87447044D01*
X111152545Y-87438434D01*
X111222014Y-87430965D01*
X111247453Y-87438434D01*
X111268238Y-87447044D01*
X111385639Y-87462500D01*
X111664360Y-87462499D01*
X111664363Y-87462499D01*
X111781753Y-87447046D01*
X111781757Y-87447044D01*
X111781762Y-87447044D01*
X111927841Y-87386536D01*
X112053282Y-87290282D01*
X112059626Y-87282013D01*
X112116054Y-87240811D01*
X112158002Y-87233500D01*
X113563259Y-87233500D01*
X113638071Y-87233500D01*
X113641211Y-87233580D01*
X113667842Y-87234930D01*
X113715936Y-87237369D01*
X113731857Y-87234930D01*
X113750633Y-87233500D01*
X114847539Y-87233500D01*
X114912633Y-87251960D01*
X115039666Y-87330314D01*
X115206203Y-87385499D01*
X115308991Y-87396000D01*
X115334498Y-87395999D01*
X115401536Y-87415681D01*
X115447293Y-87468484D01*
X115458500Y-87519999D01*
X115458500Y-91046283D01*
X115456243Y-91135362D01*
X115456243Y-91135370D01*
X115467064Y-91195739D01*
X115467718Y-91200404D01*
X115473925Y-91261430D01*
X115473927Y-91261444D01*
X115484208Y-91294213D01*
X115486079Y-91301837D01*
X115492142Y-91335652D01*
X115492142Y-91335655D01*
X115514894Y-91392612D01*
X115516474Y-91397051D01*
X115534841Y-91455588D01*
X115534844Y-91455595D01*
X115551509Y-91485619D01*
X115554879Y-91492714D01*
X115567622Y-91524614D01*
X115567627Y-91524624D01*
X115601377Y-91575833D01*
X115603818Y-91579863D01*
X115633588Y-91633498D01*
X115633589Y-91633499D01*
X115633591Y-91633502D01*
X115655968Y-91659567D01*
X115660693Y-91665835D01*
X115673263Y-91684906D01*
X115679598Y-91694519D01*
X115722978Y-91737899D01*
X115726169Y-91741343D01*
X115766131Y-91787892D01*
X115766134Y-91787895D01*
X115793294Y-91808918D01*
X115799190Y-91814111D01*
X119883181Y-95898102D01*
X119916666Y-95959425D01*
X119919500Y-95985783D01*
X119919500Y-98067870D01*
X119919501Y-98067876D01*
X119925908Y-98127483D01*
X119976202Y-98262328D01*
X119976206Y-98262335D01*
X120062452Y-98377544D01*
X120062455Y-98377547D01*
X120177664Y-98463793D01*
X120177671Y-98463797D01*
X120312517Y-98514091D01*
X120312516Y-98514091D01*
X120319444Y-98514835D01*
X120372127Y-98520500D01*
X123467872Y-98520499D01*
X123527483Y-98514091D01*
X123662331Y-98463796D01*
X123777546Y-98377546D01*
X123863796Y-98262331D01*
X123914091Y-98127483D01*
X123920500Y-98067873D01*
X123920500Y-96520001D01*
X124994891Y-96520001D01*
X125015300Y-96805362D01*
X125076109Y-97084895D01*
X125176091Y-97352958D01*
X125313191Y-97604038D01*
X125313196Y-97604046D01*
X125419882Y-97746561D01*
X125419883Y-97746562D01*
X126315195Y-96851250D01*
X126337340Y-96902587D01*
X126443433Y-97045094D01*
X126579530Y-97159294D01*
X126669216Y-97204335D01*
X125773436Y-98100115D01*
X125915960Y-98206807D01*
X125915961Y-98206808D01*
X126167042Y-98343908D01*
X126167041Y-98343908D01*
X126435104Y-98443890D01*
X126714637Y-98504699D01*
X126999999Y-98525109D01*
X127000001Y-98525109D01*
X127285362Y-98504699D01*
X127564895Y-98443890D01*
X127832958Y-98343908D01*
X128084047Y-98206803D01*
X128226561Y-98100116D01*
X128226562Y-98100115D01*
X127333748Y-97207300D01*
X127343409Y-97203784D01*
X127491844Y-97106157D01*
X127613764Y-96976930D01*
X127685768Y-96852215D01*
X128580115Y-97746562D01*
X128580116Y-97746561D01*
X128686803Y-97604047D01*
X128823908Y-97352958D01*
X128923890Y-97084895D01*
X128984699Y-96805362D01*
X129005109Y-96520001D01*
X129005109Y-96519998D01*
X128984699Y-96234637D01*
X128923890Y-95955104D01*
X128823908Y-95687041D01*
X128686808Y-95435961D01*
X128686807Y-95435960D01*
X128580115Y-95293436D01*
X127684803Y-96188747D01*
X127662660Y-96137413D01*
X127556567Y-95994906D01*
X127420470Y-95880706D01*
X127330782Y-95835663D01*
X128226562Y-94939883D01*
X128226561Y-94939882D01*
X128084046Y-94833196D01*
X128084038Y-94833191D01*
X127832957Y-94696091D01*
X127832958Y-94696091D01*
X127564895Y-94596109D01*
X127285362Y-94535300D01*
X127000001Y-94514891D01*
X126999999Y-94514891D01*
X126714637Y-94535300D01*
X126435104Y-94596109D01*
X126167041Y-94696091D01*
X125915961Y-94833191D01*
X125915953Y-94833196D01*
X125773437Y-94939882D01*
X125773436Y-94939883D01*
X126666252Y-95832699D01*
X126656591Y-95836216D01*
X126508156Y-95933843D01*
X126386236Y-96063070D01*
X126314231Y-96187784D01*
X125419883Y-95293436D01*
X125419882Y-95293437D01*
X125313196Y-95435953D01*
X125313191Y-95435961D01*
X125176091Y-95687041D01*
X125076109Y-95955104D01*
X125015300Y-96234637D01*
X124994891Y-96519998D01*
X124994891Y-96520001D01*
X123920500Y-96520001D01*
X123920499Y-94972128D01*
X123914091Y-94912517D01*
X123884506Y-94833196D01*
X123863797Y-94777671D01*
X123863793Y-94777664D01*
X123777547Y-94662455D01*
X123777544Y-94662452D01*
X123662335Y-94576206D01*
X123662328Y-94576202D01*
X123527482Y-94525908D01*
X123527483Y-94525908D01*
X123467883Y-94519501D01*
X123467881Y-94519500D01*
X123467873Y-94519500D01*
X123467865Y-94519500D01*
X121385783Y-94519500D01*
X121318744Y-94499815D01*
X121298102Y-94483181D01*
X117495819Y-90680898D01*
X117462334Y-90619575D01*
X117459500Y-90593217D01*
X117459500Y-87519999D01*
X117479185Y-87452960D01*
X117531989Y-87407205D01*
X117583500Y-87395999D01*
X117609002Y-87395999D01*
X117609008Y-87395999D01*
X117711797Y-87385499D01*
X117878334Y-87330314D01*
X118027656Y-87238212D01*
X118147868Y-87118000D01*
X122560001Y-87118000D01*
X122560001Y-87154654D01*
X122570319Y-87255652D01*
X122624546Y-87419300D01*
X122624551Y-87419311D01*
X122715052Y-87566034D01*
X122715055Y-87566038D01*
X122836961Y-87687944D01*
X122836965Y-87687947D01*
X122983688Y-87778448D01*
X122983699Y-87778453D01*
X123147347Y-87832680D01*
X123248351Y-87842999D01*
X123335000Y-87842998D01*
X123335000Y-87118000D01*
X122560001Y-87118000D01*
X118147868Y-87118000D01*
X118151712Y-87114156D01*
X118243814Y-86964834D01*
X118298999Y-86798297D01*
X118309500Y-86695509D01*
X118309499Y-85770492D01*
X118298999Y-85667703D01*
X118243814Y-85501166D01*
X118151712Y-85351844D01*
X118027656Y-85227788D01*
X117892794Y-85144605D01*
X117878336Y-85135687D01*
X117878331Y-85135685D01*
X117849737Y-85126210D01*
X117740463Y-85090000D01*
X121268540Y-85090000D01*
X121288326Y-85278256D01*
X121288327Y-85278259D01*
X121346818Y-85458277D01*
X121346821Y-85458284D01*
X121441467Y-85622216D01*
X121495016Y-85681688D01*
X121568129Y-85762888D01*
X121721265Y-85874148D01*
X121721270Y-85874151D01*
X121894192Y-85951142D01*
X121894197Y-85951144D01*
X122079354Y-85990500D01*
X122079355Y-85990500D01*
X122268644Y-85990500D01*
X122268646Y-85990500D01*
X122453803Y-85951144D01*
X122626730Y-85874151D01*
X122641672Y-85863294D01*
X122707477Y-85839813D01*
X122775531Y-85855637D01*
X122802240Y-85875930D01*
X122817982Y-85891672D01*
X122851467Y-85952995D01*
X122846483Y-86022687D01*
X122817983Y-86067034D01*
X122715052Y-86169965D01*
X122624551Y-86316688D01*
X122624546Y-86316699D01*
X122570319Y-86480347D01*
X122560000Y-86581345D01*
X122560000Y-86618000D01*
X123711000Y-86618000D01*
X123778039Y-86637685D01*
X123823794Y-86690489D01*
X123835000Y-86742000D01*
X123835000Y-87842999D01*
X123921640Y-87842999D01*
X123921654Y-87842998D01*
X124022652Y-87832680D01*
X124186300Y-87778453D01*
X124186311Y-87778448D01*
X124333034Y-87687947D01*
X124333037Y-87687945D01*
X124371964Y-87649018D01*
X124433287Y-87615532D01*
X124502978Y-87620516D01*
X124547327Y-87649017D01*
X124586650Y-87688340D01*
X124733484Y-87778908D01*
X124897247Y-87833174D01*
X124998323Y-87843500D01*
X125671676Y-87843499D01*
X125671684Y-87843498D01*
X125671687Y-87843498D01*
X125727030Y-87837844D01*
X125772753Y-87833174D01*
X125936516Y-87778908D01*
X126083350Y-87688340D01*
X126205340Y-87566350D01*
X126295908Y-87419516D01*
X126350174Y-87255753D01*
X126360500Y-87154677D01*
X126360499Y-86581324D01*
X126354199Y-86519654D01*
X126350174Y-86480247D01*
X126295908Y-86316484D01*
X126205340Y-86169650D01*
X126102371Y-86066681D01*
X126068886Y-86005358D01*
X126073870Y-85935666D01*
X126102371Y-85891319D01*
X126148443Y-85845247D01*
X126205340Y-85788350D01*
X126295908Y-85641516D01*
X126350174Y-85477753D01*
X126360500Y-85376677D01*
X126360499Y-84803324D01*
X126350174Y-84702247D01*
X126295908Y-84538484D01*
X126205340Y-84391650D01*
X126083350Y-84269660D01*
X125978286Y-84204856D01*
X125936518Y-84179093D01*
X125936513Y-84179091D01*
X125935069Y-84178612D01*
X125772753Y-84124826D01*
X125772751Y-84124825D01*
X125671678Y-84114500D01*
X125073330Y-84114500D01*
X125073312Y-84114501D01*
X124972247Y-84124825D01*
X124808484Y-84179092D01*
X124808481Y-84179093D01*
X124661648Y-84269661D01*
X124547681Y-84383629D01*
X124486358Y-84417114D01*
X124416666Y-84412130D01*
X124372319Y-84383629D01*
X124258351Y-84269661D01*
X124258350Y-84269660D01*
X124153286Y-84204856D01*
X124111518Y-84179093D01*
X124111513Y-84179091D01*
X124110069Y-84178612D01*
X123947753Y-84124826D01*
X123947751Y-84124825D01*
X123846678Y-84114500D01*
X123248330Y-84114500D01*
X123248312Y-84114501D01*
X123147247Y-84124825D01*
X122983484Y-84179092D01*
X122983481Y-84179093D01*
X122836648Y-84269661D01*
X122802239Y-84304070D01*
X122740916Y-84337555D01*
X122671224Y-84332569D01*
X122641673Y-84316706D01*
X122626729Y-84305848D01*
X122453807Y-84228857D01*
X122453802Y-84228855D01*
X122308001Y-84197865D01*
X122268646Y-84189500D01*
X122079354Y-84189500D01*
X122046897Y-84196398D01*
X121894197Y-84228855D01*
X121894192Y-84228857D01*
X121721270Y-84305848D01*
X121721265Y-84305851D01*
X121568129Y-84417111D01*
X121441466Y-84557785D01*
X121346821Y-84721715D01*
X121346818Y-84721722D01*
X121288327Y-84901740D01*
X121288326Y-84901744D01*
X121268540Y-85090000D01*
X117740463Y-85090000D01*
X117711797Y-85080501D01*
X117711795Y-85080500D01*
X117609010Y-85070000D01*
X115308998Y-85070000D01*
X115308981Y-85070001D01*
X115206203Y-85080500D01*
X115206200Y-85080501D01*
X115039668Y-85135685D01*
X115039663Y-85135687D01*
X114975054Y-85175539D01*
X114912633Y-85214039D01*
X114847539Y-85232500D01*
X114789500Y-85232500D01*
X114722461Y-85212815D01*
X114676706Y-85160011D01*
X114665500Y-85108500D01*
X114665500Y-84187023D01*
X114685185Y-84119984D01*
X114737989Y-84074229D01*
X114807147Y-84064285D01*
X114870703Y-84093310D01*
X114877181Y-84099342D01*
X114890654Y-84112815D01*
X115039875Y-84204856D01*
X115039880Y-84204858D01*
X115206302Y-84260005D01*
X115206309Y-84260006D01*
X115309019Y-84270499D01*
X116208999Y-84270499D01*
X116209000Y-84270498D01*
X116209000Y-83358000D01*
X116709000Y-83358000D01*
X116709000Y-84270499D01*
X117608972Y-84270499D01*
X117608986Y-84270498D01*
X117711697Y-84260005D01*
X117878119Y-84204858D01*
X117878124Y-84204856D01*
X118027345Y-84112815D01*
X118151315Y-83988845D01*
X118243356Y-83839624D01*
X118243358Y-83839619D01*
X118298505Y-83673197D01*
X118298506Y-83673190D01*
X118308999Y-83570486D01*
X118309000Y-83570473D01*
X118309000Y-83358000D01*
X116709000Y-83358000D01*
X116209000Y-83358000D01*
X116209000Y-81945500D01*
X116709000Y-81945500D01*
X116709000Y-82858000D01*
X118308999Y-82858000D01*
X118308999Y-82645528D01*
X118308998Y-82645513D01*
X118298505Y-82542802D01*
X118243358Y-82376380D01*
X118243356Y-82376375D01*
X118151315Y-82227154D01*
X118027345Y-82103184D01*
X117878124Y-82011143D01*
X117878119Y-82011141D01*
X117711697Y-81955994D01*
X117711690Y-81955993D01*
X117608986Y-81945500D01*
X116709000Y-81945500D01*
X116209000Y-81945500D01*
X115309028Y-81945500D01*
X115309012Y-81945501D01*
X115206302Y-81955994D01*
X115039880Y-82011141D01*
X115039875Y-82011143D01*
X114890654Y-82103184D01*
X114877181Y-82116658D01*
X114815858Y-82150143D01*
X114746166Y-82145159D01*
X114690233Y-82103287D01*
X114665816Y-82037823D01*
X114665500Y-82028977D01*
X114665500Y-80417928D01*
X114665580Y-80414788D01*
X114666894Y-80388851D01*
X114669369Y-80340064D01*
X114658039Y-80266113D01*
X114657643Y-80262999D01*
X114650074Y-80188563D01*
X114650072Y-80188556D01*
X114645251Y-80173189D01*
X114640994Y-80154849D01*
X114638556Y-80138929D01*
X114612553Y-80068720D01*
X114611565Y-80065825D01*
X114589159Y-79994412D01*
X114581339Y-79980324D01*
X114573482Y-79963225D01*
X114567886Y-79948113D01*
X114528296Y-79884597D01*
X114526725Y-79881929D01*
X114490409Y-79816498D01*
X114479921Y-79804281D01*
X114468773Y-79789100D01*
X114468489Y-79788645D01*
X114460252Y-79775429D01*
X114408701Y-79721197D01*
X114406600Y-79718872D01*
X114357873Y-79662112D01*
X114357868Y-79662108D01*
X114357866Y-79662105D01*
X114345126Y-79652243D01*
X114331155Y-79639620D01*
X114320063Y-79627950D01*
X114258647Y-79585202D01*
X114256116Y-79583343D01*
X114196961Y-79537553D01*
X114196957Y-79537551D01*
X114182496Y-79530458D01*
X114166270Y-79520906D01*
X114153051Y-79511706D01*
X114153049Y-79511705D01*
X114084286Y-79482196D01*
X114081468Y-79480901D01*
X114014271Y-79447940D01*
X114014269Y-79447939D01*
X113998680Y-79443903D01*
X113980864Y-79437813D01*
X113966061Y-79431461D01*
X113966059Y-79431460D01*
X113966058Y-79431460D01*
X113892765Y-79416398D01*
X113889716Y-79415690D01*
X113817281Y-79396936D01*
X113801189Y-79396119D01*
X113782523Y-79393742D01*
X113766743Y-79390500D01*
X113766741Y-79390500D01*
X113691929Y-79390500D01*
X113688789Y-79390420D01*
X113614064Y-79386631D01*
X113614060Y-79386631D01*
X113598143Y-79389070D01*
X113579367Y-79390500D01*
X113313169Y-79390500D01*
X113246130Y-79370815D01*
X113200375Y-79318011D01*
X113190431Y-79248853D01*
X113217622Y-79187464D01*
X113223913Y-79179857D01*
X113237300Y-79163675D01*
X113241201Y-79159387D01*
X113614785Y-78785803D01*
X113627041Y-78775987D01*
X113626858Y-78775765D01*
X113632875Y-78770787D01*
X113632874Y-78770787D01*
X113632877Y-78770786D01*
X113657251Y-78744829D01*
X113680227Y-78720364D01*
X113690671Y-78709918D01*
X113701120Y-78699471D01*
X113705379Y-78693978D01*
X113709152Y-78689561D01*
X113741062Y-78655582D01*
X113750713Y-78638024D01*
X113761396Y-78621761D01*
X113773673Y-78605936D01*
X113792185Y-78563153D01*
X113794738Y-78557941D01*
X113817197Y-78517092D01*
X113822180Y-78497680D01*
X113828481Y-78479280D01*
X113836437Y-78460896D01*
X113843729Y-78414852D01*
X113844906Y-78409171D01*
X113856500Y-78364019D01*
X113856500Y-78343983D01*
X113858027Y-78324582D01*
X113861160Y-78304804D01*
X113856775Y-78258415D01*
X113856500Y-78252577D01*
X113856500Y-78189030D01*
X113876185Y-78121991D01*
X113915404Y-78083491D01*
X113991850Y-78036340D01*
X114113840Y-77914350D01*
X114204408Y-77767516D01*
X114258674Y-77603753D01*
X114269000Y-77502677D01*
X114268999Y-76929324D01*
X114258674Y-76828247D01*
X114204408Y-76664484D01*
X114113840Y-76517650D01*
X114016767Y-76420577D01*
X113983282Y-76359254D01*
X113988266Y-76289562D01*
X114016767Y-76245214D01*
X114125948Y-76136033D01*
X114216448Y-75989311D01*
X114216453Y-75989300D01*
X114270680Y-75825652D01*
X114280999Y-75724654D01*
X114281000Y-75724641D01*
X114281000Y-75688000D01*
X113130000Y-75688000D01*
X113062961Y-75668315D01*
X113017206Y-75615511D01*
X113006000Y-75564000D01*
X113006000Y-74463000D01*
X113506000Y-74463000D01*
X113506000Y-75188000D01*
X114280999Y-75188000D01*
X114280999Y-75151360D01*
X114280998Y-75151345D01*
X114270680Y-75050347D01*
X114216453Y-74886699D01*
X114216448Y-74886688D01*
X114125947Y-74739965D01*
X114125944Y-74739961D01*
X114004038Y-74618055D01*
X114004034Y-74618052D01*
X113857311Y-74527551D01*
X113857300Y-74527546D01*
X113693652Y-74473319D01*
X113592654Y-74463000D01*
X113506000Y-74463000D01*
X113006000Y-74463000D01*
X113005999Y-74462999D01*
X112919360Y-74463000D01*
X112919343Y-74463001D01*
X112818347Y-74473319D01*
X112654699Y-74527546D01*
X112654688Y-74527551D01*
X112507965Y-74618052D01*
X112507961Y-74618055D01*
X112469033Y-74656983D01*
X112407710Y-74690468D01*
X112338018Y-74685482D01*
X112293672Y-74656982D01*
X112254351Y-74617661D01*
X112254350Y-74617660D01*
X112132086Y-74542247D01*
X112107518Y-74527093D01*
X112107513Y-74527091D01*
X112080217Y-74518046D01*
X111943753Y-74472826D01*
X111943751Y-74472825D01*
X111842678Y-74462500D01*
X111169330Y-74462500D01*
X111169312Y-74462501D01*
X111068247Y-74472825D01*
X110904484Y-74527092D01*
X110904481Y-74527093D01*
X110757648Y-74617661D01*
X110690679Y-74684629D01*
X110629355Y-74718114D01*
X110559664Y-74713128D01*
X110515318Y-74684628D01*
X110426351Y-74595661D01*
X110426350Y-74595660D01*
X110279516Y-74505092D01*
X110115753Y-74450826D01*
X110115751Y-74450825D01*
X110014678Y-74440500D01*
X109441330Y-74440500D01*
X109441312Y-74440501D01*
X109340247Y-74450825D01*
X109176484Y-74505092D01*
X109176481Y-74505093D01*
X109116246Y-74542247D01*
X109029650Y-74595660D01*
X109029648Y-74595661D01*
X109023503Y-74599452D01*
X109022278Y-74597467D01*
X108967853Y-74619411D01*
X108899214Y-74606357D01*
X108890666Y-74601540D01*
X108755311Y-74518051D01*
X108755300Y-74518046D01*
X108591652Y-74463819D01*
X108490654Y-74453500D01*
X108454000Y-74453500D01*
X108454000Y-75617000D01*
X108434315Y-75684039D01*
X108381511Y-75729794D01*
X108330000Y-75741000D01*
X104181001Y-75741000D01*
X104181001Y-75840154D01*
X104191319Y-75941152D01*
X104245546Y-76104800D01*
X104245551Y-76104811D01*
X104336052Y-76251534D01*
X104336055Y-76251538D01*
X104349982Y-76265465D01*
X104383467Y-76326788D01*
X104378483Y-76396480D01*
X104349984Y-76440825D01*
X104335661Y-76455148D01*
X104245093Y-76601981D01*
X104245092Y-76601984D01*
X104190826Y-76765747D01*
X104190826Y-76765748D01*
X104190825Y-76765748D01*
X104180500Y-76866815D01*
X104180500Y-77483355D01*
X104160815Y-77550394D01*
X104108011Y-77596149D01*
X104082281Y-77604645D01*
X103987197Y-77624855D01*
X103987192Y-77624857D01*
X103814270Y-77701848D01*
X103814265Y-77701851D01*
X103661129Y-77813111D01*
X103534466Y-77953785D01*
X103439821Y-78117715D01*
X103439818Y-78117722D01*
X103381327Y-78297740D01*
X103381326Y-78297744D01*
X103361540Y-78486000D01*
X103381326Y-78674256D01*
X103381327Y-78674259D01*
X103439818Y-78854277D01*
X103439821Y-78854284D01*
X103534467Y-79018216D01*
X103542092Y-79026684D01*
X103661129Y-79158888D01*
X103763441Y-79233222D01*
X103806107Y-79288552D01*
X103812086Y-79358165D01*
X103788932Y-79409026D01*
X103750463Y-79459159D01*
X103749023Y-79461654D01*
X103747257Y-79463336D01*
X103745516Y-79465607D01*
X103745161Y-79465335D01*
X103698454Y-79509868D01*
X103629847Y-79523088D01*
X103615857Y-79520940D01*
X103550502Y-79507048D01*
X103472646Y-79490500D01*
X103283354Y-79490500D01*
X103250897Y-79497398D01*
X103098197Y-79529855D01*
X103098192Y-79529857D01*
X102925270Y-79606848D01*
X102925265Y-79606851D01*
X102772129Y-79718111D01*
X102645466Y-79858785D01*
X102550821Y-80022715D01*
X102550818Y-80022722D01*
X102492327Y-80202740D01*
X102492326Y-80202744D01*
X102472540Y-80391000D01*
X102492326Y-80579256D01*
X102492327Y-80579259D01*
X102550818Y-80759277D01*
X102550821Y-80759284D01*
X102645467Y-80923216D01*
X102712931Y-80998142D01*
X102772129Y-81063888D01*
X102925265Y-81175148D01*
X102925270Y-81175151D01*
X103098192Y-81252142D01*
X103098197Y-81252144D01*
X103283354Y-81291500D01*
X103283355Y-81291500D01*
X103457299Y-81291500D01*
X103524338Y-81311185D01*
X103570093Y-81363989D01*
X103580037Y-81433147D01*
X103573481Y-81458834D01*
X103556402Y-81504623D01*
X103556401Y-81504627D01*
X103550000Y-81564155D01*
X103550000Y-83062000D01*
X112350000Y-83062000D01*
X112350000Y-81564172D01*
X112349999Y-81564155D01*
X112346193Y-81528756D01*
X112358598Y-81459996D01*
X112406208Y-81408859D01*
X112469482Y-81391500D01*
X112540500Y-81391500D01*
X112607539Y-81411185D01*
X112653294Y-81463989D01*
X112664500Y-81515500D01*
X112664500Y-82373243D01*
X112679925Y-82524936D01*
X112679926Y-82524938D01*
X112683814Y-82537331D01*
X112689500Y-82574448D01*
X112689500Y-82671668D01*
X112689501Y-82671687D01*
X112699825Y-82772752D01*
X112754092Y-82936515D01*
X112754093Y-82936518D01*
X112844661Y-83083351D01*
X112858629Y-83097319D01*
X112892114Y-83158642D01*
X112887130Y-83228334D01*
X112858629Y-83272681D01*
X112844661Y-83286648D01*
X112754093Y-83433481D01*
X112754091Y-83433486D01*
X112726719Y-83516088D01*
X112699826Y-83597247D01*
X112699826Y-83597248D01*
X112699825Y-83597248D01*
X112689500Y-83698315D01*
X112689500Y-83811494D01*
X112686962Y-83836455D01*
X112664500Y-83945758D01*
X112664500Y-85108500D01*
X112644815Y-85175539D01*
X112592011Y-85221294D01*
X112540500Y-85232500D01*
X112469482Y-85232500D01*
X112402443Y-85212815D01*
X112356688Y-85160011D01*
X112346193Y-85095244D01*
X112349999Y-85059844D01*
X112350000Y-85059827D01*
X112350000Y-83562000D01*
X103550000Y-83562000D01*
X103550000Y-84027000D01*
X103530315Y-84094039D01*
X103477511Y-84139794D01*
X103426000Y-84151000D01*
X103282854Y-84151000D01*
X103250397Y-84157898D01*
X103097697Y-84190355D01*
X103097692Y-84190357D01*
X102924770Y-84267348D01*
X102924765Y-84267351D01*
X102771635Y-84378606D01*
X102771627Y-84378613D01*
X102763071Y-84388115D01*
X102703582Y-84424759D01*
X102690334Y-84427608D01*
X102682872Y-84428790D01*
X102663626Y-84434381D01*
X102644583Y-84438325D01*
X102624704Y-84440836D01*
X102624703Y-84440837D01*
X102581378Y-84457990D01*
X102575852Y-84459882D01*
X102531108Y-84472883D01*
X102531104Y-84472885D01*
X102513865Y-84483080D01*
X102496398Y-84491637D01*
X102477769Y-84499012D01*
X102477767Y-84499013D01*
X102440064Y-84526406D01*
X102435182Y-84529612D01*
X102395080Y-84553328D01*
X102380908Y-84567500D01*
X102366123Y-84580128D01*
X102349912Y-84591907D01*
X102320209Y-84627810D01*
X102316277Y-84632131D01*
X102128708Y-84819699D01*
X102116451Y-84829520D01*
X102116634Y-84829741D01*
X102110623Y-84834713D01*
X102063272Y-84885136D01*
X102042389Y-84906019D01*
X102042377Y-84906032D01*
X102038121Y-84911517D01*
X102034337Y-84915947D01*
X102002437Y-84949918D01*
X102002436Y-84949920D01*
X101992784Y-84967476D01*
X101982110Y-84983726D01*
X101969829Y-84999561D01*
X101969824Y-84999568D01*
X101951315Y-85042338D01*
X101948745Y-85047584D01*
X101926303Y-85088406D01*
X101921322Y-85107807D01*
X101915021Y-85126210D01*
X101907062Y-85144602D01*
X101907061Y-85144605D01*
X101899771Y-85190627D01*
X101898587Y-85196346D01*
X101887001Y-85241472D01*
X101887000Y-85241482D01*
X101887000Y-85261516D01*
X101885473Y-85280915D01*
X101881119Y-85308403D01*
X101878969Y-85308062D01*
X101860659Y-85363868D01*
X101823599Y-85399121D01*
X101801653Y-85412657D01*
X101687327Y-85526983D01*
X101626004Y-85560467D01*
X101556312Y-85555483D01*
X101511965Y-85526982D01*
X101398038Y-85413055D01*
X101398034Y-85413052D01*
X101251311Y-85322551D01*
X101251300Y-85322546D01*
X101087652Y-85268319D01*
X100986654Y-85258000D01*
X100937500Y-85258000D01*
X100937500Y-87207999D01*
X100986640Y-87207999D01*
X100986654Y-87207998D01*
X101087652Y-87197680D01*
X101251300Y-87143453D01*
X101251311Y-87143448D01*
X101398033Y-87052948D01*
X101511964Y-86939017D01*
X101573287Y-86905532D01*
X101642979Y-86910516D01*
X101687327Y-86939017D01*
X101801650Y-87053340D01*
X101948484Y-87143908D01*
X102112247Y-87198174D01*
X102213323Y-87208500D01*
X102483634Y-87208499D01*
X102550672Y-87228183D01*
X102596427Y-87280987D01*
X102606953Y-87319534D01*
X102619326Y-87437256D01*
X102619327Y-87437259D01*
X102677818Y-87617277D01*
X102677821Y-87617284D01*
X102772467Y-87781216D01*
X102848463Y-87865618D01*
X102899129Y-87921888D01*
X103052265Y-88033148D01*
X103052270Y-88033151D01*
X103225192Y-88110142D01*
X103225197Y-88110144D01*
X103410354Y-88149500D01*
X103410355Y-88149500D01*
X103599644Y-88149500D01*
X103599646Y-88149500D01*
X103784803Y-88110144D01*
X103957730Y-88033151D01*
X104091197Y-87936182D01*
X104157003Y-87912702D01*
X104164082Y-87912500D01*
X104571069Y-87912500D01*
X104586689Y-87914224D01*
X104586716Y-87913939D01*
X104594472Y-87914671D01*
X104594479Y-87914673D01*
X104663626Y-87912500D01*
X104693162Y-87912500D01*
X104700040Y-87911630D01*
X104705853Y-87911172D01*
X104752439Y-87909709D01*
X104771681Y-87904117D01*
X104790724Y-87900174D01*
X104810604Y-87897664D01*
X104853934Y-87880507D01*
X104859458Y-87878617D01*
X104863208Y-87877527D01*
X104904202Y-87865618D01*
X104921441Y-87855422D01*
X104938915Y-87846862D01*
X104957539Y-87839488D01*
X104957539Y-87839487D01*
X104957544Y-87839486D01*
X104995261Y-87812082D01*
X105000117Y-87808892D01*
X105040232Y-87785170D01*
X105054398Y-87771003D01*
X105069193Y-87758368D01*
X105085396Y-87746596D01*
X105085395Y-87746596D01*
X105085399Y-87746594D01*
X105115107Y-87710682D01*
X105119029Y-87706373D01*
X105209870Y-87615532D01*
X105340204Y-87485196D01*
X105401527Y-87451712D01*
X105444069Y-87449939D01*
X105474999Y-87454010D01*
X105475000Y-87454010D01*
X105475000Y-87411499D01*
X105494685Y-87344460D01*
X105523513Y-87313124D01*
X105553282Y-87290282D01*
X105649536Y-87164841D01*
X105649536Y-87164839D01*
X105652624Y-87160816D01*
X105709052Y-87119613D01*
X105778798Y-87115458D01*
X105839718Y-87149670D01*
X105872471Y-87211387D01*
X105875000Y-87236302D01*
X105875000Y-87454010D01*
X105875001Y-87454011D01*
X105931622Y-87446558D01*
X105931627Y-87446556D01*
X105952545Y-87437892D01*
X106022014Y-87430423D01*
X106047452Y-87437892D01*
X106068367Y-87446555D01*
X106185673Y-87461999D01*
X106190486Y-87461999D01*
X106257528Y-87481676D01*
X106303289Y-87534475D01*
X106314500Y-87585999D01*
X106314500Y-88180217D01*
X106294815Y-88247256D01*
X106278181Y-88267898D01*
X100901532Y-93644546D01*
X100836946Y-93705942D01*
X100801899Y-93756294D01*
X100799062Y-93760056D01*
X100760302Y-93807592D01*
X100760299Y-93807597D01*
X100744392Y-93838047D01*
X100740324Y-93844761D01*
X100720702Y-93872954D01*
X100696509Y-93929330D01*
X100694488Y-93933584D01*
X100666091Y-93987951D01*
X100666090Y-93987952D01*
X100656640Y-94020975D01*
X100654007Y-94028371D01*
X100640459Y-94059943D01*
X100628113Y-94120019D01*
X100626990Y-94124595D01*
X100610113Y-94183577D01*
X100610113Y-94183579D01*
X100607503Y-94217841D01*
X100606414Y-94225608D01*
X100600980Y-94252052D01*
X100599500Y-94259258D01*
X100599500Y-94320597D01*
X100599321Y-94325306D01*
X100594662Y-94386481D01*
X100594811Y-94392363D01*
X100576829Y-94459879D01*
X100525200Y-94506955D01*
X100470851Y-94519500D01*
X100052129Y-94519500D01*
X100052123Y-94519501D01*
X99992516Y-94525908D01*
X99857671Y-94576202D01*
X99857664Y-94576206D01*
X99742455Y-94662452D01*
X99742452Y-94662455D01*
X99656206Y-94777664D01*
X99656202Y-94777671D01*
X99605908Y-94912517D01*
X99599501Y-94972116D01*
X99599501Y-94972123D01*
X99599500Y-94972135D01*
X99599500Y-98067870D01*
X99060500Y-98067870D01*
X99060500Y-86483000D01*
X99700001Y-86483000D01*
X99700001Y-86519654D01*
X99710319Y-86620652D01*
X99764546Y-86784300D01*
X99764551Y-86784311D01*
X99855052Y-86931034D01*
X99855055Y-86931038D01*
X99976961Y-87052944D01*
X99976965Y-87052947D01*
X100123688Y-87143448D01*
X100123699Y-87143453D01*
X100287347Y-87197680D01*
X100388351Y-87207999D01*
X100437499Y-87207998D01*
X100437500Y-87207998D01*
X100437500Y-86483000D01*
X99700001Y-86483000D01*
X99060500Y-86483000D01*
X99060500Y-85983000D01*
X99700000Y-85983000D01*
X100437500Y-85983000D01*
X100437500Y-85258000D01*
X100437499Y-85257999D01*
X100388361Y-85258000D01*
X100388343Y-85258001D01*
X100287347Y-85268319D01*
X100123699Y-85322546D01*
X100123688Y-85322551D01*
X99976965Y-85413052D01*
X99976961Y-85413055D01*
X99855055Y-85534961D01*
X99855052Y-85534965D01*
X99764551Y-85681688D01*
X99764546Y-85681699D01*
X99710319Y-85845347D01*
X99700000Y-85946345D01*
X99700000Y-85983000D01*
X99060500Y-85983000D01*
X99060500Y-83312000D01*
X104544709Y-83312000D01*
X104565514Y-83389645D01*
X104622355Y-83446486D01*
X104680254Y-83462000D01*
X104719746Y-83462000D01*
X104777645Y-83446486D01*
X104834486Y-83389646D01*
X104855291Y-83312000D01*
X105844709Y-83312000D01*
X105865514Y-83389645D01*
X105922355Y-83446486D01*
X105980254Y-83462000D01*
X106019746Y-83462000D01*
X106077645Y-83446486D01*
X106134486Y-83389646D01*
X106155291Y-83312000D01*
X107144709Y-83312000D01*
X107165514Y-83389645D01*
X107222355Y-83446486D01*
X107280254Y-83462000D01*
X107319746Y-83462000D01*
X107377645Y-83446486D01*
X107434486Y-83389646D01*
X107455291Y-83312000D01*
X108444709Y-83312000D01*
X108465514Y-83389645D01*
X108522355Y-83446486D01*
X108580254Y-83462000D01*
X108619746Y-83462000D01*
X108677645Y-83446486D01*
X108734486Y-83389646D01*
X108755291Y-83312000D01*
X109744709Y-83312000D01*
X109765514Y-83389645D01*
X109822355Y-83446486D01*
X109880254Y-83462000D01*
X109919746Y-83462000D01*
X109977645Y-83446486D01*
X110034486Y-83389646D01*
X110055291Y-83312000D01*
X111044709Y-83312000D01*
X111065514Y-83389645D01*
X111122355Y-83446486D01*
X111180254Y-83462000D01*
X111219746Y-83462000D01*
X111277645Y-83446486D01*
X111334486Y-83389646D01*
X111355291Y-83312000D01*
X111334486Y-83234355D01*
X111277645Y-83177514D01*
X111219746Y-83162000D01*
X111180254Y-83162000D01*
X111122355Y-83177514D01*
X111065514Y-83234354D01*
X111044709Y-83312000D01*
X110055291Y-83312000D01*
X110034486Y-83234355D01*
X109977645Y-83177514D01*
X109919746Y-83162000D01*
X109880254Y-83162000D01*
X109822355Y-83177514D01*
X109765514Y-83234354D01*
X109744709Y-83312000D01*
X108755291Y-83312000D01*
X108734486Y-83234355D01*
X108677645Y-83177514D01*
X108619746Y-83162000D01*
X108580254Y-83162000D01*
X108522355Y-83177514D01*
X108465514Y-83234354D01*
X108444709Y-83312000D01*
X107455291Y-83312000D01*
X107434486Y-83234355D01*
X107377645Y-83177514D01*
X107319746Y-83162000D01*
X107280254Y-83162000D01*
X107222355Y-83177514D01*
X107165514Y-83234354D01*
X107144709Y-83312000D01*
X106155291Y-83312000D01*
X106134486Y-83234355D01*
X106077645Y-83177514D01*
X106019746Y-83162000D01*
X105980254Y-83162000D01*
X105922355Y-83177514D01*
X105865514Y-83234354D01*
X105844709Y-83312000D01*
X104855291Y-83312000D01*
X104834486Y-83234355D01*
X104777645Y-83177514D01*
X104719746Y-83162000D01*
X104680254Y-83162000D01*
X104622355Y-83177514D01*
X104565514Y-83234354D01*
X104544709Y-83312000D01*
X99060500Y-83312000D01*
X99060500Y-75241000D01*
X104181000Y-75241000D01*
X104906000Y-75241000D01*
X104906000Y-74453500D01*
X105406000Y-74453500D01*
X105406000Y-75241000D01*
X106430000Y-75241000D01*
X106430000Y-74453500D01*
X106930000Y-74453500D01*
X106930000Y-75241000D01*
X107954000Y-75241000D01*
X107954000Y-74453500D01*
X107917361Y-74453500D01*
X107917343Y-74453501D01*
X107816347Y-74463819D01*
X107652699Y-74518046D01*
X107652688Y-74518051D01*
X107507097Y-74607854D01*
X107439705Y-74626295D01*
X107376903Y-74607854D01*
X107231311Y-74518051D01*
X107231300Y-74518046D01*
X107067652Y-74463819D01*
X106966654Y-74453500D01*
X106930000Y-74453500D01*
X106430000Y-74453500D01*
X106393361Y-74453500D01*
X106393343Y-74453501D01*
X106292347Y-74463819D01*
X106128699Y-74518046D01*
X106128688Y-74518051D01*
X105983097Y-74607854D01*
X105915705Y-74626295D01*
X105852903Y-74607854D01*
X105707311Y-74518051D01*
X105707300Y-74518046D01*
X105543652Y-74463819D01*
X105442654Y-74453500D01*
X105406000Y-74453500D01*
X104906000Y-74453500D01*
X104869361Y-74453500D01*
X104869343Y-74453501D01*
X104768347Y-74463819D01*
X104604699Y-74518046D01*
X104604688Y-74518051D01*
X104457965Y-74608552D01*
X104457961Y-74608555D01*
X104336055Y-74730461D01*
X104336052Y-74730465D01*
X104245551Y-74877188D01*
X104245546Y-74877199D01*
X104191319Y-75040847D01*
X104181000Y-75141845D01*
X104181000Y-75241000D01*
X99060500Y-75241000D01*
X99060500Y-70190000D01*
X102890000Y-70190000D01*
X102890000Y-70737844D01*
X102896401Y-70797372D01*
X102896403Y-70797379D01*
X102946645Y-70932086D01*
X102946649Y-70932093D01*
X103032809Y-71047187D01*
X103032812Y-71047190D01*
X103147906Y-71133350D01*
X103147913Y-71133354D01*
X103282620Y-71183596D01*
X103282627Y-71183598D01*
X103342155Y-71189999D01*
X103342172Y-71190000D01*
X103890000Y-71190000D01*
X103890000Y-70190000D01*
X104390000Y-70190000D01*
X104390000Y-71190000D01*
X104937828Y-71190000D01*
X104937844Y-71189999D01*
X104997372Y-71183598D01*
X104997379Y-71183596D01*
X105132086Y-71133354D01*
X105132093Y-71133350D01*
X105247187Y-71047190D01*
X105247190Y-71047187D01*
X105333350Y-70932093D01*
X105333354Y-70932086D01*
X105383596Y-70797379D01*
X105383598Y-70797372D01*
X105389999Y-70737844D01*
X105390000Y-70737827D01*
X105390000Y-70735000D01*
X112400001Y-70735000D01*
X112400001Y-70771654D01*
X112410319Y-70872652D01*
X112464546Y-71036300D01*
X112464551Y-71036311D01*
X112555052Y-71183034D01*
X112555055Y-71183038D01*
X112676961Y-71304944D01*
X112676965Y-71304947D01*
X112823688Y-71395448D01*
X112823699Y-71395453D01*
X112987347Y-71449680D01*
X113088351Y-71459999D01*
X113175000Y-71459998D01*
X113175000Y-70735000D01*
X112400001Y-70735000D01*
X105390000Y-70735000D01*
X105390000Y-70235000D01*
X112400000Y-70235000D01*
X113175000Y-70235000D01*
X113175000Y-69510000D01*
X113174999Y-69509999D01*
X113088360Y-69510000D01*
X113088343Y-69510001D01*
X112987347Y-69520319D01*
X112823699Y-69574546D01*
X112823688Y-69574551D01*
X112676965Y-69665052D01*
X112676961Y-69665055D01*
X112555055Y-69786961D01*
X112555052Y-69786965D01*
X112464551Y-69933688D01*
X112464546Y-69933699D01*
X112410319Y-70097347D01*
X112400000Y-70198345D01*
X112400000Y-70235000D01*
X105390000Y-70235000D01*
X105390000Y-70190000D01*
X104390000Y-70190000D01*
X103890000Y-70190000D01*
X102890000Y-70190000D01*
X99060500Y-70190000D01*
X99060500Y-69690000D01*
X102890000Y-69690000D01*
X103890000Y-69690000D01*
X103890000Y-68690000D01*
X104390000Y-68690000D01*
X104390000Y-69690000D01*
X105390000Y-69690000D01*
X105390000Y-69142172D01*
X105389999Y-69142155D01*
X105383598Y-69082627D01*
X105383596Y-69082620D01*
X105333354Y-68947913D01*
X105333350Y-68947906D01*
X105247190Y-68832812D01*
X105247187Y-68832809D01*
X105132093Y-68746649D01*
X105132086Y-68746645D01*
X104997379Y-68696403D01*
X104997372Y-68696401D01*
X104937844Y-68690000D01*
X104390000Y-68690000D01*
X103890000Y-68690000D01*
X103342155Y-68690000D01*
X103282627Y-68696401D01*
X103282620Y-68696403D01*
X103147913Y-68746645D01*
X103147906Y-68746649D01*
X103032812Y-68832809D01*
X103032809Y-68832812D01*
X102946649Y-68947906D01*
X102946645Y-68947913D01*
X102896403Y-69082620D01*
X102896401Y-69082627D01*
X102890000Y-69142155D01*
X102890000Y-69690000D01*
X99060500Y-69690000D01*
X99060500Y-67800000D01*
X108245001Y-67800000D01*
X108245001Y-67886654D01*
X108255319Y-67987652D01*
X108309546Y-68151300D01*
X108309551Y-68151311D01*
X108400052Y-68298034D01*
X108400055Y-68298038D01*
X108521961Y-68419944D01*
X108521965Y-68419947D01*
X108668688Y-68510448D01*
X108668699Y-68510453D01*
X108832347Y-68564680D01*
X108933352Y-68574999D01*
X108970000Y-68574999D01*
X108970000Y-67800000D01*
X109470000Y-67800000D01*
X109470000Y-68574999D01*
X109506640Y-68574999D01*
X109506654Y-68574998D01*
X109607652Y-68564680D01*
X109771300Y-68510453D01*
X109771311Y-68510448D01*
X109918034Y-68419947D01*
X109918038Y-68419944D01*
X110039944Y-68298038D01*
X110039947Y-68298034D01*
X110130448Y-68151311D01*
X110130453Y-68151300D01*
X110184680Y-67987652D01*
X110194999Y-67886654D01*
X110195000Y-67886641D01*
X110195000Y-67800000D01*
X109470000Y-67800000D01*
X108970000Y-67800000D01*
X108245001Y-67800000D01*
X99060500Y-67800000D01*
X99060500Y-58706669D01*
X100969500Y-58706669D01*
X100969501Y-58706687D01*
X100979825Y-58807752D01*
X101034092Y-58971515D01*
X101034093Y-58971518D01*
X101124661Y-59118351D01*
X101246650Y-59240340D01*
X101273096Y-59256652D01*
X101319821Y-59308600D01*
X101332000Y-59362191D01*
X101332000Y-61234755D01*
X101330275Y-61250372D01*
X101330561Y-61250399D01*
X101329826Y-61258165D01*
X101332000Y-61327314D01*
X101332000Y-61356843D01*
X101332001Y-61356860D01*
X101332868Y-61363731D01*
X101333326Y-61369550D01*
X101334790Y-61416124D01*
X101334791Y-61416127D01*
X101340380Y-61435367D01*
X101344324Y-61454411D01*
X101346836Y-61474292D01*
X101354963Y-61494819D01*
X101363990Y-61517619D01*
X101365882Y-61523147D01*
X101368160Y-61530989D01*
X101378882Y-61567890D01*
X101382716Y-61574374D01*
X101389080Y-61585134D01*
X101397638Y-61602603D01*
X101405014Y-61621232D01*
X101432398Y-61658923D01*
X101435606Y-61663807D01*
X101459327Y-61703916D01*
X101459333Y-61703924D01*
X101473490Y-61718080D01*
X101486128Y-61732876D01*
X101497905Y-61749086D01*
X101497906Y-61749087D01*
X101533809Y-61778788D01*
X101538120Y-61782710D01*
X101916355Y-62160945D01*
X102279194Y-62523784D01*
X102289019Y-62536048D01*
X102289240Y-62535866D01*
X102294210Y-62541873D01*
X102294213Y-62541876D01*
X102294214Y-62541877D01*
X102344651Y-62589241D01*
X102365530Y-62610120D01*
X102371004Y-62614366D01*
X102375442Y-62618156D01*
X102409418Y-62650062D01*
X102409422Y-62650064D01*
X102426973Y-62659713D01*
X102443231Y-62670392D01*
X102459064Y-62682674D01*
X102478971Y-62691288D01*
X102501837Y-62701183D01*
X102507081Y-62703752D01*
X102547908Y-62726197D01*
X102567312Y-62731179D01*
X102585710Y-62737478D01*
X102604105Y-62745438D01*
X102650129Y-62752726D01*
X102655832Y-62753907D01*
X102700981Y-62765500D01*
X102721016Y-62765500D01*
X102740413Y-62767026D01*
X102760196Y-62770160D01*
X102760203Y-62770159D01*
X102767993Y-62770405D01*
X102767895Y-62773492D01*
X102822389Y-62784031D01*
X102872926Y-62832277D01*
X102889501Y-62894211D01*
X102889501Y-62937876D01*
X102895908Y-62997483D01*
X102946202Y-63132328D01*
X102946206Y-63132335D01*
X103032452Y-63247544D01*
X103032455Y-63247547D01*
X103147664Y-63333793D01*
X103147671Y-63333797D01*
X103282517Y-63384091D01*
X103282516Y-63384091D01*
X103289444Y-63384835D01*
X103342127Y-63390500D01*
X104937872Y-63390499D01*
X104997483Y-63384091D01*
X105132331Y-63333796D01*
X105247546Y-63247546D01*
X105333796Y-63132331D01*
X105384091Y-62997483D01*
X105390500Y-62937873D01*
X105390499Y-61342128D01*
X105384091Y-61282517D01*
X105375286Y-61258910D01*
X105333797Y-61147671D01*
X105333793Y-61147664D01*
X105247547Y-61032455D01*
X105247544Y-61032452D01*
X105132335Y-60946206D01*
X105132328Y-60946202D01*
X104997482Y-60895908D01*
X104997483Y-60895908D01*
X104937883Y-60889501D01*
X104937881Y-60889500D01*
X104937873Y-60889500D01*
X104937864Y-60889500D01*
X103342129Y-60889500D01*
X103342123Y-60889501D01*
X103282516Y-60895908D01*
X103147671Y-60946202D01*
X103147664Y-60946206D01*
X103032455Y-61032452D01*
X103032452Y-61032455D01*
X102946206Y-61147664D01*
X102946203Y-61147670D01*
X102939213Y-61166412D01*
X102897341Y-61222345D01*
X102831877Y-61246762D01*
X102763604Y-61231910D01*
X102735350Y-61210759D01*
X102619319Y-61094728D01*
X102585834Y-61033405D01*
X102583000Y-61007047D01*
X102583000Y-59362191D01*
X102602685Y-59295152D01*
X102641904Y-59256652D01*
X102644599Y-59254989D01*
X102668350Y-59240340D01*
X102782319Y-59126371D01*
X102843642Y-59092886D01*
X102913334Y-59097870D01*
X102957681Y-59126371D01*
X103071650Y-59240340D01*
X103218484Y-59330908D01*
X103382247Y-59385174D01*
X103483323Y-59395500D01*
X104081676Y-59395499D01*
X104081684Y-59395498D01*
X104081687Y-59395498D01*
X104137030Y-59389844D01*
X104182753Y-59385174D01*
X104346516Y-59330908D01*
X104493350Y-59240340D01*
X104615340Y-59118350D01*
X104705908Y-58971516D01*
X104760174Y-58807753D01*
X104770500Y-58706677D01*
X104770499Y-58133324D01*
X104767859Y-58107483D01*
X104760174Y-58032247D01*
X104749010Y-57998557D01*
X104729109Y-57938502D01*
X104726708Y-57868677D01*
X104762439Y-57808634D01*
X104824959Y-57777441D01*
X104846816Y-57775500D01*
X106674773Y-57775500D01*
X106741812Y-57795185D01*
X106776348Y-57828377D01*
X106911281Y-58021082D01*
X106911505Y-58021401D01*
X107078599Y-58188495D01*
X107271624Y-58323653D01*
X107315248Y-58378228D01*
X107324500Y-58425226D01*
X107324500Y-62147255D01*
X107322775Y-62162872D01*
X107323061Y-62162899D01*
X107322326Y-62170665D01*
X107324500Y-62239814D01*
X107324500Y-62269343D01*
X107324501Y-62269360D01*
X107325368Y-62276231D01*
X107325826Y-62282050D01*
X107327290Y-62328624D01*
X107327291Y-62328627D01*
X107332880Y-62347867D01*
X107336824Y-62366911D01*
X107339336Y-62386792D01*
X107350810Y-62415773D01*
X107356490Y-62430119D01*
X107358382Y-62435647D01*
X107371381Y-62480388D01*
X107381580Y-62497634D01*
X107390138Y-62515103D01*
X107397514Y-62533732D01*
X107424898Y-62571423D01*
X107428106Y-62576307D01*
X107451827Y-62616416D01*
X107451833Y-62616424D01*
X107465990Y-62630580D01*
X107478628Y-62645376D01*
X107490405Y-62661586D01*
X107490406Y-62661587D01*
X107526309Y-62691288D01*
X107530620Y-62695210D01*
X107832892Y-62997482D01*
X108084194Y-63248784D01*
X108094019Y-63261048D01*
X108094240Y-63260866D01*
X108099210Y-63266873D01*
X108099213Y-63266876D01*
X108099214Y-63266877D01*
X108149651Y-63314241D01*
X108170530Y-63335120D01*
X108176004Y-63339366D01*
X108180445Y-63343159D01*
X108206785Y-63367894D01*
X108242180Y-63428136D01*
X108245259Y-63470884D01*
X108244501Y-63478303D01*
X108244500Y-63478328D01*
X108244500Y-64076669D01*
X108244501Y-64076687D01*
X108254825Y-64177752D01*
X108291109Y-64287249D01*
X108309092Y-64341516D01*
X108399660Y-64488350D01*
X108521650Y-64610340D01*
X108533920Y-64617908D01*
X108535596Y-64618942D01*
X108582321Y-64670890D01*
X108594500Y-64724481D01*
X108594500Y-64815518D01*
X108574815Y-64882557D01*
X108535600Y-64921055D01*
X108521650Y-64929660D01*
X108521649Y-64929660D01*
X108399661Y-65051648D01*
X108309093Y-65198481D01*
X108309092Y-65198484D01*
X108254826Y-65362247D01*
X108254826Y-65362248D01*
X108254825Y-65362248D01*
X108244500Y-65463315D01*
X108244500Y-66136669D01*
X108244501Y-66136687D01*
X108254825Y-66237752D01*
X108286885Y-66334500D01*
X108309092Y-66401516D01*
X108363458Y-66489658D01*
X108399661Y-66548351D01*
X108438982Y-66587672D01*
X108472467Y-66648995D01*
X108467483Y-66718687D01*
X108438983Y-66763033D01*
X108400055Y-66801961D01*
X108400052Y-66801965D01*
X108309551Y-66948688D01*
X108309546Y-66948699D01*
X108255319Y-67112347D01*
X108245000Y-67213345D01*
X108245000Y-67300000D01*
X110194999Y-67300000D01*
X110194999Y-67213360D01*
X110194998Y-67213345D01*
X110184680Y-67112347D01*
X110130453Y-66948699D01*
X110130448Y-66948688D01*
X110039947Y-66801965D01*
X110039944Y-66801961D01*
X110001017Y-66763034D01*
X109967532Y-66701711D01*
X109972516Y-66632019D01*
X110001016Y-66587673D01*
X110040340Y-66548350D01*
X110130908Y-66401516D01*
X110185174Y-66237753D01*
X110195500Y-66136677D01*
X110195499Y-65463324D01*
X110185174Y-65362247D01*
X110130908Y-65198484D01*
X110040340Y-65051650D01*
X109918350Y-64929660D01*
X109904400Y-64921055D01*
X109857677Y-64869105D01*
X109845500Y-64815518D01*
X109845500Y-64724481D01*
X109865185Y-64657442D01*
X109904404Y-64618942D01*
X109905295Y-64618392D01*
X109918350Y-64610340D01*
X110040340Y-64488350D01*
X110130908Y-64341516D01*
X110185174Y-64177753D01*
X110195500Y-64076677D01*
X110195499Y-63614499D01*
X110215183Y-63547461D01*
X110267987Y-63501706D01*
X110319499Y-63490500D01*
X111957548Y-63490500D01*
X112024587Y-63510185D01*
X112045229Y-63526819D01*
X112749181Y-64230771D01*
X112782666Y-64292094D01*
X112785500Y-64318452D01*
X112785500Y-66353313D01*
X112765815Y-66420352D01*
X112726598Y-66458851D01*
X112676650Y-66489659D01*
X112554661Y-66611648D01*
X112464093Y-66758481D01*
X112464091Y-66758486D01*
X112462584Y-66763034D01*
X112409826Y-66922247D01*
X112409826Y-66922248D01*
X112409825Y-66922248D01*
X112399500Y-67023315D01*
X112399500Y-67596669D01*
X112399501Y-67596687D01*
X112409825Y-67697752D01*
X112464092Y-67861515D01*
X112464093Y-67861518D01*
X112479589Y-67886641D01*
X112554660Y-68008350D01*
X112676650Y-68130340D01*
X112823484Y-68220908D01*
X112987247Y-68275174D01*
X113088323Y-68285500D01*
X113686676Y-68285499D01*
X113686684Y-68285498D01*
X113686687Y-68285498D01*
X113742030Y-68279844D01*
X113787753Y-68275174D01*
X113951516Y-68220908D01*
X114098350Y-68130340D01*
X114212319Y-68016371D01*
X114273642Y-67982886D01*
X114343334Y-67987870D01*
X114387681Y-68016371D01*
X114501650Y-68130340D01*
X114501656Y-68130343D01*
X114502405Y-68130936D01*
X114502790Y-68131480D01*
X114506757Y-68135447D01*
X114506079Y-68136124D01*
X114542785Y-68187956D01*
X114549500Y-68228207D01*
X114549500Y-69519678D01*
X114529815Y-69586717D01*
X114490598Y-69625216D01*
X114426650Y-69664659D01*
X114387326Y-69703983D01*
X114326003Y-69737468D01*
X114256311Y-69732482D01*
X114211965Y-69703982D01*
X114173038Y-69665055D01*
X114173034Y-69665052D01*
X114026311Y-69574551D01*
X114026300Y-69574546D01*
X113862652Y-69520319D01*
X113761654Y-69510000D01*
X113675000Y-69510000D01*
X113675000Y-71459999D01*
X113761640Y-71459999D01*
X113761654Y-71459998D01*
X113862652Y-71449680D01*
X114026300Y-71395453D01*
X114026311Y-71395448D01*
X114173034Y-71304947D01*
X114173037Y-71304945D01*
X114211964Y-71266018D01*
X114273287Y-71232532D01*
X114342978Y-71237516D01*
X114387327Y-71266017D01*
X114426650Y-71305340D01*
X114573484Y-71395908D01*
X114737247Y-71450174D01*
X114838323Y-71460500D01*
X115511676Y-71460499D01*
X115511684Y-71460498D01*
X115511687Y-71460498D01*
X115567030Y-71454844D01*
X115612753Y-71450174D01*
X115776516Y-71395908D01*
X115923350Y-71305340D01*
X116045340Y-71183350D01*
X116135908Y-71036516D01*
X116190174Y-70872753D01*
X116200500Y-70771677D01*
X116200499Y-70198324D01*
X116190174Y-70097247D01*
X116135908Y-69933484D01*
X116045340Y-69786650D01*
X115923350Y-69664660D01*
X115923349Y-69664659D01*
X115859402Y-69625216D01*
X115812678Y-69573268D01*
X115800500Y-69519678D01*
X115800500Y-68275320D01*
X115820185Y-68208281D01*
X115859401Y-68169783D01*
X115923350Y-68130340D01*
X116045340Y-68008350D01*
X116135908Y-67861516D01*
X116156293Y-67800000D01*
X118405001Y-67800000D01*
X118405001Y-67886654D01*
X118415319Y-67987652D01*
X118469546Y-68151300D01*
X118469551Y-68151311D01*
X118560052Y-68298034D01*
X118560055Y-68298038D01*
X118681961Y-68419944D01*
X118681965Y-68419947D01*
X118828688Y-68510448D01*
X118828699Y-68510453D01*
X118992347Y-68564680D01*
X119093352Y-68574999D01*
X119130000Y-68574999D01*
X119130000Y-67800000D01*
X118405001Y-67800000D01*
X116156293Y-67800000D01*
X116190174Y-67697753D01*
X116200500Y-67596677D01*
X116200499Y-67023324D01*
X116190174Y-66922247D01*
X116135908Y-66758484D01*
X116045340Y-66611650D01*
X115923350Y-66489660D01*
X115810984Y-66420352D01*
X115776518Y-66399093D01*
X115776513Y-66399091D01*
X115725850Y-66382303D01*
X115612753Y-66344826D01*
X115612751Y-66344825D01*
X115511678Y-66334500D01*
X114913330Y-66334500D01*
X114913312Y-66334501D01*
X114812247Y-66344825D01*
X114648484Y-66399092D01*
X114648481Y-66399093D01*
X114501648Y-66489661D01*
X114387681Y-66603629D01*
X114326358Y-66637114D01*
X114256666Y-66632130D01*
X114212319Y-66603629D01*
X114098350Y-66489660D01*
X114098347Y-66489658D01*
X114095397Y-66487838D01*
X114093799Y-66486062D01*
X114092683Y-66485179D01*
X114092833Y-66484988D01*
X114048675Y-66435887D01*
X114036500Y-66382303D01*
X114036500Y-64634598D01*
X114056185Y-64567559D01*
X114100429Y-64529220D01*
X114099171Y-64527092D01*
X114105890Y-64523118D01*
X114123129Y-64512922D01*
X114140603Y-64504362D01*
X114159227Y-64496988D01*
X114159227Y-64496987D01*
X114159232Y-64496986D01*
X114196949Y-64469582D01*
X114201805Y-64466392D01*
X114241920Y-64442670D01*
X114256089Y-64428499D01*
X114270879Y-64415868D01*
X114287087Y-64404094D01*
X114316799Y-64368176D01*
X114320712Y-64363876D01*
X117189772Y-61494819D01*
X117251095Y-61461334D01*
X117277453Y-61458500D01*
X118287090Y-61458500D01*
X118354129Y-61478185D01*
X118399884Y-61530989D01*
X118410448Y-61595103D01*
X118404500Y-61653315D01*
X118404500Y-62251669D01*
X118404501Y-62251687D01*
X118414825Y-62352752D01*
X118469092Y-62516515D01*
X118469093Y-62516518D01*
X118498189Y-62563689D01*
X118558758Y-62661888D01*
X118559661Y-62663351D01*
X118673629Y-62777319D01*
X118707114Y-62838642D01*
X118702130Y-62908334D01*
X118673629Y-62952681D01*
X118559661Y-63066648D01*
X118469093Y-63213481D01*
X118469091Y-63213486D01*
X118451399Y-63266877D01*
X118414826Y-63377247D01*
X118414826Y-63377248D01*
X118414825Y-63377248D01*
X118404500Y-63478315D01*
X118404500Y-64076669D01*
X118404501Y-64076687D01*
X118414825Y-64177752D01*
X118451109Y-64287249D01*
X118469092Y-64341516D01*
X118559660Y-64488350D01*
X118681650Y-64610340D01*
X118693920Y-64617908D01*
X118695596Y-64618942D01*
X118742321Y-64670890D01*
X118754500Y-64724481D01*
X118754500Y-64815518D01*
X118734815Y-64882557D01*
X118695600Y-64921055D01*
X118681650Y-64929660D01*
X118681649Y-64929660D01*
X118559661Y-65051648D01*
X118469093Y-65198481D01*
X118469092Y-65198484D01*
X118414826Y-65362247D01*
X118414826Y-65362248D01*
X118414825Y-65362248D01*
X118404500Y-65463315D01*
X118404500Y-66136669D01*
X118404501Y-66136687D01*
X118414825Y-66237752D01*
X118446885Y-66334500D01*
X118469092Y-66401516D01*
X118523458Y-66489658D01*
X118559661Y-66548351D01*
X118598982Y-66587672D01*
X118632467Y-66648995D01*
X118627483Y-66718687D01*
X118598983Y-66763033D01*
X118560055Y-66801961D01*
X118560052Y-66801965D01*
X118469551Y-66948688D01*
X118469546Y-66948699D01*
X118415319Y-67112347D01*
X118405000Y-67213345D01*
X118405000Y-67300000D01*
X119506000Y-67300000D01*
X119573039Y-67319685D01*
X119618794Y-67372489D01*
X119630000Y-67424000D01*
X119630000Y-68574999D01*
X119666640Y-68574999D01*
X119666654Y-68574998D01*
X119767653Y-68564680D01*
X119771494Y-68563408D01*
X119774004Y-68563321D01*
X119774274Y-68563264D01*
X119774284Y-68563311D01*
X119841322Y-68561005D01*
X119901365Y-68596735D01*
X119932558Y-68659255D01*
X119934500Y-68681113D01*
X119934500Y-73487255D01*
X119932775Y-73502872D01*
X119933061Y-73502899D01*
X119932326Y-73510665D01*
X119934500Y-73579814D01*
X119934500Y-73609343D01*
X119934501Y-73609361D01*
X119935368Y-73616232D01*
X119935826Y-73622053D01*
X119936497Y-73643409D01*
X119934344Y-73663103D01*
X119935477Y-73663247D01*
X119934500Y-73670981D01*
X119934500Y-73691016D01*
X119932973Y-73710415D01*
X119929840Y-73730194D01*
X119929840Y-73730195D01*
X119934225Y-73776583D01*
X119934500Y-73782421D01*
X119934500Y-77427255D01*
X119932775Y-77442872D01*
X119933061Y-77442899D01*
X119932326Y-77450665D01*
X119934500Y-77519814D01*
X119934500Y-77549343D01*
X119934501Y-77549360D01*
X119935368Y-77556231D01*
X119935826Y-77562050D01*
X119937290Y-77608624D01*
X119937291Y-77608627D01*
X119942880Y-77627867D01*
X119946824Y-77646911D01*
X119949336Y-77666792D01*
X119965668Y-77708044D01*
X119966490Y-77710119D01*
X119968382Y-77715647D01*
X119973688Y-77733910D01*
X119981382Y-77760390D01*
X119988322Y-77772126D01*
X119991580Y-77777634D01*
X120000138Y-77795103D01*
X120007514Y-77813732D01*
X120034898Y-77851423D01*
X120038106Y-77856307D01*
X120061827Y-77896416D01*
X120061833Y-77896424D01*
X120075990Y-77910580D01*
X120088628Y-77925376D01*
X120100405Y-77941586D01*
X120100406Y-77941587D01*
X120136309Y-77971288D01*
X120140620Y-77975210D01*
X120723327Y-78557917D01*
X121282346Y-79116936D01*
X121312371Y-79165612D01*
X121354092Y-79291516D01*
X121444660Y-79438350D01*
X121566650Y-79560340D01*
X121713484Y-79650908D01*
X121877247Y-79705174D01*
X121978323Y-79715500D01*
X122576676Y-79715499D01*
X122576684Y-79715498D01*
X122576687Y-79715498D01*
X122632030Y-79709844D01*
X122677753Y-79705174D01*
X122841516Y-79650908D01*
X122988350Y-79560340D01*
X123102319Y-79446371D01*
X123163642Y-79412886D01*
X123233334Y-79417870D01*
X123277681Y-79446371D01*
X123311992Y-79480682D01*
X123345477Y-79542005D01*
X123340493Y-79611697D01*
X123331699Y-79630362D01*
X123251820Y-79768718D01*
X123251818Y-79768722D01*
X123193531Y-79948113D01*
X123193326Y-79948744D01*
X123173540Y-80137000D01*
X123193326Y-80325256D01*
X123193327Y-80325259D01*
X123251818Y-80505277D01*
X123251821Y-80505284D01*
X123346467Y-80669216D01*
X123427559Y-80759277D01*
X123473129Y-80809888D01*
X123626265Y-80921148D01*
X123626270Y-80921151D01*
X123799192Y-80998142D01*
X123799197Y-80998144D01*
X123984354Y-81037500D01*
X123984355Y-81037500D01*
X124173644Y-81037500D01*
X124173646Y-81037500D01*
X124358803Y-80998144D01*
X124531730Y-80921151D01*
X124684871Y-80809888D01*
X124811533Y-80669216D01*
X124906179Y-80505284D01*
X124964674Y-80325256D01*
X124984460Y-80137000D01*
X124964674Y-79948744D01*
X124906179Y-79768716D01*
X124843503Y-79660159D01*
X124827031Y-79592260D01*
X124849884Y-79526233D01*
X124863199Y-79510490D01*
X124935340Y-79438350D01*
X125025908Y-79291516D01*
X125080174Y-79127753D01*
X125090500Y-79026677D01*
X125090499Y-78453324D01*
X125085987Y-78409158D01*
X125080174Y-78352247D01*
X125062112Y-78297740D01*
X125025908Y-78188484D01*
X124935340Y-78041650D01*
X124813350Y-77919660D01*
X124813349Y-77919659D01*
X124770188Y-77893037D01*
X124723464Y-77841089D01*
X124712243Y-77772126D01*
X124740086Y-77708044D01*
X124770202Y-77681953D01*
X124773244Y-77680077D01*
X124840637Y-77661651D01*
X124888755Y-77672349D01*
X124942197Y-77696144D01*
X125127354Y-77735500D01*
X125127355Y-77735500D01*
X125316644Y-77735500D01*
X125316646Y-77735500D01*
X125501803Y-77696144D01*
X125674730Y-77619151D01*
X125827871Y-77507888D01*
X125954533Y-77367216D01*
X126049179Y-77203284D01*
X126107674Y-77023256D01*
X126127460Y-76835000D01*
X126107674Y-76646744D01*
X126053112Y-76478823D01*
X126049181Y-76466722D01*
X126049180Y-76466721D01*
X126049179Y-76466716D01*
X125954533Y-76302784D01*
X125827871Y-76162112D01*
X125821014Y-76157130D01*
X125674734Y-76050851D01*
X125674729Y-76050848D01*
X125501807Y-75973857D01*
X125501802Y-75973855D01*
X125347941Y-75941152D01*
X125316646Y-75934500D01*
X125127354Y-75934500D01*
X125096059Y-75941152D01*
X124942197Y-75973855D01*
X124942195Y-75973856D01*
X124902435Y-75991559D01*
X124833185Y-76000843D01*
X124769909Y-75971215D01*
X124732696Y-75912079D01*
X124728000Y-75878279D01*
X124728000Y-75872191D01*
X124747685Y-75805152D01*
X124786904Y-75766652D01*
X124789599Y-75764989D01*
X124813350Y-75750340D01*
X124935340Y-75628350D01*
X125025908Y-75481516D01*
X125080174Y-75317753D01*
X125090500Y-75216677D01*
X125090499Y-74643324D01*
X125088759Y-74626295D01*
X125080174Y-74542247D01*
X125075304Y-74527551D01*
X125025908Y-74378484D01*
X124935340Y-74231650D01*
X124813350Y-74109660D01*
X124813347Y-74109657D01*
X124786901Y-74093345D01*
X124740178Y-74041397D01*
X124728000Y-73987808D01*
X124728000Y-73967191D01*
X124747685Y-73900152D01*
X124786904Y-73861652D01*
X124789599Y-73859989D01*
X124813350Y-73845340D01*
X124935340Y-73723350D01*
X125025908Y-73576516D01*
X125080174Y-73412753D01*
X125090500Y-73311677D01*
X125090499Y-72738324D01*
X125080174Y-72637247D01*
X125025908Y-72473484D01*
X124935340Y-72326650D01*
X124813350Y-72204660D01*
X124788889Y-72189572D01*
X124742167Y-72137626D01*
X124730049Y-72087929D01*
X124728000Y-72022701D01*
X124728000Y-71993151D01*
X124728000Y-71993150D01*
X124727129Y-71986259D01*
X124726672Y-71980445D01*
X124725209Y-71933874D01*
X124725209Y-71933872D01*
X124719620Y-71914637D01*
X124715674Y-71895584D01*
X124713164Y-71875708D01*
X124696001Y-71832359D01*
X124694114Y-71826846D01*
X124691037Y-71816256D01*
X124681117Y-71782110D01*
X124670921Y-71764869D01*
X124662360Y-71747393D01*
X124654986Y-71728769D01*
X124654986Y-71728767D01*
X124644974Y-71714988D01*
X124627583Y-71691050D01*
X124624400Y-71686205D01*
X124600670Y-71646079D01*
X124600665Y-71646073D01*
X124586505Y-71631913D01*
X124573870Y-71617120D01*
X124562093Y-71600912D01*
X124526193Y-71571213D01*
X124521881Y-71567290D01*
X124246319Y-71291728D01*
X124212834Y-71230405D01*
X124210000Y-71204047D01*
X124210000Y-70190000D01*
X124710000Y-70190000D01*
X124710000Y-71190000D01*
X125257828Y-71190000D01*
X125257844Y-71189999D01*
X125317372Y-71183598D01*
X125317379Y-71183596D01*
X125452086Y-71133354D01*
X125452093Y-71133350D01*
X125567187Y-71047190D01*
X125567190Y-71047187D01*
X125653350Y-70932093D01*
X125653354Y-70932086D01*
X125703596Y-70797379D01*
X125703598Y-70797372D01*
X125709999Y-70737844D01*
X125710000Y-70737827D01*
X125710000Y-70190000D01*
X124710000Y-70190000D01*
X124210000Y-70190000D01*
X123210000Y-70190000D01*
X123210000Y-70603800D01*
X123190315Y-70670839D01*
X123137511Y-70716594D01*
X123098969Y-70727120D01*
X123095354Y-70727500D01*
X122910197Y-70766855D01*
X122910192Y-70766857D01*
X122737270Y-70843848D01*
X122737265Y-70843851D01*
X122584129Y-70955111D01*
X122457466Y-71095785D01*
X122362821Y-71259715D01*
X122362818Y-71259722D01*
X122318569Y-71395908D01*
X122304326Y-71439744D01*
X122284540Y-71628000D01*
X122304326Y-71816256D01*
X122304327Y-71816259D01*
X122327371Y-71887182D01*
X122329366Y-71957023D01*
X122293285Y-72016856D01*
X122230584Y-72047684D01*
X122209441Y-72049500D01*
X121978331Y-72049500D01*
X121978312Y-72049501D01*
X121877247Y-72059825D01*
X121713484Y-72114092D01*
X121713479Y-72114094D01*
X121657656Y-72148526D01*
X121590264Y-72166965D01*
X121566780Y-72164276D01*
X121471444Y-72144012D01*
X121379646Y-72124500D01*
X121309500Y-72124500D01*
X121242461Y-72104815D01*
X121196706Y-72052011D01*
X121185500Y-72000500D01*
X121185500Y-69690000D01*
X123210000Y-69690000D01*
X124210000Y-69690000D01*
X124210000Y-68690000D01*
X124710000Y-68690000D01*
X124710000Y-69690000D01*
X125710000Y-69690000D01*
X125710000Y-69142172D01*
X125709999Y-69142155D01*
X125703598Y-69082627D01*
X125703596Y-69082620D01*
X125653354Y-68947913D01*
X125653350Y-68947906D01*
X125567190Y-68832812D01*
X125567187Y-68832809D01*
X125452093Y-68746649D01*
X125452086Y-68746645D01*
X125317379Y-68696403D01*
X125317372Y-68696401D01*
X125257844Y-68690000D01*
X124710000Y-68690000D01*
X124210000Y-68690000D01*
X123662155Y-68690000D01*
X123602627Y-68696401D01*
X123602620Y-68696403D01*
X123467913Y-68746645D01*
X123467906Y-68746649D01*
X123352812Y-68832809D01*
X123352809Y-68832812D01*
X123266649Y-68947906D01*
X123266645Y-68947913D01*
X123216403Y-69082620D01*
X123216401Y-69082627D01*
X123210000Y-69142155D01*
X123210000Y-69690000D01*
X121185500Y-69690000D01*
X121185500Y-62352952D01*
X121205185Y-62285913D01*
X121221819Y-62265271D01*
X123135272Y-60351819D01*
X123196595Y-60318334D01*
X123222953Y-60315500D01*
X125012257Y-60315500D01*
X125027877Y-60317224D01*
X125027904Y-60316939D01*
X125035660Y-60317671D01*
X125035667Y-60317673D01*
X125104814Y-60315500D01*
X125134350Y-60315500D01*
X125141228Y-60314630D01*
X125147041Y-60314172D01*
X125193627Y-60312709D01*
X125212869Y-60307117D01*
X125231912Y-60303174D01*
X125251792Y-60300664D01*
X125295122Y-60283507D01*
X125300646Y-60281617D01*
X125304449Y-60280512D01*
X125345390Y-60268618D01*
X125362629Y-60258422D01*
X125380103Y-60249862D01*
X125398727Y-60242488D01*
X125398727Y-60242487D01*
X125398732Y-60242486D01*
X125436449Y-60215082D01*
X125441305Y-60211892D01*
X125481420Y-60188170D01*
X125495589Y-60173999D01*
X125510379Y-60161368D01*
X125526587Y-60149594D01*
X125556299Y-60113676D01*
X125560212Y-60109376D01*
X125805320Y-59864269D01*
X125866642Y-59830785D01*
X125936334Y-59835769D01*
X125992267Y-59877641D01*
X126016684Y-59943105D01*
X126017000Y-59951951D01*
X126017000Y-61134047D01*
X125997315Y-61201086D01*
X125980685Y-61221723D01*
X125919893Y-61282516D01*
X125899149Y-61303260D01*
X125837825Y-61336744D01*
X125768134Y-61331760D01*
X125712200Y-61289888D01*
X125695286Y-61258910D01*
X125653798Y-61147673D01*
X125653793Y-61147664D01*
X125567547Y-61032455D01*
X125567544Y-61032452D01*
X125452335Y-60946206D01*
X125452328Y-60946202D01*
X125317482Y-60895908D01*
X125317483Y-60895908D01*
X125257883Y-60889501D01*
X125257881Y-60889500D01*
X125257873Y-60889500D01*
X125257864Y-60889500D01*
X123662129Y-60889500D01*
X123662123Y-60889501D01*
X123602516Y-60895908D01*
X123467671Y-60946202D01*
X123467664Y-60946206D01*
X123352455Y-61032452D01*
X123352452Y-61032455D01*
X123266206Y-61147664D01*
X123266202Y-61147671D01*
X123215908Y-61282517D01*
X123209501Y-61342116D01*
X123209501Y-61342123D01*
X123209500Y-61342135D01*
X123209500Y-62937870D01*
X123209501Y-62937876D01*
X123215908Y-62997483D01*
X123266202Y-63132328D01*
X123266206Y-63132335D01*
X123352452Y-63247544D01*
X123352455Y-63247547D01*
X123467664Y-63333793D01*
X123467671Y-63333797D01*
X123602517Y-63384091D01*
X123602516Y-63384091D01*
X123609444Y-63384835D01*
X123662127Y-63390500D01*
X125257872Y-63390499D01*
X125317483Y-63384091D01*
X125452331Y-63333796D01*
X125567546Y-63247546D01*
X125653796Y-63132331D01*
X125704091Y-62997483D01*
X125710500Y-62937873D01*
X125710500Y-62889500D01*
X125730185Y-62822461D01*
X125782989Y-62776706D01*
X125834500Y-62765500D01*
X125864257Y-62765500D01*
X125879877Y-62767224D01*
X125879904Y-62766939D01*
X125887660Y-62767671D01*
X125887667Y-62767673D01*
X125956814Y-62765500D01*
X125986350Y-62765500D01*
X125993228Y-62764630D01*
X125999041Y-62764172D01*
X126045627Y-62762709D01*
X126064869Y-62757117D01*
X126083912Y-62753174D01*
X126103792Y-62750664D01*
X126147122Y-62733507D01*
X126152646Y-62731617D01*
X126156396Y-62730527D01*
X126197390Y-62718618D01*
X126214629Y-62708422D01*
X126232103Y-62699862D01*
X126250727Y-62692488D01*
X126250727Y-62692487D01*
X126250732Y-62692486D01*
X126288449Y-62665082D01*
X126293305Y-62661892D01*
X126333420Y-62638170D01*
X126347589Y-62623999D01*
X126362379Y-62611368D01*
X126378587Y-62599594D01*
X126408299Y-62563676D01*
X126412212Y-62559376D01*
X127026286Y-61945302D01*
X127038548Y-61935480D01*
X127038365Y-61935259D01*
X127044367Y-61930292D01*
X127044377Y-61930286D01*
X127091741Y-61879848D01*
X127112620Y-61858970D01*
X127116873Y-61853486D01*
X127120650Y-61849063D01*
X127152562Y-61815082D01*
X127162214Y-61797523D01*
X127172889Y-61781272D01*
X127185174Y-61765436D01*
X127203686Y-61722652D01*
X127206242Y-61717435D01*
X127228697Y-61676592D01*
X127233680Y-61657180D01*
X127239977Y-61638791D01*
X127247938Y-61620395D01*
X127255229Y-61574353D01*
X127256408Y-61568662D01*
X127268000Y-61523519D01*
X127268000Y-61503483D01*
X127269527Y-61484082D01*
X127270461Y-61478185D01*
X127272660Y-61464304D01*
X127268275Y-61417915D01*
X127268000Y-61412077D01*
X127268000Y-59362191D01*
X127287685Y-59295152D01*
X127326904Y-59256652D01*
X127329599Y-59254989D01*
X127353350Y-59240340D01*
X127475340Y-59118350D01*
X127565908Y-58971516D01*
X127620174Y-58807753D01*
X127630500Y-58706677D01*
X127630499Y-58133324D01*
X127627859Y-58107483D01*
X127620174Y-58032247D01*
X127609010Y-57998557D01*
X127565908Y-57868484D01*
X127475340Y-57721650D01*
X127353350Y-57599660D01*
X127353347Y-57599657D01*
X127326901Y-57583345D01*
X127280178Y-57531397D01*
X127268000Y-57477808D01*
X127268000Y-56187191D01*
X127287685Y-56120152D01*
X127326904Y-56081652D01*
X127333676Y-56077475D01*
X127353350Y-56065340D01*
X127475340Y-55943350D01*
X127565908Y-55796516D01*
X127620174Y-55632753D01*
X127630500Y-55531677D01*
X127630499Y-54958324D01*
X127620174Y-54857247D01*
X127565908Y-54693484D01*
X127475340Y-54546650D01*
X127353350Y-54424660D01*
X127206516Y-54334092D01*
X127042753Y-54279826D01*
X127042751Y-54279825D01*
X126941678Y-54269500D01*
X126343330Y-54269500D01*
X126343312Y-54269501D01*
X126242247Y-54279825D01*
X126078484Y-54334092D01*
X126078481Y-54334093D01*
X125931648Y-54424661D01*
X125817681Y-54538629D01*
X125756358Y-54572114D01*
X125686666Y-54567130D01*
X125642319Y-54538629D01*
X125528351Y-54424661D01*
X125528350Y-54424660D01*
X125381516Y-54334092D01*
X125217753Y-54279826D01*
X125217751Y-54279825D01*
X125116678Y-54269500D01*
X124518330Y-54269500D01*
X124518312Y-54269501D01*
X124417247Y-54279825D01*
X124253484Y-54334092D01*
X124253481Y-54334093D01*
X124106648Y-54424661D01*
X123984660Y-54546649D01*
X123984659Y-54546651D01*
X123976058Y-54560596D01*
X123924110Y-54607321D01*
X123870519Y-54619500D01*
X123246452Y-54619500D01*
X123179413Y-54599815D01*
X123158771Y-54583181D01*
X122992551Y-54416961D01*
X122801803Y-54226212D01*
X122791980Y-54213950D01*
X122791759Y-54214134D01*
X122786786Y-54208123D01*
X122783434Y-54204975D01*
X122736364Y-54160773D01*
X122721926Y-54146335D01*
X122715475Y-54139883D01*
X122709986Y-54135625D01*
X122705561Y-54131847D01*
X122671582Y-54099938D01*
X122671580Y-54099936D01*
X122671577Y-54099935D01*
X122654029Y-54090288D01*
X122637763Y-54079604D01*
X122621933Y-54067325D01*
X122579168Y-54048818D01*
X122573922Y-54046248D01*
X122533093Y-54023803D01*
X122533092Y-54023802D01*
X122513693Y-54018822D01*
X122495281Y-54012518D01*
X122476898Y-54004562D01*
X122476892Y-54004560D01*
X122430874Y-53997272D01*
X122425152Y-53996087D01*
X122380021Y-53984500D01*
X122380019Y-53984500D01*
X122359984Y-53984500D01*
X122340586Y-53982973D01*
X122333162Y-53981797D01*
X122320805Y-53979840D01*
X122320804Y-53979840D01*
X122274416Y-53984225D01*
X122268578Y-53984500D01*
X121925227Y-53984500D01*
X121858188Y-53964815D01*
X121823652Y-53931623D01*
X121688494Y-53738597D01*
X121521402Y-53571506D01*
X121521395Y-53571501D01*
X121327834Y-53435967D01*
X121327830Y-53435965D01*
X121283979Y-53415517D01*
X121113663Y-53336097D01*
X121113659Y-53336096D01*
X121113655Y-53336094D01*
X120885413Y-53274938D01*
X120885403Y-53274936D01*
X120650001Y-53254341D01*
X120649999Y-53254341D01*
X120414596Y-53274936D01*
X120414586Y-53274938D01*
X120186344Y-53336094D01*
X120186335Y-53336098D01*
X119972171Y-53435964D01*
X119972169Y-53435965D01*
X119778597Y-53571505D01*
X119611505Y-53738597D01*
X119481575Y-53924158D01*
X119426998Y-53967783D01*
X119357500Y-53974977D01*
X119295145Y-53943454D01*
X119278425Y-53924158D01*
X119148494Y-53738597D01*
X118981402Y-53571506D01*
X118981395Y-53571501D01*
X118787834Y-53435967D01*
X118787830Y-53435965D01*
X118743979Y-53415517D01*
X118573663Y-53336097D01*
X118573659Y-53336096D01*
X118573655Y-53336094D01*
X118345413Y-53274938D01*
X118345403Y-53274936D01*
X118110001Y-53254341D01*
X118109999Y-53254341D01*
X117874596Y-53274936D01*
X117874586Y-53274938D01*
X117646344Y-53336094D01*
X117646335Y-53336098D01*
X117432171Y-53435964D01*
X117432169Y-53435965D01*
X117238597Y-53571505D01*
X117071505Y-53738597D01*
X116941575Y-53924158D01*
X116886998Y-53967783D01*
X116817500Y-53974977D01*
X116755145Y-53943454D01*
X116738425Y-53924158D01*
X116608494Y-53738597D01*
X116441402Y-53571506D01*
X116441395Y-53571501D01*
X116247834Y-53435967D01*
X116247830Y-53435965D01*
X116203979Y-53415517D01*
X116033663Y-53336097D01*
X116033659Y-53336096D01*
X116033655Y-53336094D01*
X115805413Y-53274938D01*
X115805403Y-53274936D01*
X115570001Y-53254341D01*
X115569999Y-53254341D01*
X115334596Y-53274936D01*
X115334586Y-53274938D01*
X115106344Y-53336094D01*
X115106335Y-53336098D01*
X114892171Y-53435964D01*
X114892169Y-53435965D01*
X114698597Y-53571505D01*
X114531505Y-53738597D01*
X114401575Y-53924158D01*
X114346998Y-53967783D01*
X114277500Y-53974977D01*
X114215145Y-53943454D01*
X114198425Y-53924158D01*
X114068494Y-53738597D01*
X113901402Y-53571506D01*
X113901395Y-53571501D01*
X113707834Y-53435967D01*
X113707830Y-53435965D01*
X113663979Y-53415517D01*
X113493663Y-53336097D01*
X113493659Y-53336096D01*
X113493655Y-53336094D01*
X113265413Y-53274938D01*
X113265403Y-53274936D01*
X113030001Y-53254341D01*
X113029999Y-53254341D01*
X112794590Y-53274937D01*
X112794589Y-53274937D01*
X112694124Y-53301855D01*
X112624274Y-53300191D01*
X112574352Y-53269761D01*
X112133803Y-52829212D01*
X112123980Y-52816950D01*
X112123759Y-52817134D01*
X112118786Y-52811123D01*
X112100159Y-52793631D01*
X112068364Y-52763773D01*
X112057919Y-52753328D01*
X112047475Y-52742883D01*
X112041986Y-52738625D01*
X112037561Y-52734847D01*
X112003582Y-52702938D01*
X112003580Y-52702936D01*
X112003577Y-52702935D01*
X111986029Y-52693288D01*
X111969763Y-52682604D01*
X111953933Y-52670325D01*
X111911168Y-52651818D01*
X111905922Y-52649248D01*
X111865093Y-52626803D01*
X111865092Y-52626802D01*
X111845693Y-52621822D01*
X111827281Y-52615518D01*
X111808898Y-52607562D01*
X111808892Y-52607560D01*
X111762874Y-52600272D01*
X111757152Y-52599087D01*
X111712021Y-52587500D01*
X111712019Y-52587500D01*
X111691984Y-52587500D01*
X111672586Y-52585973D01*
X111665162Y-52584797D01*
X111652805Y-52582840D01*
X111652804Y-52582840D01*
X111606416Y-52587225D01*
X111600578Y-52587500D01*
X104476743Y-52587500D01*
X104461122Y-52585775D01*
X104461095Y-52586061D01*
X104453333Y-52585326D01*
X104384172Y-52587500D01*
X104354649Y-52587500D01*
X104347778Y-52588367D01*
X104341959Y-52588825D01*
X104295374Y-52590289D01*
X104295368Y-52590290D01*
X104276126Y-52595880D01*
X104257087Y-52599823D01*
X104237217Y-52602334D01*
X104237203Y-52602337D01*
X104193883Y-52619488D01*
X104188358Y-52621380D01*
X104143613Y-52634380D01*
X104143610Y-52634381D01*
X104126366Y-52644579D01*
X104108905Y-52653133D01*
X104090274Y-52660510D01*
X104090262Y-52660517D01*
X104052570Y-52687902D01*
X104047687Y-52691109D01*
X104007580Y-52714829D01*
X103993414Y-52728995D01*
X103978624Y-52741627D01*
X103962414Y-52753404D01*
X103962411Y-52753407D01*
X103932710Y-52789309D01*
X103928777Y-52793631D01*
X103398708Y-53323699D01*
X103386451Y-53333520D01*
X103386634Y-53333741D01*
X103380623Y-53338713D01*
X103333272Y-53389136D01*
X103312389Y-53410019D01*
X103312377Y-53410032D01*
X103308121Y-53415517D01*
X103304337Y-53419947D01*
X103272437Y-53453918D01*
X103272436Y-53453920D01*
X103262784Y-53471476D01*
X103252110Y-53487726D01*
X103239829Y-53503561D01*
X103239824Y-53503568D01*
X103221315Y-53546338D01*
X103218745Y-53551584D01*
X103196303Y-53592406D01*
X103191322Y-53611807D01*
X103185021Y-53630210D01*
X103177062Y-53648602D01*
X103177061Y-53648605D01*
X103169771Y-53694627D01*
X103168587Y-53700346D01*
X103157001Y-53745472D01*
X103157000Y-53745482D01*
X103157000Y-53765516D01*
X103155473Y-53784915D01*
X103152340Y-53804694D01*
X103152340Y-53804695D01*
X103156725Y-53851083D01*
X103157000Y-53856921D01*
X103157000Y-54302808D01*
X103137315Y-54369847D01*
X103098099Y-54408345D01*
X103071652Y-54424657D01*
X103071649Y-54424660D01*
X102957681Y-54538629D01*
X102896358Y-54572114D01*
X102826666Y-54567130D01*
X102782319Y-54538629D01*
X102668351Y-54424661D01*
X102668350Y-54424660D01*
X102521516Y-54334092D01*
X102357753Y-54279826D01*
X102357751Y-54279825D01*
X102256678Y-54269500D01*
X101658330Y-54269500D01*
X101658312Y-54269501D01*
X101557247Y-54279825D01*
X101393484Y-54334092D01*
X101393481Y-54334093D01*
X101246648Y-54424661D01*
X101124661Y-54546648D01*
X101034093Y-54693481D01*
X101034092Y-54693484D01*
X100979826Y-54857247D01*
X100979826Y-54857248D01*
X100979825Y-54857248D01*
X100969500Y-54958315D01*
X100969500Y-55531669D01*
X100969501Y-55531687D01*
X100979825Y-55632752D01*
X101034092Y-55796515D01*
X101034093Y-55796518D01*
X101124661Y-55943351D01*
X101246650Y-56065340D01*
X101273096Y-56081652D01*
X101319821Y-56133600D01*
X101332000Y-56187191D01*
X101332000Y-57477808D01*
X101312315Y-57544847D01*
X101273099Y-57583345D01*
X101246652Y-57599657D01*
X101124661Y-57721648D01*
X101034093Y-57868481D01*
X101034091Y-57868486D01*
X101024768Y-57896621D01*
X100979826Y-58032247D01*
X100979826Y-58032248D01*
X100979825Y-58032248D01*
X100969500Y-58133315D01*
X100969500Y-58706669D01*
X99060500Y-58706669D01*
X99060500Y-51184483D01*
X99060890Y-51177538D01*
X99060891Y-51177532D01*
X99063470Y-51154633D01*
X99078234Y-51042498D01*
X99084125Y-51017754D01*
X99099602Y-50973524D01*
X99100800Y-50970385D01*
X99131837Y-50895456D01*
X99141381Y-50876980D01*
X99169918Y-50831564D01*
X99173195Y-50826850D01*
X99222587Y-50762481D01*
X99227900Y-50756423D01*
X99270423Y-50713900D01*
X99276481Y-50708587D01*
X99340850Y-50659195D01*
X99345564Y-50655918D01*
X99390980Y-50627381D01*
X99409456Y-50617837D01*
X99484385Y-50586800D01*
X99487524Y-50585602D01*
X99531754Y-50570125D01*
X99556498Y-50564234D01*
X99668633Y-50549470D01*
X99691539Y-50546890D01*
X99698484Y-50546500D01*
X128901515Y-50546500D01*
X128908460Y-50546890D01*
G37*
G04 #@! TD.AperFunction*
M02*
