G04 #@! TF.GenerationSoftware,KiCad,Pcbnew,7.0.9-7.0.9~ubuntu20.04.1*
G04 #@! TF.CreationDate,2024-01-18T00:40:07+01:00*
G04 #@! TF.ProjectId,kicad-pmod_bldc,6b696361-642d-4706-9d6f-645f626c6463,1.0*
G04 #@! TF.SameCoordinates,Original*
G04 #@! TF.FileFunction,Legend,Bot*
G04 #@! TF.FilePolarity,Positive*
%FSLAX46Y46*%
G04 Gerber Fmt 4.6, Leading zero omitted, Abs format (unit mm)*
G04 Created by KiCad (PCBNEW 7.0.9-7.0.9~ubuntu20.04.1) date 2024-01-18 00:40:07*
%MOMM*%
%LPD*%
G01*
G04 APERTURE LIST*
%ADD10C,0.200000*%
%ADD11C,0.150000*%
%ADD12R,1.700000X1.700000*%
%ADD13O,1.700000X1.700000*%
%ADD14R,3.000000X3.000000*%
%ADD15C,3.000000*%
G04 APERTURE END LIST*
D10*
X110910600Y-70083149D02*
X110967742Y-70254578D01*
X110967742Y-70254578D02*
X110967742Y-70540292D01*
X110967742Y-70540292D02*
X110910600Y-70654578D01*
X110910600Y-70654578D02*
X110853457Y-70711720D01*
X110853457Y-70711720D02*
X110739171Y-70768863D01*
X110739171Y-70768863D02*
X110624885Y-70768863D01*
X110624885Y-70768863D02*
X110510600Y-70711720D01*
X110510600Y-70711720D02*
X110453457Y-70654578D01*
X110453457Y-70654578D02*
X110396314Y-70540292D01*
X110396314Y-70540292D02*
X110339171Y-70311720D01*
X110339171Y-70311720D02*
X110282028Y-70197435D01*
X110282028Y-70197435D02*
X110224885Y-70140292D01*
X110224885Y-70140292D02*
X110110600Y-70083149D01*
X110110600Y-70083149D02*
X109996314Y-70083149D01*
X109996314Y-70083149D02*
X109882028Y-70140292D01*
X109882028Y-70140292D02*
X109824885Y-70197435D01*
X109824885Y-70197435D02*
X109767742Y-70311720D01*
X109767742Y-70311720D02*
X109767742Y-70597435D01*
X109767742Y-70597435D02*
X109824885Y-70768863D01*
X109767742Y-71854577D02*
X109767742Y-71283149D01*
X109767742Y-71283149D02*
X110339171Y-71226006D01*
X110339171Y-71226006D02*
X110282028Y-71283149D01*
X110282028Y-71283149D02*
X110224885Y-71397435D01*
X110224885Y-71397435D02*
X110224885Y-71683149D01*
X110224885Y-71683149D02*
X110282028Y-71797435D01*
X110282028Y-71797435D02*
X110339171Y-71854577D01*
X110339171Y-71854577D02*
X110453457Y-71911720D01*
X110453457Y-71911720D02*
X110739171Y-71911720D01*
X110739171Y-71911720D02*
X110853457Y-71854577D01*
X110853457Y-71854577D02*
X110910600Y-71797435D01*
X110910600Y-71797435D02*
X110967742Y-71683149D01*
X110967742Y-71683149D02*
X110967742Y-71397435D01*
X110967742Y-71397435D02*
X110910600Y-71283149D01*
X110910600Y-71283149D02*
X110853457Y-71226006D01*
X110967742Y-72483149D02*
X110967742Y-72711720D01*
X110967742Y-72711720D02*
X110910600Y-72826006D01*
X110910600Y-72826006D02*
X110853457Y-72883149D01*
X110853457Y-72883149D02*
X110682028Y-72997434D01*
X110682028Y-72997434D02*
X110453457Y-73054577D01*
X110453457Y-73054577D02*
X109996314Y-73054577D01*
X109996314Y-73054577D02*
X109882028Y-72997434D01*
X109882028Y-72997434D02*
X109824885Y-72940292D01*
X109824885Y-72940292D02*
X109767742Y-72826006D01*
X109767742Y-72826006D02*
X109767742Y-72597434D01*
X109767742Y-72597434D02*
X109824885Y-72483149D01*
X109824885Y-72483149D02*
X109882028Y-72426006D01*
X109882028Y-72426006D02*
X109996314Y-72368863D01*
X109996314Y-72368863D02*
X110282028Y-72368863D01*
X110282028Y-72368863D02*
X110396314Y-72426006D01*
X110396314Y-72426006D02*
X110453457Y-72483149D01*
X110453457Y-72483149D02*
X110510600Y-72597434D01*
X110510600Y-72597434D02*
X110510600Y-72826006D01*
X110510600Y-72826006D02*
X110453457Y-72940292D01*
X110453457Y-72940292D02*
X110396314Y-72997434D01*
X110396314Y-72997434D02*
X110282028Y-73054577D01*
X110967742Y-73568863D02*
X109767742Y-73568863D01*
X109767742Y-73568863D02*
X110624885Y-73968863D01*
X110624885Y-73968863D02*
X109767742Y-74368863D01*
X109767742Y-74368863D02*
X110967742Y-74368863D01*
X109767742Y-74826006D02*
X109767742Y-75626006D01*
X109767742Y-75626006D02*
X110967742Y-74826006D01*
X110967742Y-74826006D02*
X110967742Y-75626006D01*
D11*
X108581819Y-70488350D02*
X107581819Y-70488350D01*
X108534200Y-70488350D02*
X108581819Y-70393112D01*
X108581819Y-70393112D02*
X108581819Y-70202636D01*
X108581819Y-70202636D02*
X108534200Y-70107398D01*
X108534200Y-70107398D02*
X108486580Y-70059779D01*
X108486580Y-70059779D02*
X108391342Y-70012160D01*
X108391342Y-70012160D02*
X108105628Y-70012160D01*
X108105628Y-70012160D02*
X108010390Y-70059779D01*
X108010390Y-70059779D02*
X107962771Y-70107398D01*
X107962771Y-70107398D02*
X107915152Y-70202636D01*
X107915152Y-70202636D02*
X107915152Y-70393112D01*
X107915152Y-70393112D02*
X107962771Y-70488350D01*
X108534200Y-71345493D02*
X108581819Y-71250255D01*
X108581819Y-71250255D02*
X108581819Y-71059779D01*
X108581819Y-71059779D02*
X108534200Y-70964541D01*
X108534200Y-70964541D02*
X108438961Y-70916922D01*
X108438961Y-70916922D02*
X108058009Y-70916922D01*
X108058009Y-70916922D02*
X107962771Y-70964541D01*
X107962771Y-70964541D02*
X107915152Y-71059779D01*
X107915152Y-71059779D02*
X107915152Y-71250255D01*
X107915152Y-71250255D02*
X107962771Y-71345493D01*
X107962771Y-71345493D02*
X108058009Y-71393112D01*
X108058009Y-71393112D02*
X108153247Y-71393112D01*
X108153247Y-71393112D02*
X108248485Y-70916922D01*
X108534200Y-71774065D02*
X108581819Y-71869303D01*
X108581819Y-71869303D02*
X108581819Y-72059779D01*
X108581819Y-72059779D02*
X108534200Y-72155017D01*
X108534200Y-72155017D02*
X108438961Y-72202636D01*
X108438961Y-72202636D02*
X108391342Y-72202636D01*
X108391342Y-72202636D02*
X108296104Y-72155017D01*
X108296104Y-72155017D02*
X108248485Y-72059779D01*
X108248485Y-72059779D02*
X108248485Y-71916922D01*
X108248485Y-71916922D02*
X108200866Y-71821684D01*
X108200866Y-71821684D02*
X108105628Y-71774065D01*
X108105628Y-71774065D02*
X108058009Y-71774065D01*
X108058009Y-71774065D02*
X107962771Y-71821684D01*
X107962771Y-71821684D02*
X107915152Y-71916922D01*
X107915152Y-71916922D02*
X107915152Y-72059779D01*
X107915152Y-72059779D02*
X107962771Y-72155017D01*
X108581819Y-72631208D02*
X107915152Y-72631208D01*
X107581819Y-72631208D02*
X107629438Y-72583589D01*
X107629438Y-72583589D02*
X107677057Y-72631208D01*
X107677057Y-72631208D02*
X107629438Y-72678827D01*
X107629438Y-72678827D02*
X107581819Y-72631208D01*
X107581819Y-72631208D02*
X107677057Y-72631208D01*
X107915152Y-73535969D02*
X108724676Y-73535969D01*
X108724676Y-73535969D02*
X108819914Y-73488350D01*
X108819914Y-73488350D02*
X108867533Y-73440731D01*
X108867533Y-73440731D02*
X108915152Y-73345493D01*
X108915152Y-73345493D02*
X108915152Y-73202636D01*
X108915152Y-73202636D02*
X108867533Y-73107398D01*
X108534200Y-73535969D02*
X108581819Y-73440731D01*
X108581819Y-73440731D02*
X108581819Y-73250255D01*
X108581819Y-73250255D02*
X108534200Y-73155017D01*
X108534200Y-73155017D02*
X108486580Y-73107398D01*
X108486580Y-73107398D02*
X108391342Y-73059779D01*
X108391342Y-73059779D02*
X108105628Y-73059779D01*
X108105628Y-73059779D02*
X108010390Y-73107398D01*
X108010390Y-73107398D02*
X107962771Y-73155017D01*
X107962771Y-73155017D02*
X107915152Y-73250255D01*
X107915152Y-73250255D02*
X107915152Y-73440731D01*
X107915152Y-73440731D02*
X107962771Y-73535969D01*
X107915152Y-74012160D02*
X108581819Y-74012160D01*
X108010390Y-74012160D02*
X107962771Y-74059779D01*
X107962771Y-74059779D02*
X107915152Y-74155017D01*
X107915152Y-74155017D02*
X107915152Y-74297874D01*
X107915152Y-74297874D02*
X107962771Y-74393112D01*
X107962771Y-74393112D02*
X108058009Y-74440731D01*
X108058009Y-74440731D02*
X108581819Y-74440731D01*
X108534200Y-75297874D02*
X108581819Y-75202636D01*
X108581819Y-75202636D02*
X108581819Y-75012160D01*
X108581819Y-75012160D02*
X108534200Y-74916922D01*
X108534200Y-74916922D02*
X108438961Y-74869303D01*
X108438961Y-74869303D02*
X108058009Y-74869303D01*
X108058009Y-74869303D02*
X107962771Y-74916922D01*
X107962771Y-74916922D02*
X107915152Y-75012160D01*
X107915152Y-75012160D02*
X107915152Y-75202636D01*
X107915152Y-75202636D02*
X107962771Y-75297874D01*
X107962771Y-75297874D02*
X108058009Y-75345493D01*
X108058009Y-75345493D02*
X108153247Y-75345493D01*
X108153247Y-75345493D02*
X108248485Y-74869303D01*
X108581819Y-76202636D02*
X107581819Y-76202636D01*
X108534200Y-76202636D02*
X108581819Y-76107398D01*
X108581819Y-76107398D02*
X108581819Y-75916922D01*
X108581819Y-75916922D02*
X108534200Y-75821684D01*
X108534200Y-75821684D02*
X108486580Y-75774065D01*
X108486580Y-75774065D02*
X108391342Y-75726446D01*
X108391342Y-75726446D02*
X108105628Y-75726446D01*
X108105628Y-75726446D02*
X108010390Y-75774065D01*
X108010390Y-75774065D02*
X107962771Y-75821684D01*
X107962771Y-75821684D02*
X107915152Y-75916922D01*
X107915152Y-75916922D02*
X107915152Y-76107398D01*
X107915152Y-76107398D02*
X107962771Y-76202636D01*
X108581819Y-77440732D02*
X107581819Y-77440732D01*
X107962771Y-77440732D02*
X107915152Y-77535970D01*
X107915152Y-77535970D02*
X107915152Y-77726446D01*
X107915152Y-77726446D02*
X107962771Y-77821684D01*
X107962771Y-77821684D02*
X108010390Y-77869303D01*
X108010390Y-77869303D02*
X108105628Y-77916922D01*
X108105628Y-77916922D02*
X108391342Y-77916922D01*
X108391342Y-77916922D02*
X108486580Y-77869303D01*
X108486580Y-77869303D02*
X108534200Y-77821684D01*
X108534200Y-77821684D02*
X108581819Y-77726446D01*
X108581819Y-77726446D02*
X108581819Y-77535970D01*
X108581819Y-77535970D02*
X108534200Y-77440732D01*
X107915152Y-78250256D02*
X108581819Y-78488351D01*
X107915152Y-78726446D02*
X108581819Y-78488351D01*
X108581819Y-78488351D02*
X108819914Y-78393113D01*
X108819914Y-78393113D02*
X108867533Y-78345494D01*
X108867533Y-78345494D02*
X108915152Y-78250256D01*
X115448580Y-69956588D02*
X114348580Y-69956588D01*
X114348580Y-69956588D02*
X114348580Y-70375636D01*
X114348580Y-70375636D02*
X114400961Y-70480398D01*
X114400961Y-70480398D02*
X114453342Y-70532779D01*
X114453342Y-70532779D02*
X114558104Y-70585160D01*
X114558104Y-70585160D02*
X114715247Y-70585160D01*
X114715247Y-70585160D02*
X114820009Y-70532779D01*
X114820009Y-70532779D02*
X114872390Y-70480398D01*
X114872390Y-70480398D02*
X114924771Y-70375636D01*
X114924771Y-70375636D02*
X114924771Y-69956588D01*
X115448580Y-71056588D02*
X114348580Y-71056588D01*
X114348580Y-71056588D02*
X115134295Y-71423255D01*
X115134295Y-71423255D02*
X114348580Y-71789922D01*
X114348580Y-71789922D02*
X115448580Y-71789922D01*
X114348580Y-72523255D02*
X114348580Y-72732779D01*
X114348580Y-72732779D02*
X114400961Y-72837541D01*
X114400961Y-72837541D02*
X114505723Y-72942303D01*
X114505723Y-72942303D02*
X114715247Y-72994684D01*
X114715247Y-72994684D02*
X115081914Y-72994684D01*
X115081914Y-72994684D02*
X115291438Y-72942303D01*
X115291438Y-72942303D02*
X115396200Y-72837541D01*
X115396200Y-72837541D02*
X115448580Y-72732779D01*
X115448580Y-72732779D02*
X115448580Y-72523255D01*
X115448580Y-72523255D02*
X115396200Y-72418493D01*
X115396200Y-72418493D02*
X115291438Y-72313731D01*
X115291438Y-72313731D02*
X115081914Y-72261350D01*
X115081914Y-72261350D02*
X114715247Y-72261350D01*
X114715247Y-72261350D02*
X114505723Y-72313731D01*
X114505723Y-72313731D02*
X114400961Y-72418493D01*
X114400961Y-72418493D02*
X114348580Y-72523255D01*
X115448580Y-73466112D02*
X114348580Y-73466112D01*
X114348580Y-73466112D02*
X114348580Y-73728017D01*
X114348580Y-73728017D02*
X114400961Y-73885160D01*
X114400961Y-73885160D02*
X114505723Y-73989922D01*
X114505723Y-73989922D02*
X114610485Y-74042303D01*
X114610485Y-74042303D02*
X114820009Y-74094684D01*
X114820009Y-74094684D02*
X114977152Y-74094684D01*
X114977152Y-74094684D02*
X115186676Y-74042303D01*
X115186676Y-74042303D02*
X115291438Y-73989922D01*
X115291438Y-73989922D02*
X115396200Y-73885160D01*
X115396200Y-73885160D02*
X115448580Y-73728017D01*
X115448580Y-73728017D02*
X115448580Y-73466112D01*
X115029533Y-74566112D02*
X115029533Y-75404208D01*
X114872390Y-76294684D02*
X114924771Y-76451827D01*
X114924771Y-76451827D02*
X114977152Y-76504208D01*
X114977152Y-76504208D02*
X115081914Y-76556589D01*
X115081914Y-76556589D02*
X115239057Y-76556589D01*
X115239057Y-76556589D02*
X115343819Y-76504208D01*
X115343819Y-76504208D02*
X115396200Y-76451827D01*
X115396200Y-76451827D02*
X115448580Y-76347065D01*
X115448580Y-76347065D02*
X115448580Y-75928017D01*
X115448580Y-75928017D02*
X114348580Y-75928017D01*
X114348580Y-75928017D02*
X114348580Y-76294684D01*
X114348580Y-76294684D02*
X114400961Y-76399446D01*
X114400961Y-76399446D02*
X114453342Y-76451827D01*
X114453342Y-76451827D02*
X114558104Y-76504208D01*
X114558104Y-76504208D02*
X114662866Y-76504208D01*
X114662866Y-76504208D02*
X114767628Y-76451827D01*
X114767628Y-76451827D02*
X114820009Y-76399446D01*
X114820009Y-76399446D02*
X114872390Y-76294684D01*
X114872390Y-76294684D02*
X114872390Y-75928017D01*
X115448580Y-77551827D02*
X115448580Y-77028017D01*
X115448580Y-77028017D02*
X114348580Y-77028017D01*
X115448580Y-77918493D02*
X114348580Y-77918493D01*
X114348580Y-77918493D02*
X114348580Y-78180398D01*
X114348580Y-78180398D02*
X114400961Y-78337541D01*
X114400961Y-78337541D02*
X114505723Y-78442303D01*
X114505723Y-78442303D02*
X114610485Y-78494684D01*
X114610485Y-78494684D02*
X114820009Y-78547065D01*
X114820009Y-78547065D02*
X114977152Y-78547065D01*
X114977152Y-78547065D02*
X115186676Y-78494684D01*
X115186676Y-78494684D02*
X115291438Y-78442303D01*
X115291438Y-78442303D02*
X115396200Y-78337541D01*
X115396200Y-78337541D02*
X115448580Y-78180398D01*
X115448580Y-78180398D02*
X115448580Y-77918493D01*
X115343819Y-79647065D02*
X115396200Y-79594684D01*
X115396200Y-79594684D02*
X115448580Y-79437541D01*
X115448580Y-79437541D02*
X115448580Y-79332779D01*
X115448580Y-79332779D02*
X115396200Y-79175636D01*
X115396200Y-79175636D02*
X115291438Y-79070874D01*
X115291438Y-79070874D02*
X115186676Y-79018493D01*
X115186676Y-79018493D02*
X114977152Y-78966112D01*
X114977152Y-78966112D02*
X114820009Y-78966112D01*
X114820009Y-78966112D02*
X114610485Y-79018493D01*
X114610485Y-79018493D02*
X114505723Y-79070874D01*
X114505723Y-79070874D02*
X114400961Y-79175636D01*
X114400961Y-79175636D02*
X114348580Y-79332779D01*
X114348580Y-79332779D02*
X114348580Y-79437541D01*
X114348580Y-79437541D02*
X114400961Y-79594684D01*
X114400961Y-79594684D02*
X114453342Y-79647065D01*
X117219580Y-69956588D02*
X116119580Y-69956588D01*
X116119580Y-69956588D02*
X116905295Y-70323255D01*
X116905295Y-70323255D02*
X116119580Y-70689922D01*
X116119580Y-70689922D02*
X117219580Y-70689922D01*
X117219580Y-71370874D02*
X117167200Y-71266112D01*
X117167200Y-71266112D02*
X117114819Y-71213731D01*
X117114819Y-71213731D02*
X117010057Y-71161350D01*
X117010057Y-71161350D02*
X116695771Y-71161350D01*
X116695771Y-71161350D02*
X116591009Y-71213731D01*
X116591009Y-71213731D02*
X116538628Y-71266112D01*
X116538628Y-71266112D02*
X116486247Y-71370874D01*
X116486247Y-71370874D02*
X116486247Y-71528017D01*
X116486247Y-71528017D02*
X116538628Y-71632779D01*
X116538628Y-71632779D02*
X116591009Y-71685160D01*
X116591009Y-71685160D02*
X116695771Y-71737541D01*
X116695771Y-71737541D02*
X117010057Y-71737541D01*
X117010057Y-71737541D02*
X117114819Y-71685160D01*
X117114819Y-71685160D02*
X117167200Y-71632779D01*
X117167200Y-71632779D02*
X117219580Y-71528017D01*
X117219580Y-71528017D02*
X117219580Y-71370874D01*
X116486247Y-72051826D02*
X116486247Y-72470874D01*
X116119580Y-72208969D02*
X117062438Y-72208969D01*
X117062438Y-72208969D02*
X117167200Y-72261350D01*
X117167200Y-72261350D02*
X117219580Y-72366112D01*
X117219580Y-72366112D02*
X117219580Y-72470874D01*
X117219580Y-72994683D02*
X117167200Y-72889921D01*
X117167200Y-72889921D02*
X117114819Y-72837540D01*
X117114819Y-72837540D02*
X117010057Y-72785159D01*
X117010057Y-72785159D02*
X116695771Y-72785159D01*
X116695771Y-72785159D02*
X116591009Y-72837540D01*
X116591009Y-72837540D02*
X116538628Y-72889921D01*
X116538628Y-72889921D02*
X116486247Y-72994683D01*
X116486247Y-72994683D02*
X116486247Y-73151826D01*
X116486247Y-73151826D02*
X116538628Y-73256588D01*
X116538628Y-73256588D02*
X116591009Y-73308969D01*
X116591009Y-73308969D02*
X116695771Y-73361350D01*
X116695771Y-73361350D02*
X117010057Y-73361350D01*
X117010057Y-73361350D02*
X117114819Y-73308969D01*
X117114819Y-73308969D02*
X117167200Y-73256588D01*
X117167200Y-73256588D02*
X117219580Y-73151826D01*
X117219580Y-73151826D02*
X117219580Y-72994683D01*
X117219580Y-73832778D02*
X116486247Y-73832778D01*
X116695771Y-73832778D02*
X116591009Y-73885159D01*
X116591009Y-73885159D02*
X116538628Y-73937540D01*
X116538628Y-73937540D02*
X116486247Y-74042302D01*
X116486247Y-74042302D02*
X116486247Y-74147064D01*
X117114819Y-75980397D02*
X117167200Y-75928016D01*
X117167200Y-75928016D02*
X117219580Y-75770873D01*
X117219580Y-75770873D02*
X117219580Y-75666111D01*
X117219580Y-75666111D02*
X117167200Y-75508968D01*
X117167200Y-75508968D02*
X117062438Y-75404206D01*
X117062438Y-75404206D02*
X116957676Y-75351825D01*
X116957676Y-75351825D02*
X116748152Y-75299444D01*
X116748152Y-75299444D02*
X116591009Y-75299444D01*
X116591009Y-75299444D02*
X116381485Y-75351825D01*
X116381485Y-75351825D02*
X116276723Y-75404206D01*
X116276723Y-75404206D02*
X116171961Y-75508968D01*
X116171961Y-75508968D02*
X116119580Y-75666111D01*
X116119580Y-75666111D02*
X116119580Y-75770873D01*
X116119580Y-75770873D02*
X116171961Y-75928016D01*
X116171961Y-75928016D02*
X116224342Y-75980397D01*
X117219580Y-76608968D02*
X117167200Y-76504206D01*
X117167200Y-76504206D02*
X117114819Y-76451825D01*
X117114819Y-76451825D02*
X117010057Y-76399444D01*
X117010057Y-76399444D02*
X116695771Y-76399444D01*
X116695771Y-76399444D02*
X116591009Y-76451825D01*
X116591009Y-76451825D02*
X116538628Y-76504206D01*
X116538628Y-76504206D02*
X116486247Y-76608968D01*
X116486247Y-76608968D02*
X116486247Y-76766111D01*
X116486247Y-76766111D02*
X116538628Y-76870873D01*
X116538628Y-76870873D02*
X116591009Y-76923254D01*
X116591009Y-76923254D02*
X116695771Y-76975635D01*
X116695771Y-76975635D02*
X117010057Y-76975635D01*
X117010057Y-76975635D02*
X117114819Y-76923254D01*
X117114819Y-76923254D02*
X117167200Y-76870873D01*
X117167200Y-76870873D02*
X117219580Y-76766111D01*
X117219580Y-76766111D02*
X117219580Y-76608968D01*
X116486247Y-77447063D02*
X117219580Y-77447063D01*
X116591009Y-77447063D02*
X116538628Y-77499444D01*
X116538628Y-77499444D02*
X116486247Y-77604206D01*
X116486247Y-77604206D02*
X116486247Y-77761349D01*
X116486247Y-77761349D02*
X116538628Y-77866111D01*
X116538628Y-77866111D02*
X116643390Y-77918492D01*
X116643390Y-77918492D02*
X117219580Y-77918492D01*
X116486247Y-78285158D02*
X116486247Y-78704206D01*
X116119580Y-78442301D02*
X117062438Y-78442301D01*
X117062438Y-78442301D02*
X117167200Y-78494682D01*
X117167200Y-78494682D02*
X117219580Y-78599444D01*
X117219580Y-78599444D02*
X117219580Y-78704206D01*
X117219580Y-79070872D02*
X116486247Y-79070872D01*
X116695771Y-79070872D02*
X116591009Y-79123253D01*
X116591009Y-79123253D02*
X116538628Y-79175634D01*
X116538628Y-79175634D02*
X116486247Y-79280396D01*
X116486247Y-79280396D02*
X116486247Y-79385158D01*
X117219580Y-79908967D02*
X117167200Y-79804205D01*
X117167200Y-79804205D02*
X117114819Y-79751824D01*
X117114819Y-79751824D02*
X117010057Y-79699443D01*
X117010057Y-79699443D02*
X116695771Y-79699443D01*
X116695771Y-79699443D02*
X116591009Y-79751824D01*
X116591009Y-79751824D02*
X116538628Y-79804205D01*
X116538628Y-79804205D02*
X116486247Y-79908967D01*
X116486247Y-79908967D02*
X116486247Y-80066110D01*
X116486247Y-80066110D02*
X116538628Y-80170872D01*
X116538628Y-80170872D02*
X116591009Y-80223253D01*
X116591009Y-80223253D02*
X116695771Y-80275634D01*
X116695771Y-80275634D02*
X117010057Y-80275634D01*
X117010057Y-80275634D02*
X117114819Y-80223253D01*
X117114819Y-80223253D02*
X117167200Y-80170872D01*
X117167200Y-80170872D02*
X117219580Y-80066110D01*
X117219580Y-80066110D02*
X117219580Y-79908967D01*
X117219580Y-80904205D02*
X117167200Y-80799443D01*
X117167200Y-80799443D02*
X117062438Y-80747062D01*
X117062438Y-80747062D02*
X116119580Y-80747062D01*
X117219580Y-81480395D02*
X117167200Y-81375633D01*
X117167200Y-81375633D02*
X117062438Y-81323252D01*
X117062438Y-81323252D02*
X116119580Y-81323252D01*
X117167200Y-82318490D02*
X117219580Y-82213728D01*
X117219580Y-82213728D02*
X117219580Y-82004204D01*
X117219580Y-82004204D02*
X117167200Y-81899442D01*
X117167200Y-81899442D02*
X117062438Y-81847061D01*
X117062438Y-81847061D02*
X116643390Y-81847061D01*
X116643390Y-81847061D02*
X116538628Y-81899442D01*
X116538628Y-81899442D02*
X116486247Y-82004204D01*
X116486247Y-82004204D02*
X116486247Y-82213728D01*
X116486247Y-82213728D02*
X116538628Y-82318490D01*
X116538628Y-82318490D02*
X116643390Y-82370871D01*
X116643390Y-82370871D02*
X116748152Y-82370871D01*
X116748152Y-82370871D02*
X116852914Y-81847061D01*
X117219580Y-82842299D02*
X116486247Y-82842299D01*
X116695771Y-82842299D02*
X116591009Y-82894680D01*
X116591009Y-82894680D02*
X116538628Y-82947061D01*
X116538628Y-82947061D02*
X116486247Y-83051823D01*
X116486247Y-83051823D02*
X116486247Y-83156585D01*
X118990580Y-69956588D02*
X117890580Y-69956588D01*
X117890580Y-69956588D02*
X117890580Y-70218493D01*
X117890580Y-70218493D02*
X117942961Y-70375636D01*
X117942961Y-70375636D02*
X118047723Y-70480398D01*
X118047723Y-70480398D02*
X118152485Y-70532779D01*
X118152485Y-70532779D02*
X118362009Y-70585160D01*
X118362009Y-70585160D02*
X118519152Y-70585160D01*
X118519152Y-70585160D02*
X118728676Y-70532779D01*
X118728676Y-70532779D02*
X118833438Y-70480398D01*
X118833438Y-70480398D02*
X118938200Y-70375636D01*
X118938200Y-70375636D02*
X118990580Y-70218493D01*
X118990580Y-70218493D02*
X118990580Y-69956588D01*
X118990580Y-71685160D02*
X118466771Y-71318493D01*
X118990580Y-71056588D02*
X117890580Y-71056588D01*
X117890580Y-71056588D02*
X117890580Y-71475636D01*
X117890580Y-71475636D02*
X117942961Y-71580398D01*
X117942961Y-71580398D02*
X117995342Y-71632779D01*
X117995342Y-71632779D02*
X118100104Y-71685160D01*
X118100104Y-71685160D02*
X118257247Y-71685160D01*
X118257247Y-71685160D02*
X118362009Y-71632779D01*
X118362009Y-71632779D02*
X118414390Y-71580398D01*
X118414390Y-71580398D02*
X118466771Y-71475636D01*
X118466771Y-71475636D02*
X118466771Y-71056588D01*
X117890580Y-71999445D02*
X118990580Y-72366112D01*
X118990580Y-72366112D02*
X117890580Y-72732779D01*
X118990580Y-73675636D02*
X118990580Y-73047064D01*
X118990580Y-73361350D02*
X117890580Y-73361350D01*
X117890580Y-73361350D02*
X118047723Y-73256588D01*
X118047723Y-73256588D02*
X118152485Y-73151826D01*
X118152485Y-73151826D02*
X118204866Y-73047064D01*
X117890580Y-74356588D02*
X117890580Y-74461350D01*
X117890580Y-74461350D02*
X117942961Y-74566112D01*
X117942961Y-74566112D02*
X117995342Y-74618493D01*
X117995342Y-74618493D02*
X118100104Y-74670874D01*
X118100104Y-74670874D02*
X118309628Y-74723255D01*
X118309628Y-74723255D02*
X118571533Y-74723255D01*
X118571533Y-74723255D02*
X118781057Y-74670874D01*
X118781057Y-74670874D02*
X118885819Y-74618493D01*
X118885819Y-74618493D02*
X118938200Y-74566112D01*
X118938200Y-74566112D02*
X118990580Y-74461350D01*
X118990580Y-74461350D02*
X118990580Y-74356588D01*
X118990580Y-74356588D02*
X118938200Y-74251826D01*
X118938200Y-74251826D02*
X118885819Y-74199445D01*
X118885819Y-74199445D02*
X118781057Y-74147064D01*
X118781057Y-74147064D02*
X118571533Y-74094683D01*
X118571533Y-74094683D02*
X118309628Y-74094683D01*
X118309628Y-74094683D02*
X118100104Y-74147064D01*
X118100104Y-74147064D02*
X117995342Y-74199445D01*
X117995342Y-74199445D02*
X117942961Y-74251826D01*
X117942961Y-74251826D02*
X117890580Y-74356588D01*
X118990580Y-75247064D02*
X118990580Y-75456588D01*
X118990580Y-75456588D02*
X118938200Y-75561350D01*
X118938200Y-75561350D02*
X118885819Y-75613731D01*
X118885819Y-75613731D02*
X118728676Y-75718493D01*
X118728676Y-75718493D02*
X118519152Y-75770874D01*
X118519152Y-75770874D02*
X118100104Y-75770874D01*
X118100104Y-75770874D02*
X117995342Y-75718493D01*
X117995342Y-75718493D02*
X117942961Y-75666112D01*
X117942961Y-75666112D02*
X117890580Y-75561350D01*
X117890580Y-75561350D02*
X117890580Y-75351826D01*
X117890580Y-75351826D02*
X117942961Y-75247064D01*
X117942961Y-75247064D02*
X117995342Y-75194683D01*
X117995342Y-75194683D02*
X118100104Y-75142302D01*
X118100104Y-75142302D02*
X118362009Y-75142302D01*
X118362009Y-75142302D02*
X118466771Y-75194683D01*
X118466771Y-75194683D02*
X118519152Y-75247064D01*
X118519152Y-75247064D02*
X118571533Y-75351826D01*
X118571533Y-75351826D02*
X118571533Y-75561350D01*
X118571533Y-75561350D02*
X118519152Y-75666112D01*
X118519152Y-75666112D02*
X118466771Y-75718493D01*
X118466771Y-75718493D02*
X118362009Y-75770874D01*
X118362009Y-76399445D02*
X118309628Y-76294683D01*
X118309628Y-76294683D02*
X118257247Y-76242302D01*
X118257247Y-76242302D02*
X118152485Y-76189921D01*
X118152485Y-76189921D02*
X118100104Y-76189921D01*
X118100104Y-76189921D02*
X117995342Y-76242302D01*
X117995342Y-76242302D02*
X117942961Y-76294683D01*
X117942961Y-76294683D02*
X117890580Y-76399445D01*
X117890580Y-76399445D02*
X117890580Y-76608969D01*
X117890580Y-76608969D02*
X117942961Y-76713731D01*
X117942961Y-76713731D02*
X117995342Y-76766112D01*
X117995342Y-76766112D02*
X118100104Y-76818493D01*
X118100104Y-76818493D02*
X118152485Y-76818493D01*
X118152485Y-76818493D02*
X118257247Y-76766112D01*
X118257247Y-76766112D02*
X118309628Y-76713731D01*
X118309628Y-76713731D02*
X118362009Y-76608969D01*
X118362009Y-76608969D02*
X118362009Y-76399445D01*
X118362009Y-76399445D02*
X118414390Y-76294683D01*
X118414390Y-76294683D02*
X118466771Y-76242302D01*
X118466771Y-76242302D02*
X118571533Y-76189921D01*
X118571533Y-76189921D02*
X118781057Y-76189921D01*
X118781057Y-76189921D02*
X118885819Y-76242302D01*
X118885819Y-76242302D02*
X118938200Y-76294683D01*
X118938200Y-76294683D02*
X118990580Y-76399445D01*
X118990580Y-76399445D02*
X118990580Y-76608969D01*
X118990580Y-76608969D02*
X118938200Y-76713731D01*
X118938200Y-76713731D02*
X118885819Y-76766112D01*
X118885819Y-76766112D02*
X118781057Y-76818493D01*
X118781057Y-76818493D02*
X118571533Y-76818493D01*
X118571533Y-76818493D02*
X118466771Y-76766112D01*
X118466771Y-76766112D02*
X118414390Y-76713731D01*
X118414390Y-76713731D02*
X118362009Y-76608969D01*
X117890580Y-77185159D02*
X117890580Y-77866112D01*
X117890580Y-77866112D02*
X118309628Y-77499445D01*
X118309628Y-77499445D02*
X118309628Y-77656588D01*
X118309628Y-77656588D02*
X118362009Y-77761350D01*
X118362009Y-77761350D02*
X118414390Y-77813731D01*
X118414390Y-77813731D02*
X118519152Y-77866112D01*
X118519152Y-77866112D02*
X118781057Y-77866112D01*
X118781057Y-77866112D02*
X118885819Y-77813731D01*
X118885819Y-77813731D02*
X118938200Y-77761350D01*
X118938200Y-77761350D02*
X118990580Y-77656588D01*
X118990580Y-77656588D02*
X118990580Y-77342302D01*
X118990580Y-77342302D02*
X118938200Y-77237540D01*
X118938200Y-77237540D02*
X118885819Y-77185159D01*
X119661580Y-69799445D02*
X120761580Y-70166112D01*
X120761580Y-70166112D02*
X119661580Y-70532779D01*
X120761580Y-71475636D02*
X120761580Y-70847064D01*
X120761580Y-71161350D02*
X119661580Y-71161350D01*
X119661580Y-71161350D02*
X119818723Y-71056588D01*
X119818723Y-71056588D02*
X119923485Y-70951826D01*
X119923485Y-70951826D02*
X119975866Y-70847064D01*
X120656819Y-71947064D02*
X120709200Y-71999445D01*
X120709200Y-71999445D02*
X120761580Y-71947064D01*
X120761580Y-71947064D02*
X120709200Y-71894683D01*
X120709200Y-71894683D02*
X120656819Y-71947064D01*
X120656819Y-71947064D02*
X120761580Y-71947064D01*
X119661580Y-72680398D02*
X119661580Y-72785160D01*
X119661580Y-72785160D02*
X119713961Y-72889922D01*
X119713961Y-72889922D02*
X119766342Y-72942303D01*
X119766342Y-72942303D02*
X119871104Y-72994684D01*
X119871104Y-72994684D02*
X120080628Y-73047065D01*
X120080628Y-73047065D02*
X120342533Y-73047065D01*
X120342533Y-73047065D02*
X120552057Y-72994684D01*
X120552057Y-72994684D02*
X120656819Y-72942303D01*
X120656819Y-72942303D02*
X120709200Y-72889922D01*
X120709200Y-72889922D02*
X120761580Y-72785160D01*
X120761580Y-72785160D02*
X120761580Y-72680398D01*
X120761580Y-72680398D02*
X120709200Y-72575636D01*
X120709200Y-72575636D02*
X120656819Y-72523255D01*
X120656819Y-72523255D02*
X120552057Y-72470874D01*
X120552057Y-72470874D02*
X120342533Y-72418493D01*
X120342533Y-72418493D02*
X120080628Y-72418493D01*
X120080628Y-72418493D02*
X119871104Y-72470874D01*
X119871104Y-72470874D02*
X119766342Y-72523255D01*
X119766342Y-72523255D02*
X119713961Y-72575636D01*
X119713961Y-72575636D02*
X119661580Y-72680398D01*
X120342533Y-73518493D02*
X120342533Y-74356589D01*
X120761580Y-75456589D02*
X120761580Y-74828017D01*
X120761580Y-75142303D02*
X119661580Y-75142303D01*
X119661580Y-75142303D02*
X119818723Y-75037541D01*
X119818723Y-75037541D02*
X119923485Y-74932779D01*
X119923485Y-74932779D02*
X119975866Y-74828017D01*
X120133009Y-76085160D02*
X120080628Y-75980398D01*
X120080628Y-75980398D02*
X120028247Y-75928017D01*
X120028247Y-75928017D02*
X119923485Y-75875636D01*
X119923485Y-75875636D02*
X119871104Y-75875636D01*
X119871104Y-75875636D02*
X119766342Y-75928017D01*
X119766342Y-75928017D02*
X119713961Y-75980398D01*
X119713961Y-75980398D02*
X119661580Y-76085160D01*
X119661580Y-76085160D02*
X119661580Y-76294684D01*
X119661580Y-76294684D02*
X119713961Y-76399446D01*
X119713961Y-76399446D02*
X119766342Y-76451827D01*
X119766342Y-76451827D02*
X119871104Y-76504208D01*
X119871104Y-76504208D02*
X119923485Y-76504208D01*
X119923485Y-76504208D02*
X120028247Y-76451827D01*
X120028247Y-76451827D02*
X120080628Y-76399446D01*
X120080628Y-76399446D02*
X120133009Y-76294684D01*
X120133009Y-76294684D02*
X120133009Y-76085160D01*
X120133009Y-76085160D02*
X120185390Y-75980398D01*
X120185390Y-75980398D02*
X120237771Y-75928017D01*
X120237771Y-75928017D02*
X120342533Y-75875636D01*
X120342533Y-75875636D02*
X120552057Y-75875636D01*
X120552057Y-75875636D02*
X120656819Y-75928017D01*
X120656819Y-75928017D02*
X120709200Y-75980398D01*
X120709200Y-75980398D02*
X120761580Y-76085160D01*
X120761580Y-76085160D02*
X120761580Y-76294684D01*
X120761580Y-76294684D02*
X120709200Y-76399446D01*
X120709200Y-76399446D02*
X120656819Y-76451827D01*
X120656819Y-76451827D02*
X120552057Y-76504208D01*
X120552057Y-76504208D02*
X120342533Y-76504208D01*
X120342533Y-76504208D02*
X120237771Y-76451827D01*
X120237771Y-76451827D02*
X120185390Y-76399446D01*
X120185390Y-76399446D02*
X120133009Y-76294684D01*
X120656819Y-76975636D02*
X120709200Y-77028017D01*
X120709200Y-77028017D02*
X120761580Y-76975636D01*
X120761580Y-76975636D02*
X120709200Y-76923255D01*
X120709200Y-76923255D02*
X120656819Y-76975636D01*
X120656819Y-76975636D02*
X120761580Y-76975636D01*
X119661580Y-77708970D02*
X119661580Y-77813732D01*
X119661580Y-77813732D02*
X119713961Y-77918494D01*
X119713961Y-77918494D02*
X119766342Y-77970875D01*
X119766342Y-77970875D02*
X119871104Y-78023256D01*
X119871104Y-78023256D02*
X120080628Y-78075637D01*
X120080628Y-78075637D02*
X120342533Y-78075637D01*
X120342533Y-78075637D02*
X120552057Y-78023256D01*
X120552057Y-78023256D02*
X120656819Y-77970875D01*
X120656819Y-77970875D02*
X120709200Y-77918494D01*
X120709200Y-77918494D02*
X120761580Y-77813732D01*
X120761580Y-77813732D02*
X120761580Y-77708970D01*
X120761580Y-77708970D02*
X120709200Y-77604208D01*
X120709200Y-77604208D02*
X120656819Y-77551827D01*
X120656819Y-77551827D02*
X120552057Y-77499446D01*
X120552057Y-77499446D02*
X120342533Y-77447065D01*
X120342533Y-77447065D02*
X120080628Y-77447065D01*
X120080628Y-77447065D02*
X119871104Y-77499446D01*
X119871104Y-77499446D02*
X119766342Y-77551827D01*
X119766342Y-77551827D02*
X119713961Y-77604208D01*
X119713961Y-77604208D02*
X119661580Y-77708970D01*
X120761580Y-79123256D02*
X120761580Y-78494684D01*
X120761580Y-78808970D02*
X119661580Y-78808970D01*
X119661580Y-78808970D02*
X119818723Y-78704208D01*
X119818723Y-78704208D02*
X119923485Y-78599446D01*
X119923485Y-78599446D02*
X119975866Y-78494684D01*
X120656819Y-79594684D02*
X120709200Y-79647065D01*
X120709200Y-79647065D02*
X120761580Y-79594684D01*
X120761580Y-79594684D02*
X120709200Y-79542303D01*
X120709200Y-79542303D02*
X120656819Y-79594684D01*
X120656819Y-79594684D02*
X120761580Y-79594684D01*
X119766342Y-80066113D02*
X119713961Y-80118494D01*
X119713961Y-80118494D02*
X119661580Y-80223256D01*
X119661580Y-80223256D02*
X119661580Y-80485161D01*
X119661580Y-80485161D02*
X119713961Y-80589923D01*
X119713961Y-80589923D02*
X119766342Y-80642304D01*
X119766342Y-80642304D02*
X119871104Y-80694685D01*
X119871104Y-80694685D02*
X119975866Y-80694685D01*
X119975866Y-80694685D02*
X120133009Y-80642304D01*
X120133009Y-80642304D02*
X120761580Y-80013732D01*
X120761580Y-80013732D02*
X120761580Y-80694685D01*
X119661580Y-81375637D02*
X119661580Y-81480399D01*
X119661580Y-81480399D02*
X119713961Y-81585161D01*
X119713961Y-81585161D02*
X119766342Y-81637542D01*
X119766342Y-81637542D02*
X119871104Y-81689923D01*
X119871104Y-81689923D02*
X120080628Y-81742304D01*
X120080628Y-81742304D02*
X120342533Y-81742304D01*
X120342533Y-81742304D02*
X120552057Y-81689923D01*
X120552057Y-81689923D02*
X120656819Y-81637542D01*
X120656819Y-81637542D02*
X120709200Y-81585161D01*
X120709200Y-81585161D02*
X120761580Y-81480399D01*
X120761580Y-81480399D02*
X120761580Y-81375637D01*
X120761580Y-81375637D02*
X120709200Y-81270875D01*
X120709200Y-81270875D02*
X120656819Y-81218494D01*
X120656819Y-81218494D02*
X120552057Y-81166113D01*
X120552057Y-81166113D02*
X120342533Y-81113732D01*
X120342533Y-81113732D02*
X120080628Y-81113732D01*
X120080628Y-81113732D02*
X119871104Y-81166113D01*
X119871104Y-81166113D02*
X119766342Y-81218494D01*
X119766342Y-81218494D02*
X119713961Y-81270875D01*
X119713961Y-81270875D02*
X119661580Y-81375637D01*
X119766342Y-82161351D02*
X119713961Y-82213732D01*
X119713961Y-82213732D02*
X119661580Y-82318494D01*
X119661580Y-82318494D02*
X119661580Y-82580399D01*
X119661580Y-82580399D02*
X119713961Y-82685161D01*
X119713961Y-82685161D02*
X119766342Y-82737542D01*
X119766342Y-82737542D02*
X119871104Y-82789923D01*
X119871104Y-82789923D02*
X119975866Y-82789923D01*
X119975866Y-82789923D02*
X120133009Y-82737542D01*
X120133009Y-82737542D02*
X120761580Y-82108970D01*
X120761580Y-82108970D02*
X120761580Y-82789923D01*
X120028247Y-83732780D02*
X120761580Y-83732780D01*
X119609200Y-83470875D02*
X120394914Y-83208970D01*
X120394914Y-83208970D02*
X120394914Y-83889923D01*
X107512295Y-63522333D02*
X107512295Y-63955666D01*
X107512295Y-63955666D02*
X107817057Y-63722333D01*
X107817057Y-63722333D02*
X107817057Y-63822333D01*
X107817057Y-63822333D02*
X107855152Y-63888999D01*
X107855152Y-63888999D02*
X107893247Y-63922333D01*
X107893247Y-63922333D02*
X107969438Y-63955666D01*
X107969438Y-63955666D02*
X108159914Y-63955666D01*
X108159914Y-63955666D02*
X108236104Y-63922333D01*
X108236104Y-63922333D02*
X108274200Y-63888999D01*
X108274200Y-63888999D02*
X108312295Y-63822333D01*
X108312295Y-63822333D02*
X108312295Y-63622333D01*
X108312295Y-63622333D02*
X108274200Y-63555666D01*
X108274200Y-63555666D02*
X108236104Y-63522333D01*
X107512295Y-64155666D02*
X108312295Y-64389000D01*
X108312295Y-64389000D02*
X107512295Y-64622333D01*
X107512295Y-64789000D02*
X107512295Y-65222333D01*
X107512295Y-65222333D02*
X107817057Y-64989000D01*
X107817057Y-64989000D02*
X107817057Y-65089000D01*
X107817057Y-65089000D02*
X107855152Y-65155666D01*
X107855152Y-65155666D02*
X107893247Y-65189000D01*
X107893247Y-65189000D02*
X107969438Y-65222333D01*
X107969438Y-65222333D02*
X108159914Y-65222333D01*
X108159914Y-65222333D02*
X108236104Y-65189000D01*
X108236104Y-65189000D02*
X108274200Y-65155666D01*
X108274200Y-65155666D02*
X108312295Y-65089000D01*
X108312295Y-65089000D02*
X108312295Y-64889000D01*
X108312295Y-64889000D02*
X108274200Y-64822333D01*
X108274200Y-64822333D02*
X108236104Y-64789000D01*
X107512295Y-60347333D02*
X107512295Y-60780666D01*
X107512295Y-60780666D02*
X107817057Y-60547333D01*
X107817057Y-60547333D02*
X107817057Y-60647333D01*
X107817057Y-60647333D02*
X107855152Y-60713999D01*
X107855152Y-60713999D02*
X107893247Y-60747333D01*
X107893247Y-60747333D02*
X107969438Y-60780666D01*
X107969438Y-60780666D02*
X108159914Y-60780666D01*
X108159914Y-60780666D02*
X108236104Y-60747333D01*
X108236104Y-60747333D02*
X108274200Y-60713999D01*
X108274200Y-60713999D02*
X108312295Y-60647333D01*
X108312295Y-60647333D02*
X108312295Y-60447333D01*
X108312295Y-60447333D02*
X108274200Y-60380666D01*
X108274200Y-60380666D02*
X108236104Y-60347333D01*
X107512295Y-60980666D02*
X108312295Y-61214000D01*
X108312295Y-61214000D02*
X107512295Y-61447333D01*
X107512295Y-61614000D02*
X107512295Y-62047333D01*
X107512295Y-62047333D02*
X107817057Y-61814000D01*
X107817057Y-61814000D02*
X107817057Y-61914000D01*
X107817057Y-61914000D02*
X107855152Y-61980666D01*
X107855152Y-61980666D02*
X107893247Y-62014000D01*
X107893247Y-62014000D02*
X107969438Y-62047333D01*
X107969438Y-62047333D02*
X108159914Y-62047333D01*
X108159914Y-62047333D02*
X108236104Y-62014000D01*
X108236104Y-62014000D02*
X108274200Y-61980666D01*
X108274200Y-61980666D02*
X108312295Y-61914000D01*
X108312295Y-61914000D02*
X108312295Y-61714000D01*
X108312295Y-61714000D02*
X108274200Y-61647333D01*
X108274200Y-61647333D02*
X108236104Y-61614000D01*
X110090390Y-63855667D02*
X110052295Y-63789000D01*
X110052295Y-63789000D02*
X110052295Y-63689000D01*
X110052295Y-63689000D02*
X110090390Y-63589000D01*
X110090390Y-63589000D02*
X110166580Y-63522334D01*
X110166580Y-63522334D02*
X110242771Y-63489000D01*
X110242771Y-63489000D02*
X110395152Y-63455667D01*
X110395152Y-63455667D02*
X110509438Y-63455667D01*
X110509438Y-63455667D02*
X110661819Y-63489000D01*
X110661819Y-63489000D02*
X110738009Y-63522334D01*
X110738009Y-63522334D02*
X110814200Y-63589000D01*
X110814200Y-63589000D02*
X110852295Y-63689000D01*
X110852295Y-63689000D02*
X110852295Y-63755667D01*
X110852295Y-63755667D02*
X110814200Y-63855667D01*
X110814200Y-63855667D02*
X110776104Y-63889000D01*
X110776104Y-63889000D02*
X110509438Y-63889000D01*
X110509438Y-63889000D02*
X110509438Y-63755667D01*
X110852295Y-64189000D02*
X110052295Y-64189000D01*
X110052295Y-64189000D02*
X110852295Y-64589000D01*
X110852295Y-64589000D02*
X110052295Y-64589000D01*
X110852295Y-64922333D02*
X110052295Y-64922333D01*
X110052295Y-64922333D02*
X110052295Y-65089000D01*
X110052295Y-65089000D02*
X110090390Y-65189000D01*
X110090390Y-65189000D02*
X110166580Y-65255667D01*
X110166580Y-65255667D02*
X110242771Y-65289000D01*
X110242771Y-65289000D02*
X110395152Y-65322333D01*
X110395152Y-65322333D02*
X110509438Y-65322333D01*
X110509438Y-65322333D02*
X110661819Y-65289000D01*
X110661819Y-65289000D02*
X110738009Y-65255667D01*
X110738009Y-65255667D02*
X110814200Y-65189000D01*
X110814200Y-65189000D02*
X110852295Y-65089000D01*
X110852295Y-65089000D02*
X110852295Y-64922333D01*
X110090390Y-60680667D02*
X110052295Y-60614000D01*
X110052295Y-60614000D02*
X110052295Y-60514000D01*
X110052295Y-60514000D02*
X110090390Y-60414000D01*
X110090390Y-60414000D02*
X110166580Y-60347334D01*
X110166580Y-60347334D02*
X110242771Y-60314000D01*
X110242771Y-60314000D02*
X110395152Y-60280667D01*
X110395152Y-60280667D02*
X110509438Y-60280667D01*
X110509438Y-60280667D02*
X110661819Y-60314000D01*
X110661819Y-60314000D02*
X110738009Y-60347334D01*
X110738009Y-60347334D02*
X110814200Y-60414000D01*
X110814200Y-60414000D02*
X110852295Y-60514000D01*
X110852295Y-60514000D02*
X110852295Y-60580667D01*
X110852295Y-60580667D02*
X110814200Y-60680667D01*
X110814200Y-60680667D02*
X110776104Y-60714000D01*
X110776104Y-60714000D02*
X110509438Y-60714000D01*
X110509438Y-60714000D02*
X110509438Y-60580667D01*
X110852295Y-61014000D02*
X110052295Y-61014000D01*
X110052295Y-61014000D02*
X110852295Y-61414000D01*
X110852295Y-61414000D02*
X110052295Y-61414000D01*
X110852295Y-61747333D02*
X110052295Y-61747333D01*
X110052295Y-61747333D02*
X110052295Y-61914000D01*
X110052295Y-61914000D02*
X110090390Y-62014000D01*
X110090390Y-62014000D02*
X110166580Y-62080667D01*
X110166580Y-62080667D02*
X110242771Y-62114000D01*
X110242771Y-62114000D02*
X110395152Y-62147333D01*
X110395152Y-62147333D02*
X110509438Y-62147333D01*
X110509438Y-62147333D02*
X110661819Y-62114000D01*
X110661819Y-62114000D02*
X110738009Y-62080667D01*
X110738009Y-62080667D02*
X110814200Y-62014000D01*
X110814200Y-62014000D02*
X110852295Y-61914000D01*
X110852295Y-61914000D02*
X110852295Y-61747333D01*
X112973247Y-60297334D02*
X113011342Y-60397334D01*
X113011342Y-60397334D02*
X113049438Y-60430667D01*
X113049438Y-60430667D02*
X113125628Y-60464000D01*
X113125628Y-60464000D02*
X113239914Y-60464000D01*
X113239914Y-60464000D02*
X113316104Y-60430667D01*
X113316104Y-60430667D02*
X113354200Y-60397334D01*
X113354200Y-60397334D02*
X113392295Y-60330667D01*
X113392295Y-60330667D02*
X113392295Y-60064000D01*
X113392295Y-60064000D02*
X112592295Y-60064000D01*
X112592295Y-60064000D02*
X112592295Y-60297334D01*
X112592295Y-60297334D02*
X112630390Y-60364000D01*
X112630390Y-60364000D02*
X112668485Y-60397334D01*
X112668485Y-60397334D02*
X112744676Y-60430667D01*
X112744676Y-60430667D02*
X112820866Y-60430667D01*
X112820866Y-60430667D02*
X112897057Y-60397334D01*
X112897057Y-60397334D02*
X112935152Y-60364000D01*
X112935152Y-60364000D02*
X112973247Y-60297334D01*
X112973247Y-60297334D02*
X112973247Y-60064000D01*
X112592295Y-60664000D02*
X112592295Y-61064000D01*
X113392295Y-60864000D02*
X112592295Y-60864000D01*
X113392295Y-61297333D02*
X112592295Y-61297333D01*
X112592295Y-61297333D02*
X113392295Y-61697333D01*
X113392295Y-61697333D02*
X112592295Y-61697333D01*
X113392295Y-62397333D02*
X113392295Y-61997333D01*
X113392295Y-62197333D02*
X112592295Y-62197333D01*
X112592295Y-62197333D02*
X112706580Y-62130666D01*
X112706580Y-62130666D02*
X112782771Y-62064000D01*
X112782771Y-62064000D02*
X112820866Y-61997333D01*
X120593247Y-60297334D02*
X120631342Y-60397334D01*
X120631342Y-60397334D02*
X120669438Y-60430667D01*
X120669438Y-60430667D02*
X120745628Y-60464000D01*
X120745628Y-60464000D02*
X120859914Y-60464000D01*
X120859914Y-60464000D02*
X120936104Y-60430667D01*
X120936104Y-60430667D02*
X120974200Y-60397334D01*
X120974200Y-60397334D02*
X121012295Y-60330667D01*
X121012295Y-60330667D02*
X121012295Y-60064000D01*
X121012295Y-60064000D02*
X120212295Y-60064000D01*
X120212295Y-60064000D02*
X120212295Y-60297334D01*
X120212295Y-60297334D02*
X120250390Y-60364000D01*
X120250390Y-60364000D02*
X120288485Y-60397334D01*
X120288485Y-60397334D02*
X120364676Y-60430667D01*
X120364676Y-60430667D02*
X120440866Y-60430667D01*
X120440866Y-60430667D02*
X120517057Y-60397334D01*
X120517057Y-60397334D02*
X120555152Y-60364000D01*
X120555152Y-60364000D02*
X120593247Y-60297334D01*
X120593247Y-60297334D02*
X120593247Y-60064000D01*
X120212295Y-60664000D02*
X120212295Y-61064000D01*
X121012295Y-60864000D02*
X120212295Y-60864000D01*
X121012295Y-61297333D02*
X120212295Y-61297333D01*
X120212295Y-61297333D02*
X121012295Y-61697333D01*
X121012295Y-61697333D02*
X120212295Y-61697333D01*
X120288485Y-61997333D02*
X120250390Y-62030666D01*
X120250390Y-62030666D02*
X120212295Y-62097333D01*
X120212295Y-62097333D02*
X120212295Y-62264000D01*
X120212295Y-62264000D02*
X120250390Y-62330666D01*
X120250390Y-62330666D02*
X120288485Y-62364000D01*
X120288485Y-62364000D02*
X120364676Y-62397333D01*
X120364676Y-62397333D02*
X120440866Y-62397333D01*
X120440866Y-62397333D02*
X120555152Y-62364000D01*
X120555152Y-62364000D02*
X121012295Y-61964000D01*
X121012295Y-61964000D02*
X121012295Y-62397333D01*
X113392295Y-63689000D02*
X112592295Y-63689000D01*
X112592295Y-63689000D02*
X112592295Y-63855667D01*
X112592295Y-63855667D02*
X112630390Y-63955667D01*
X112630390Y-63955667D02*
X112706580Y-64022334D01*
X112706580Y-64022334D02*
X112782771Y-64055667D01*
X112782771Y-64055667D02*
X112935152Y-64089000D01*
X112935152Y-64089000D02*
X113049438Y-64089000D01*
X113049438Y-64089000D02*
X113201819Y-64055667D01*
X113201819Y-64055667D02*
X113278009Y-64022334D01*
X113278009Y-64022334D02*
X113354200Y-63955667D01*
X113354200Y-63955667D02*
X113392295Y-63855667D01*
X113392295Y-63855667D02*
X113392295Y-63689000D01*
X113392295Y-64389000D02*
X112592295Y-64389000D01*
X113392295Y-65122333D02*
X113011342Y-64889000D01*
X113392295Y-64722333D02*
X112592295Y-64722333D01*
X112592295Y-64722333D02*
X112592295Y-64989000D01*
X112592295Y-64989000D02*
X112630390Y-65055667D01*
X112630390Y-65055667D02*
X112668485Y-65089000D01*
X112668485Y-65089000D02*
X112744676Y-65122333D01*
X112744676Y-65122333D02*
X112858961Y-65122333D01*
X112858961Y-65122333D02*
X112935152Y-65089000D01*
X112935152Y-65089000D02*
X112973247Y-65055667D01*
X112973247Y-65055667D02*
X113011342Y-64989000D01*
X113011342Y-64989000D02*
X113011342Y-64722333D01*
X115932295Y-63755667D02*
X115132295Y-63755667D01*
X115932295Y-64089000D02*
X115132295Y-64089000D01*
X115132295Y-64089000D02*
X115932295Y-64489000D01*
X115932295Y-64489000D02*
X115132295Y-64489000D01*
X115132295Y-64722333D02*
X115132295Y-65122333D01*
X115932295Y-64922333D02*
X115132295Y-64922333D01*
X118434200Y-63539000D02*
X118472295Y-63639000D01*
X118472295Y-63639000D02*
X118472295Y-63805667D01*
X118472295Y-63805667D02*
X118434200Y-63872333D01*
X118434200Y-63872333D02*
X118396104Y-63905667D01*
X118396104Y-63905667D02*
X118319914Y-63939000D01*
X118319914Y-63939000D02*
X118243723Y-63939000D01*
X118243723Y-63939000D02*
X118167533Y-63905667D01*
X118167533Y-63905667D02*
X118129438Y-63872333D01*
X118129438Y-63872333D02*
X118091342Y-63805667D01*
X118091342Y-63805667D02*
X118053247Y-63672333D01*
X118053247Y-63672333D02*
X118015152Y-63605667D01*
X118015152Y-63605667D02*
X117977057Y-63572333D01*
X117977057Y-63572333D02*
X117900866Y-63539000D01*
X117900866Y-63539000D02*
X117824676Y-63539000D01*
X117824676Y-63539000D02*
X117748485Y-63572333D01*
X117748485Y-63572333D02*
X117710390Y-63605667D01*
X117710390Y-63605667D02*
X117672295Y-63672333D01*
X117672295Y-63672333D02*
X117672295Y-63839000D01*
X117672295Y-63839000D02*
X117710390Y-63939000D01*
X118472295Y-64239000D02*
X117672295Y-64239000D01*
X117672295Y-64239000D02*
X117672295Y-64405667D01*
X117672295Y-64405667D02*
X117710390Y-64505667D01*
X117710390Y-64505667D02*
X117786580Y-64572334D01*
X117786580Y-64572334D02*
X117862771Y-64605667D01*
X117862771Y-64605667D02*
X118015152Y-64639000D01*
X118015152Y-64639000D02*
X118129438Y-64639000D01*
X118129438Y-64639000D02*
X118281819Y-64605667D01*
X118281819Y-64605667D02*
X118358009Y-64572334D01*
X118358009Y-64572334D02*
X118434200Y-64505667D01*
X118434200Y-64505667D02*
X118472295Y-64405667D01*
X118472295Y-64405667D02*
X118472295Y-64239000D01*
X118243723Y-64905667D02*
X118243723Y-65239000D01*
X118472295Y-64839000D02*
X117672295Y-65072334D01*
X117672295Y-65072334D02*
X118472295Y-65305667D01*
X120847200Y-63555666D02*
X120885295Y-63655666D01*
X120885295Y-63655666D02*
X120885295Y-63822333D01*
X120885295Y-63822333D02*
X120847200Y-63888999D01*
X120847200Y-63888999D02*
X120809104Y-63922333D01*
X120809104Y-63922333D02*
X120732914Y-63955666D01*
X120732914Y-63955666D02*
X120656723Y-63955666D01*
X120656723Y-63955666D02*
X120580533Y-63922333D01*
X120580533Y-63922333D02*
X120542438Y-63888999D01*
X120542438Y-63888999D02*
X120504342Y-63822333D01*
X120504342Y-63822333D02*
X120466247Y-63688999D01*
X120466247Y-63688999D02*
X120428152Y-63622333D01*
X120428152Y-63622333D02*
X120390057Y-63588999D01*
X120390057Y-63588999D02*
X120313866Y-63555666D01*
X120313866Y-63555666D02*
X120237676Y-63555666D01*
X120237676Y-63555666D02*
X120161485Y-63588999D01*
X120161485Y-63588999D02*
X120123390Y-63622333D01*
X120123390Y-63622333D02*
X120085295Y-63688999D01*
X120085295Y-63688999D02*
X120085295Y-63855666D01*
X120085295Y-63855666D02*
X120123390Y-63955666D01*
X120809104Y-64655666D02*
X120847200Y-64622333D01*
X120847200Y-64622333D02*
X120885295Y-64522333D01*
X120885295Y-64522333D02*
X120885295Y-64455666D01*
X120885295Y-64455666D02*
X120847200Y-64355666D01*
X120847200Y-64355666D02*
X120771009Y-64289000D01*
X120771009Y-64289000D02*
X120694819Y-64255666D01*
X120694819Y-64255666D02*
X120542438Y-64222333D01*
X120542438Y-64222333D02*
X120428152Y-64222333D01*
X120428152Y-64222333D02*
X120275771Y-64255666D01*
X120275771Y-64255666D02*
X120199580Y-64289000D01*
X120199580Y-64289000D02*
X120123390Y-64355666D01*
X120123390Y-64355666D02*
X120085295Y-64455666D01*
X120085295Y-64455666D02*
X120085295Y-64522333D01*
X120085295Y-64522333D02*
X120123390Y-64622333D01*
X120123390Y-64622333D02*
X120161485Y-64655666D01*
X120885295Y-65289000D02*
X120885295Y-64955666D01*
X120885295Y-64955666D02*
X120085295Y-64955666D01*
X118472295Y-60430667D02*
X118472295Y-60097333D01*
X118472295Y-60097333D02*
X117672295Y-60097333D01*
X118053247Y-60664000D02*
X118053247Y-60897334D01*
X118472295Y-60997334D02*
X118472295Y-60664000D01*
X118472295Y-60664000D02*
X117672295Y-60664000D01*
X117672295Y-60664000D02*
X117672295Y-60997334D01*
X118472295Y-61297333D02*
X117672295Y-61297333D01*
X117672295Y-61297333D02*
X117672295Y-61464000D01*
X117672295Y-61464000D02*
X117710390Y-61564000D01*
X117710390Y-61564000D02*
X117786580Y-61630667D01*
X117786580Y-61630667D02*
X117862771Y-61664000D01*
X117862771Y-61664000D02*
X118015152Y-61697333D01*
X118015152Y-61697333D02*
X118129438Y-61697333D01*
X118129438Y-61697333D02*
X118281819Y-61664000D01*
X118281819Y-61664000D02*
X118358009Y-61630667D01*
X118358009Y-61630667D02*
X118434200Y-61564000D01*
X118434200Y-61564000D02*
X118472295Y-61464000D01*
X118472295Y-61464000D02*
X118472295Y-61297333D01*
X117748485Y-61964000D02*
X117710390Y-61997333D01*
X117710390Y-61997333D02*
X117672295Y-62064000D01*
X117672295Y-62064000D02*
X117672295Y-62230667D01*
X117672295Y-62230667D02*
X117710390Y-62297333D01*
X117710390Y-62297333D02*
X117748485Y-62330667D01*
X117748485Y-62330667D02*
X117824676Y-62364000D01*
X117824676Y-62364000D02*
X117900866Y-62364000D01*
X117900866Y-62364000D02*
X118015152Y-62330667D01*
X118015152Y-62330667D02*
X118472295Y-61930667D01*
X118472295Y-61930667D02*
X118472295Y-62364000D01*
X115932295Y-60557667D02*
X115932295Y-60224333D01*
X115932295Y-60224333D02*
X115132295Y-60224333D01*
X115513247Y-60791000D02*
X115513247Y-61024334D01*
X115932295Y-61124334D02*
X115932295Y-60791000D01*
X115932295Y-60791000D02*
X115132295Y-60791000D01*
X115132295Y-60791000D02*
X115132295Y-61124334D01*
X115932295Y-61424333D02*
X115132295Y-61424333D01*
X115132295Y-61424333D02*
X115132295Y-61591000D01*
X115132295Y-61591000D02*
X115170390Y-61691000D01*
X115170390Y-61691000D02*
X115246580Y-61757667D01*
X115246580Y-61757667D02*
X115322771Y-61791000D01*
X115322771Y-61791000D02*
X115475152Y-61824333D01*
X115475152Y-61824333D02*
X115589438Y-61824333D01*
X115589438Y-61824333D02*
X115741819Y-61791000D01*
X115741819Y-61791000D02*
X115818009Y-61757667D01*
X115818009Y-61757667D02*
X115894200Y-61691000D01*
X115894200Y-61691000D02*
X115932295Y-61591000D01*
X115932295Y-61591000D02*
X115932295Y-61424333D01*
X115932295Y-62491000D02*
X115932295Y-62091000D01*
X115932295Y-62291000D02*
X115132295Y-62291000D01*
X115132295Y-62291000D02*
X115246580Y-62224333D01*
X115246580Y-62224333D02*
X115322771Y-62157667D01*
X115322771Y-62157667D02*
X115360866Y-62091000D01*
X109093000Y-59690000D02*
X109093000Y-66040000D01*
X119253000Y-59690000D02*
X119253000Y-66040000D01*
X121793000Y-62865000D02*
X106680000Y-62865000D01*
X121793000Y-59690000D02*
X106680000Y-59690000D01*
X106680000Y-66040000D01*
X121793000Y-66040000D01*
X121793000Y-59690000D01*
X116713000Y-59690000D02*
X116713000Y-66040000D01*
X121602500Y-63042800D02*
X119443500Y-63042800D01*
X119443500Y-65862200D01*
X121602500Y-65862200D01*
X121602500Y-63042800D01*
X114300000Y-59690000D02*
X114300000Y-66040000D01*
X111633000Y-59690000D02*
X111633000Y-66040000D01*
X124666333Y-92418819D02*
X124666333Y-93133104D01*
X124666333Y-93133104D02*
X124713952Y-93275961D01*
X124713952Y-93275961D02*
X124809190Y-93371200D01*
X124809190Y-93371200D02*
X124952047Y-93418819D01*
X124952047Y-93418819D02*
X125047285Y-93418819D01*
X124237761Y-92514057D02*
X124190142Y-92466438D01*
X124190142Y-92466438D02*
X124094904Y-92418819D01*
X124094904Y-92418819D02*
X123856809Y-92418819D01*
X123856809Y-92418819D02*
X123761571Y-92466438D01*
X123761571Y-92466438D02*
X123713952Y-92514057D01*
X123713952Y-92514057D02*
X123666333Y-92609295D01*
X123666333Y-92609295D02*
X123666333Y-92704533D01*
X123666333Y-92704533D02*
X123713952Y-92847390D01*
X123713952Y-92847390D02*
X124285380Y-93418819D01*
X124285380Y-93418819D02*
X123666333Y-93418819D01*
X104346333Y-92418819D02*
X104346333Y-93133104D01*
X104346333Y-93133104D02*
X104393952Y-93275961D01*
X104393952Y-93275961D02*
X104489190Y-93371200D01*
X104489190Y-93371200D02*
X104632047Y-93418819D01*
X104632047Y-93418819D02*
X104727285Y-93418819D01*
X103441571Y-92752152D02*
X103441571Y-93418819D01*
X103679666Y-92371200D02*
X103917761Y-93085485D01*
X103917761Y-93085485D02*
X103298714Y-93085485D01*
X114506333Y-92418819D02*
X114506333Y-93133104D01*
X114506333Y-93133104D02*
X114553952Y-93275961D01*
X114553952Y-93275961D02*
X114649190Y-93371200D01*
X114649190Y-93371200D02*
X114792047Y-93418819D01*
X114792047Y-93418819D02*
X114887285Y-93418819D01*
X114125380Y-92418819D02*
X113506333Y-92418819D01*
X113506333Y-92418819D02*
X113839666Y-92799771D01*
X113839666Y-92799771D02*
X113696809Y-92799771D01*
X113696809Y-92799771D02*
X113601571Y-92847390D01*
X113601571Y-92847390D02*
X113553952Y-92895009D01*
X113553952Y-92895009D02*
X113506333Y-92990247D01*
X113506333Y-92990247D02*
X113506333Y-93228342D01*
X113506333Y-93228342D02*
X113553952Y-93323580D01*
X113553952Y-93323580D02*
X113601571Y-93371200D01*
X113601571Y-93371200D02*
X113696809Y-93418819D01*
X113696809Y-93418819D02*
X113982523Y-93418819D01*
X113982523Y-93418819D02*
X114077761Y-93371200D01*
X114077761Y-93371200D02*
X114125380Y-93323580D01*
%LPC*%
D12*
X120650000Y-57150000D03*
D13*
X120650000Y-54610000D03*
X118110000Y-57150000D03*
X118110000Y-54610000D03*
X115570000Y-57150000D03*
X115570000Y-54610000D03*
X113030000Y-57150000D03*
X113030000Y-54610000D03*
X110490000Y-57150000D03*
X110490000Y-54610000D03*
X107950000Y-57150000D03*
X107950000Y-54610000D03*
D14*
X121920000Y-96520000D03*
D15*
X127000000Y-96520000D03*
D14*
X101600000Y-96520000D03*
D15*
X106680000Y-96520000D03*
D14*
X111760000Y-96520000D03*
D15*
X116840000Y-96520000D03*
%LPD*%
M02*
