G04 #@! TF.GenerationSoftware,KiCad,Pcbnew,7.0.9-7.0.9~ubuntu20.04.1*
G04 #@! TF.CreationDate,2024-01-18T00:40:07+01:00*
G04 #@! TF.ProjectId,kicad-pmod_bldc,6b696361-642d-4706-9d6f-645f626c6463,1.0*
G04 #@! TF.SameCoordinates,Original*
G04 #@! TF.FileFunction,Paste,Top*
G04 #@! TF.FilePolarity,Positive*
%FSLAX46Y46*%
G04 Gerber Fmt 4.6, Leading zero omitted, Abs format (unit mm)*
G04 Created by KiCad (PCBNEW 7.0.9-7.0.9~ubuntu20.04.1) date 2024-01-18 00:40:07*
%MOMM*%
%LPD*%
G01*
G04 APERTURE LIST*
G04 Aperture macros list*
%AMRoundRect*
0 Rectangle with rounded corners*
0 $1 Rounding radius*
0 $2 $3 $4 $5 $6 $7 $8 $9 X,Y pos of 4 corners*
0 Add a 4 corners polygon primitive as box body*
4,1,4,$2,$3,$4,$5,$6,$7,$8,$9,$2,$3,0*
0 Add four circle primitives for the rounded corners*
1,1,$1+$1,$2,$3*
1,1,$1+$1,$4,$5*
1,1,$1+$1,$6,$7*
1,1,$1+$1,$8,$9*
0 Add four rect primitives between the rounded corners*
20,1,$1+$1,$2,$3,$4,$5,0*
20,1,$1+$1,$4,$5,$6,$7,0*
20,1,$1+$1,$6,$7,$8,$9,0*
20,1,$1+$1,$8,$9,$2,$3,0*%
G04 Aperture macros list end*
%ADD10RoundRect,0.237500X0.250000X0.237500X-0.250000X0.237500X-0.250000X-0.237500X0.250000X-0.237500X0*%
%ADD11RoundRect,0.237500X0.237500X-0.287500X0.237500X0.287500X-0.237500X0.287500X-0.237500X-0.287500X0*%
%ADD12RoundRect,0.237500X-0.287500X-0.237500X0.287500X-0.237500X0.287500X0.237500X-0.287500X0.237500X0*%
%ADD13RoundRect,0.237500X-0.237500X0.300000X-0.237500X-0.300000X0.237500X-0.300000X0.237500X0.300000X0*%
%ADD14R,1.500000X1.500000*%
%ADD15RoundRect,0.237500X-0.250000X-0.237500X0.250000X-0.237500X0.250000X0.237500X-0.250000X0.237500X0*%
%ADD16RoundRect,0.237500X-0.300000X-0.237500X0.300000X-0.237500X0.300000X0.237500X-0.300000X0.237500X0*%
%ADD17RoundRect,0.237500X-0.237500X0.250000X-0.237500X-0.250000X0.237500X-0.250000X0.237500X0.250000X0*%
%ADD18RoundRect,0.250000X1.100000X-0.412500X1.100000X0.412500X-1.100000X0.412500X-1.100000X-0.412500X0*%
%ADD19RoundRect,0.250000X-0.695000X0.715000X-0.695000X-0.715000X0.695000X-0.715000X0.695000X0.715000X0*%
%ADD20RoundRect,0.100000X-0.100000X0.687500X-0.100000X-0.687500X0.100000X-0.687500X0.100000X0.687500X0*%
%ADD21RoundRect,0.237500X0.237500X-0.300000X0.237500X0.300000X-0.237500X0.300000X-0.237500X-0.300000X0*%
%ADD22RoundRect,0.237500X-0.237500X0.287500X-0.237500X-0.287500X0.237500X-0.287500X0.237500X0.287500X0*%
G04 APERTURE END LIST*
D10*
X102512500Y-86233000D03*
X100687500Y-86233000D03*
X124102500Y-73025000D03*
X122277500Y-73025000D03*
D11*
X109220000Y-67550000D03*
X109220000Y-65800000D03*
D12*
X123585000Y-86868000D03*
X125335000Y-86868000D03*
D13*
X106680000Y-75491000D03*
X106680000Y-77216000D03*
D14*
X104140000Y-62140000D03*
X104140000Y-69940000D03*
D15*
X124817500Y-55245000D03*
X126642500Y-55245000D03*
D16*
X111506000Y-77216000D03*
X113231000Y-77216000D03*
D10*
X124102500Y-78740000D03*
X122277500Y-78740000D03*
D12*
X111506000Y-75438000D03*
X113256000Y-75438000D03*
D17*
X109220000Y-61952500D03*
X109220000Y-63777500D03*
D18*
X116459000Y-86233000D03*
X116459000Y-83108000D03*
D10*
X124102500Y-74930000D03*
X122277500Y-74930000D03*
D13*
X105156000Y-75491000D03*
X105156000Y-77216000D03*
D15*
X113387500Y-67310000D03*
X115212500Y-67310000D03*
D10*
X124102500Y-76835000D03*
X122277500Y-76835000D03*
D13*
X108204000Y-75491000D03*
X108204000Y-77216000D03*
D11*
X119380000Y-67550000D03*
X119380000Y-65800000D03*
D17*
X119380000Y-61952500D03*
X119380000Y-63777500D03*
D12*
X113425000Y-70485000D03*
X115175000Y-70485000D03*
D10*
X103782500Y-58420000D03*
X101957500Y-58420000D03*
D19*
X109120000Y-83312000D03*
X106780000Y-83312000D03*
D20*
X111525000Y-80449500D03*
X110875000Y-80449500D03*
X110225000Y-80449500D03*
X109575000Y-80449500D03*
X108925000Y-80449500D03*
X108275000Y-80449500D03*
X107625000Y-80449500D03*
X106975000Y-80449500D03*
X106325000Y-80449500D03*
X105675000Y-80449500D03*
X105025000Y-80449500D03*
X104375000Y-80449500D03*
X104375000Y-86174500D03*
X105025000Y-86174500D03*
X105675000Y-86174500D03*
X106325000Y-86174500D03*
X106975000Y-86174500D03*
X107625000Y-86174500D03*
X108275000Y-86174500D03*
X108925000Y-86174500D03*
X109575000Y-86174500D03*
X110225000Y-86174500D03*
X110875000Y-86174500D03*
X111525000Y-86174500D03*
D14*
X124460000Y-62140000D03*
X124460000Y-69940000D03*
D10*
X103782500Y-55245000D03*
X101957500Y-55245000D03*
D21*
X113665000Y-84047500D03*
X113665000Y-82322500D03*
D22*
X109728000Y-75466000D03*
X109728000Y-77216000D03*
D15*
X123547500Y-85090000D03*
X125372500Y-85090000D03*
X124817500Y-58420000D03*
X126642500Y-58420000D03*
M02*
