%TF.GenerationSoftware,KiCad,Pcbnew,7.0.9-7.0.9~ubuntu20.04.1*%
%TF.CreationDate,2024-01-18T00:40:23+01:00*%
%TF.ProjectId,kicad-pmod_bldc,6b696361-642d-4706-9d6f-645f626c6463,1.0*%
%TF.SameCoordinates,Original*%
%TF.FileFunction,Drillmap*%
%TF.FilePolarity,Positive*%
%FSLAX45Y45*%
G04 Gerber Fmt 4.5, Leading zero omitted, Abs format (unit mm)*
G04 Created by KiCad (PCBNEW 7.0.9-7.0.9~ubuntu20.04.1) date 2024-01-18 00:40:23*
%MOMM*%
%LPD*%
G01*
G04 APERTURE LIST*
%ADD10C,0.100000*%
%ADD11C,0.200000*%
%ADD12C,0.152000*%
G04 APERTURE END LIST*
D10*
X12903200Y-10160000D02*
G75*
G03*
X12954000Y-10109200I0J50800D01*
G01*
X9906000Y-10109200D02*
G75*
G03*
X9956800Y-10160000I50800J0D01*
G01*
X9969500Y-5054600D02*
G75*
G03*
X9906000Y-5118100I0J-63500D01*
G01*
X12954000Y-5118100D02*
G75*
G03*
X12890500Y-5054600I-63500J0D01*
G01*
X12954000Y-10109200D02*
X12954000Y-5118100D01*
X12890500Y-5054600D02*
X9969500Y-5054600D01*
X9956800Y-10160000D02*
X12903200Y-10160000D01*
X9906000Y-5118100D02*
X9906000Y-10109200D01*
D11*
D10*
X10455000Y-8186200D02*
X10485000Y-8216200D01*
X10485000Y-8186200D02*
X10455000Y-8216200D01*
X10455000Y-8316200D02*
X10485000Y-8346200D01*
X10485000Y-8316200D02*
X10455000Y-8346200D01*
X10455000Y-8446200D02*
X10485000Y-8476200D01*
X10485000Y-8446200D02*
X10455000Y-8476200D01*
X10585000Y-8186200D02*
X10615000Y-8216200D01*
X10615000Y-8186200D02*
X10585000Y-8216200D01*
X10585000Y-8316200D02*
X10615000Y-8346200D01*
X10615000Y-8316200D02*
X10585000Y-8346200D01*
X10585000Y-8446200D02*
X10615000Y-8476200D01*
X10615000Y-8446200D02*
X10585000Y-8476200D01*
X10715000Y-8186200D02*
X10745000Y-8216200D01*
X10745000Y-8186200D02*
X10715000Y-8216200D01*
X10715000Y-8316200D02*
X10745000Y-8346200D01*
X10745000Y-8316200D02*
X10715000Y-8346200D01*
X10715000Y-8446200D02*
X10745000Y-8476200D01*
X10745000Y-8446200D02*
X10715000Y-8476200D01*
X10845000Y-8186200D02*
X10875000Y-8216200D01*
X10875000Y-8186200D02*
X10845000Y-8216200D01*
X10845000Y-8316200D02*
X10875000Y-8346200D01*
X10875000Y-8316200D02*
X10845000Y-8346200D01*
X10845000Y-8446200D02*
X10875000Y-8476200D01*
X10875000Y-8446200D02*
X10845000Y-8476200D01*
X10975000Y-8186200D02*
X11005000Y-8216200D01*
X11005000Y-8186200D02*
X10975000Y-8216200D01*
X10975000Y-8316200D02*
X11005000Y-8346200D01*
X11005000Y-8316200D02*
X10975000Y-8346200D01*
X10975000Y-8446200D02*
X11005000Y-8476200D01*
X11005000Y-8446200D02*
X10975000Y-8476200D01*
X11105000Y-8186200D02*
X11135000Y-8216200D01*
X11135000Y-8186200D02*
X11105000Y-8216200D01*
X11105000Y-8316200D02*
X11135000Y-8346200D01*
X11135000Y-8316200D02*
X11105000Y-8346200D01*
X11105000Y-8446200D02*
X11135000Y-8476200D01*
X11135000Y-8446200D02*
X11105000Y-8476200D01*
X10357750Y-8505150D02*
G75*
G03*
X10357750Y-8505150I-20000J0D01*
G01*
X10357800Y-8039100D02*
G75*
G03*
X10357800Y-8039100I-20000J0D01*
G01*
X10370500Y-8724900D02*
G75*
G03*
X10370500Y-8724900I-20000J0D01*
G01*
X10446700Y-7848600D02*
G75*
G03*
X10446700Y-7848600I-20000J0D01*
G01*
X10548300Y-7848600D02*
G75*
G03*
X10548300Y-7848600I-20000J0D01*
G01*
X10619420Y-8763000D02*
G75*
G03*
X10619420Y-8763000I-20000J0D01*
G01*
X10649900Y-7848600D02*
G75*
G03*
X10649900Y-7848600I-20000J0D01*
G01*
X10764200Y-6756400D02*
G75*
G03*
X10764200Y-6756400I-20000J0D01*
G01*
X12148500Y-7302500D02*
G75*
G03*
X12148500Y-7302500I-20000J0D01*
G01*
X12148500Y-7493000D02*
G75*
G03*
X12148500Y-7493000I-20000J0D01*
G01*
X12148500Y-7683500D02*
G75*
G03*
X12148500Y-7683500I-20000J0D01*
G01*
X12237400Y-8509000D02*
G75*
G03*
X12237400Y-8509000I-20000J0D01*
G01*
X12339000Y-7162800D02*
G75*
G03*
X12339000Y-7162800I-20000J0D01*
G01*
X12427900Y-8013700D02*
G75*
G03*
X12427900Y-8013700I-20000J0D01*
G01*
X12542200Y-7683500D02*
G75*
G03*
X12542200Y-7683500I-20000J0D01*
G01*
X10795000Y-5411000D02*
X10795000Y-5511000D01*
X10745000Y-5461000D02*
X10845000Y-5461000D01*
X10795000Y-5665000D02*
X10795000Y-5765000D01*
X10745000Y-5715000D02*
X10845000Y-5715000D01*
X11049000Y-5411000D02*
X11049000Y-5511000D01*
X10999000Y-5461000D02*
X11099000Y-5461000D01*
X11049000Y-5665000D02*
X11049000Y-5765000D01*
X10999000Y-5715000D02*
X11099000Y-5715000D01*
X11303000Y-5411000D02*
X11303000Y-5511000D01*
X11253000Y-5461000D02*
X11353000Y-5461000D01*
X11303000Y-5665000D02*
X11303000Y-5765000D01*
X11253000Y-5715000D02*
X11353000Y-5715000D01*
X11557000Y-5411000D02*
X11557000Y-5511000D01*
X11507000Y-5461000D02*
X11607000Y-5461000D01*
X11557000Y-5665000D02*
X11557000Y-5765000D01*
X11507000Y-5715000D02*
X11607000Y-5715000D01*
X11811000Y-5411000D02*
X11811000Y-5511000D01*
X11761000Y-5461000D02*
X11861000Y-5461000D01*
X11811000Y-5665000D02*
X11811000Y-5765000D01*
X11761000Y-5715000D02*
X11861000Y-5715000D01*
X12065000Y-5411000D02*
X12065000Y-5511000D01*
X12015000Y-5461000D02*
X12115000Y-5461000D01*
X12065000Y-5665000D02*
X12065000Y-5765000D01*
X12015000Y-5715000D02*
X12115000Y-5715000D01*
D12*
X10213741Y-9705741D02*
X10213741Y-9598259D01*
X10106259Y-9598259D01*
X10106259Y-9705741D01*
X10213741Y-9705741D01*
X10721741Y-9705741D02*
X10721741Y-9598259D01*
X10614259Y-9598259D01*
X10614259Y-9705741D01*
X10721741Y-9705741D01*
X11229741Y-9705741D02*
X11229741Y-9598259D01*
X11122259Y-9598259D01*
X11122259Y-9705741D01*
X11229741Y-9705741D01*
X11737741Y-9705741D02*
X11737741Y-9598259D01*
X11630259Y-9598259D01*
X11630259Y-9705741D01*
X11737741Y-9705741D01*
X12245741Y-9705741D02*
X12245741Y-9598259D01*
X12138259Y-9598259D01*
X12138259Y-9705741D01*
X12245741Y-9705741D01*
X12753741Y-9705741D02*
X12753741Y-9598259D01*
X12646259Y-9598259D01*
X12646259Y-9705741D01*
X12753741Y-9705741D01*
D11*
X10161777Y-10476484D02*
X10161777Y-10276484D01*
X10161777Y-10276484D02*
X10209396Y-10276484D01*
X10209396Y-10276484D02*
X10237967Y-10286008D01*
X10237967Y-10286008D02*
X10257015Y-10305055D01*
X10257015Y-10305055D02*
X10266539Y-10324103D01*
X10266539Y-10324103D02*
X10276063Y-10362198D01*
X10276063Y-10362198D02*
X10276063Y-10390770D01*
X10276063Y-10390770D02*
X10266539Y-10428865D01*
X10266539Y-10428865D02*
X10257015Y-10447912D01*
X10257015Y-10447912D02*
X10237967Y-10466960D01*
X10237967Y-10466960D02*
X10209396Y-10476484D01*
X10209396Y-10476484D02*
X10161777Y-10476484D01*
X10361777Y-10476484D02*
X10361777Y-10343150D01*
X10361777Y-10381246D02*
X10371301Y-10362198D01*
X10371301Y-10362198D02*
X10380824Y-10352674D01*
X10380824Y-10352674D02*
X10399872Y-10343150D01*
X10399872Y-10343150D02*
X10418920Y-10343150D01*
X10485586Y-10476484D02*
X10485586Y-10343150D01*
X10485586Y-10276484D02*
X10476063Y-10286008D01*
X10476063Y-10286008D02*
X10485586Y-10295531D01*
X10485586Y-10295531D02*
X10495110Y-10286008D01*
X10495110Y-10286008D02*
X10485586Y-10276484D01*
X10485586Y-10276484D02*
X10485586Y-10295531D01*
X10609396Y-10476484D02*
X10590348Y-10466960D01*
X10590348Y-10466960D02*
X10580824Y-10447912D01*
X10580824Y-10447912D02*
X10580824Y-10276484D01*
X10714158Y-10476484D02*
X10695110Y-10466960D01*
X10695110Y-10466960D02*
X10685586Y-10447912D01*
X10685586Y-10447912D02*
X10685586Y-10276484D01*
X10942729Y-10476484D02*
X10942729Y-10276484D01*
X10942729Y-10276484D02*
X11009396Y-10419341D01*
X11009396Y-10419341D02*
X11076063Y-10276484D01*
X11076063Y-10276484D02*
X11076063Y-10476484D01*
X11257015Y-10476484D02*
X11257015Y-10371722D01*
X11257015Y-10371722D02*
X11247491Y-10352674D01*
X11247491Y-10352674D02*
X11228443Y-10343150D01*
X11228443Y-10343150D02*
X11190348Y-10343150D01*
X11190348Y-10343150D02*
X11171301Y-10352674D01*
X11257015Y-10466960D02*
X11237967Y-10476484D01*
X11237967Y-10476484D02*
X11190348Y-10476484D01*
X11190348Y-10476484D02*
X11171301Y-10466960D01*
X11171301Y-10466960D02*
X11161777Y-10447912D01*
X11161777Y-10447912D02*
X11161777Y-10428865D01*
X11161777Y-10428865D02*
X11171301Y-10409817D01*
X11171301Y-10409817D02*
X11190348Y-10400293D01*
X11190348Y-10400293D02*
X11237967Y-10400293D01*
X11237967Y-10400293D02*
X11257015Y-10390770D01*
X11352253Y-10343150D02*
X11352253Y-10543150D01*
X11352253Y-10352674D02*
X11371301Y-10343150D01*
X11371301Y-10343150D02*
X11409396Y-10343150D01*
X11409396Y-10343150D02*
X11428443Y-10352674D01*
X11428443Y-10352674D02*
X11437967Y-10362198D01*
X11437967Y-10362198D02*
X11447491Y-10381246D01*
X11447491Y-10381246D02*
X11447491Y-10438389D01*
X11447491Y-10438389D02*
X11437967Y-10457436D01*
X11437967Y-10457436D02*
X11428443Y-10466960D01*
X11428443Y-10466960D02*
X11409396Y-10476484D01*
X11409396Y-10476484D02*
X11371301Y-10476484D01*
X11371301Y-10476484D02*
X11352253Y-10466960D01*
X11533205Y-10457436D02*
X11542729Y-10466960D01*
X11542729Y-10466960D02*
X11533205Y-10476484D01*
X11533205Y-10476484D02*
X11523682Y-10466960D01*
X11523682Y-10466960D02*
X11533205Y-10457436D01*
X11533205Y-10457436D02*
X11533205Y-10476484D01*
X11533205Y-10352674D02*
X11542729Y-10362198D01*
X11542729Y-10362198D02*
X11533205Y-10371722D01*
X11533205Y-10371722D02*
X11523682Y-10362198D01*
X11523682Y-10362198D02*
X11533205Y-10352674D01*
X11533205Y-10352674D02*
X11533205Y-10371722D01*
D10*
X9871000Y-10790000D02*
X9901000Y-10820000D01*
X9901000Y-10790000D02*
X9871000Y-10820000D01*
D11*
X10199872Y-10696484D02*
X10218920Y-10696484D01*
X10218920Y-10696484D02*
X10237967Y-10706008D01*
X10237967Y-10706008D02*
X10247491Y-10715531D01*
X10247491Y-10715531D02*
X10257015Y-10734579D01*
X10257015Y-10734579D02*
X10266539Y-10772674D01*
X10266539Y-10772674D02*
X10266539Y-10820293D01*
X10266539Y-10820293D02*
X10257015Y-10858389D01*
X10257015Y-10858389D02*
X10247491Y-10877436D01*
X10247491Y-10877436D02*
X10237967Y-10886960D01*
X10237967Y-10886960D02*
X10218920Y-10896484D01*
X10218920Y-10896484D02*
X10199872Y-10896484D01*
X10199872Y-10896484D02*
X10180824Y-10886960D01*
X10180824Y-10886960D02*
X10171301Y-10877436D01*
X10171301Y-10877436D02*
X10161777Y-10858389D01*
X10161777Y-10858389D02*
X10152253Y-10820293D01*
X10152253Y-10820293D02*
X10152253Y-10772674D01*
X10152253Y-10772674D02*
X10161777Y-10734579D01*
X10161777Y-10734579D02*
X10171301Y-10715531D01*
X10171301Y-10715531D02*
X10180824Y-10706008D01*
X10180824Y-10706008D02*
X10199872Y-10696484D01*
X10352253Y-10877436D02*
X10361777Y-10886960D01*
X10361777Y-10886960D02*
X10352253Y-10896484D01*
X10352253Y-10896484D02*
X10342729Y-10886960D01*
X10342729Y-10886960D02*
X10352253Y-10877436D01*
X10352253Y-10877436D02*
X10352253Y-10896484D01*
X10428444Y-10696484D02*
X10552253Y-10696484D01*
X10552253Y-10696484D02*
X10485586Y-10772674D01*
X10485586Y-10772674D02*
X10514158Y-10772674D01*
X10514158Y-10772674D02*
X10533205Y-10782198D01*
X10533205Y-10782198D02*
X10542729Y-10791722D01*
X10542729Y-10791722D02*
X10552253Y-10810770D01*
X10552253Y-10810770D02*
X10552253Y-10858389D01*
X10552253Y-10858389D02*
X10542729Y-10877436D01*
X10542729Y-10877436D02*
X10533205Y-10886960D01*
X10533205Y-10886960D02*
X10514158Y-10896484D01*
X10514158Y-10896484D02*
X10457015Y-10896484D01*
X10457015Y-10896484D02*
X10437967Y-10886960D01*
X10437967Y-10886960D02*
X10428444Y-10877436D01*
X10676063Y-10696484D02*
X10695110Y-10696484D01*
X10695110Y-10696484D02*
X10714158Y-10706008D01*
X10714158Y-10706008D02*
X10723682Y-10715531D01*
X10723682Y-10715531D02*
X10733205Y-10734579D01*
X10733205Y-10734579D02*
X10742729Y-10772674D01*
X10742729Y-10772674D02*
X10742729Y-10820293D01*
X10742729Y-10820293D02*
X10733205Y-10858389D01*
X10733205Y-10858389D02*
X10723682Y-10877436D01*
X10723682Y-10877436D02*
X10714158Y-10886960D01*
X10714158Y-10886960D02*
X10695110Y-10896484D01*
X10695110Y-10896484D02*
X10676063Y-10896484D01*
X10676063Y-10896484D02*
X10657015Y-10886960D01*
X10657015Y-10886960D02*
X10647491Y-10877436D01*
X10647491Y-10877436D02*
X10637967Y-10858389D01*
X10637967Y-10858389D02*
X10628444Y-10820293D01*
X10628444Y-10820293D02*
X10628444Y-10772674D01*
X10628444Y-10772674D02*
X10637967Y-10734579D01*
X10637967Y-10734579D02*
X10647491Y-10715531D01*
X10647491Y-10715531D02*
X10657015Y-10706008D01*
X10657015Y-10706008D02*
X10676063Y-10696484D01*
X10866539Y-10696484D02*
X10885586Y-10696484D01*
X10885586Y-10696484D02*
X10904634Y-10706008D01*
X10904634Y-10706008D02*
X10914158Y-10715531D01*
X10914158Y-10715531D02*
X10923682Y-10734579D01*
X10923682Y-10734579D02*
X10933205Y-10772674D01*
X10933205Y-10772674D02*
X10933205Y-10820293D01*
X10933205Y-10820293D02*
X10923682Y-10858389D01*
X10923682Y-10858389D02*
X10914158Y-10877436D01*
X10914158Y-10877436D02*
X10904634Y-10886960D01*
X10904634Y-10886960D02*
X10885586Y-10896484D01*
X10885586Y-10896484D02*
X10866539Y-10896484D01*
X10866539Y-10896484D02*
X10847491Y-10886960D01*
X10847491Y-10886960D02*
X10837967Y-10877436D01*
X10837967Y-10877436D02*
X10828444Y-10858389D01*
X10828444Y-10858389D02*
X10818920Y-10820293D01*
X10818920Y-10820293D02*
X10818920Y-10772674D01*
X10818920Y-10772674D02*
X10828444Y-10734579D01*
X10828444Y-10734579D02*
X10837967Y-10715531D01*
X10837967Y-10715531D02*
X10847491Y-10706008D01*
X10847491Y-10706008D02*
X10866539Y-10696484D01*
X11018920Y-10896484D02*
X11018920Y-10763150D01*
X11018920Y-10782198D02*
X11028444Y-10772674D01*
X11028444Y-10772674D02*
X11047491Y-10763150D01*
X11047491Y-10763150D02*
X11076063Y-10763150D01*
X11076063Y-10763150D02*
X11095110Y-10772674D01*
X11095110Y-10772674D02*
X11104634Y-10791722D01*
X11104634Y-10791722D02*
X11104634Y-10896484D01*
X11104634Y-10791722D02*
X11114158Y-10772674D01*
X11114158Y-10772674D02*
X11133205Y-10763150D01*
X11133205Y-10763150D02*
X11161777Y-10763150D01*
X11161777Y-10763150D02*
X11180825Y-10772674D01*
X11180825Y-10772674D02*
X11190348Y-10791722D01*
X11190348Y-10791722D02*
X11190348Y-10896484D01*
X11285586Y-10896484D02*
X11285586Y-10763150D01*
X11285586Y-10782198D02*
X11295110Y-10772674D01*
X11295110Y-10772674D02*
X11314158Y-10763150D01*
X11314158Y-10763150D02*
X11342729Y-10763150D01*
X11342729Y-10763150D02*
X11361777Y-10772674D01*
X11361777Y-10772674D02*
X11371301Y-10791722D01*
X11371301Y-10791722D02*
X11371301Y-10896484D01*
X11371301Y-10791722D02*
X11380824Y-10772674D01*
X11380824Y-10772674D02*
X11399872Y-10763150D01*
X11399872Y-10763150D02*
X11428443Y-10763150D01*
X11428443Y-10763150D02*
X11447491Y-10772674D01*
X11447491Y-10772674D02*
X11457015Y-10791722D01*
X11457015Y-10791722D02*
X11457015Y-10896484D01*
X11847491Y-10686960D02*
X11676063Y-10944103D01*
X12104634Y-10696484D02*
X12123682Y-10696484D01*
X12123682Y-10696484D02*
X12142729Y-10706008D01*
X12142729Y-10706008D02*
X12152253Y-10715531D01*
X12152253Y-10715531D02*
X12161777Y-10734579D01*
X12161777Y-10734579D02*
X12171301Y-10772674D01*
X12171301Y-10772674D02*
X12171301Y-10820293D01*
X12171301Y-10820293D02*
X12161777Y-10858389D01*
X12161777Y-10858389D02*
X12152253Y-10877436D01*
X12152253Y-10877436D02*
X12142729Y-10886960D01*
X12142729Y-10886960D02*
X12123682Y-10896484D01*
X12123682Y-10896484D02*
X12104634Y-10896484D01*
X12104634Y-10896484D02*
X12085586Y-10886960D01*
X12085586Y-10886960D02*
X12076063Y-10877436D01*
X12076063Y-10877436D02*
X12066539Y-10858389D01*
X12066539Y-10858389D02*
X12057015Y-10820293D01*
X12057015Y-10820293D02*
X12057015Y-10772674D01*
X12057015Y-10772674D02*
X12066539Y-10734579D01*
X12066539Y-10734579D02*
X12076063Y-10715531D01*
X12076063Y-10715531D02*
X12085586Y-10706008D01*
X12085586Y-10706008D02*
X12104634Y-10696484D01*
X12257015Y-10877436D02*
X12266539Y-10886960D01*
X12266539Y-10886960D02*
X12257015Y-10896484D01*
X12257015Y-10896484D02*
X12247491Y-10886960D01*
X12247491Y-10886960D02*
X12257015Y-10877436D01*
X12257015Y-10877436D02*
X12257015Y-10896484D01*
X12390348Y-10696484D02*
X12409396Y-10696484D01*
X12409396Y-10696484D02*
X12428444Y-10706008D01*
X12428444Y-10706008D02*
X12437967Y-10715531D01*
X12437967Y-10715531D02*
X12447491Y-10734579D01*
X12447491Y-10734579D02*
X12457015Y-10772674D01*
X12457015Y-10772674D02*
X12457015Y-10820293D01*
X12457015Y-10820293D02*
X12447491Y-10858389D01*
X12447491Y-10858389D02*
X12437967Y-10877436D01*
X12437967Y-10877436D02*
X12428444Y-10886960D01*
X12428444Y-10886960D02*
X12409396Y-10896484D01*
X12409396Y-10896484D02*
X12390348Y-10896484D01*
X12390348Y-10896484D02*
X12371301Y-10886960D01*
X12371301Y-10886960D02*
X12361777Y-10877436D01*
X12361777Y-10877436D02*
X12352253Y-10858389D01*
X12352253Y-10858389D02*
X12342729Y-10820293D01*
X12342729Y-10820293D02*
X12342729Y-10772674D01*
X12342729Y-10772674D02*
X12352253Y-10734579D01*
X12352253Y-10734579D02*
X12361777Y-10715531D01*
X12361777Y-10715531D02*
X12371301Y-10706008D01*
X12371301Y-10706008D02*
X12390348Y-10696484D01*
X12647491Y-10896484D02*
X12533206Y-10896484D01*
X12590348Y-10896484D02*
X12590348Y-10696484D01*
X12590348Y-10696484D02*
X12571301Y-10725055D01*
X12571301Y-10725055D02*
X12552253Y-10744103D01*
X12552253Y-10744103D02*
X12533206Y-10753627D01*
X12837967Y-10896484D02*
X12723682Y-10896484D01*
X12780825Y-10896484D02*
X12780825Y-10696484D01*
X12780825Y-10696484D02*
X12761777Y-10725055D01*
X12761777Y-10725055D02*
X12742729Y-10744103D01*
X12742729Y-10744103D02*
X12723682Y-10753627D01*
X12952253Y-10782198D02*
X12933206Y-10772674D01*
X12933206Y-10772674D02*
X12923682Y-10763150D01*
X12923682Y-10763150D02*
X12914158Y-10744103D01*
X12914158Y-10744103D02*
X12914158Y-10734579D01*
X12914158Y-10734579D02*
X12923682Y-10715531D01*
X12923682Y-10715531D02*
X12933206Y-10706008D01*
X12933206Y-10706008D02*
X12952253Y-10696484D01*
X12952253Y-10696484D02*
X12990348Y-10696484D01*
X12990348Y-10696484D02*
X13009396Y-10706008D01*
X13009396Y-10706008D02*
X13018920Y-10715531D01*
X13018920Y-10715531D02*
X13028444Y-10734579D01*
X13028444Y-10734579D02*
X13028444Y-10744103D01*
X13028444Y-10744103D02*
X13018920Y-10763150D01*
X13018920Y-10763150D02*
X13009396Y-10772674D01*
X13009396Y-10772674D02*
X12990348Y-10782198D01*
X12990348Y-10782198D02*
X12952253Y-10782198D01*
X12952253Y-10782198D02*
X12933206Y-10791722D01*
X12933206Y-10791722D02*
X12923682Y-10801246D01*
X12923682Y-10801246D02*
X12914158Y-10820293D01*
X12914158Y-10820293D02*
X12914158Y-10858389D01*
X12914158Y-10858389D02*
X12923682Y-10877436D01*
X12923682Y-10877436D02*
X12933206Y-10886960D01*
X12933206Y-10886960D02*
X12952253Y-10896484D01*
X12952253Y-10896484D02*
X12990348Y-10896484D01*
X12990348Y-10896484D02*
X13009396Y-10886960D01*
X13009396Y-10886960D02*
X13018920Y-10877436D01*
X13018920Y-10877436D02*
X13028444Y-10858389D01*
X13028444Y-10858389D02*
X13028444Y-10820293D01*
X13028444Y-10820293D02*
X13018920Y-10801246D01*
X13018920Y-10801246D02*
X13009396Y-10791722D01*
X13009396Y-10791722D02*
X12990348Y-10782198D01*
X13104634Y-10696484D02*
X13104634Y-10734579D01*
X13180825Y-10696484D02*
X13180825Y-10734579D01*
X13476063Y-10972674D02*
X13466539Y-10963150D01*
X13466539Y-10963150D02*
X13447491Y-10934579D01*
X13447491Y-10934579D02*
X13437968Y-10915531D01*
X13437968Y-10915531D02*
X13428444Y-10886960D01*
X13428444Y-10886960D02*
X13418920Y-10839341D01*
X13418920Y-10839341D02*
X13418920Y-10801246D01*
X13418920Y-10801246D02*
X13428444Y-10753627D01*
X13428444Y-10753627D02*
X13437968Y-10725055D01*
X13437968Y-10725055D02*
X13447491Y-10706008D01*
X13447491Y-10706008D02*
X13466539Y-10677436D01*
X13466539Y-10677436D02*
X13476063Y-10667912D01*
X13657015Y-10896484D02*
X13542729Y-10896484D01*
X13599872Y-10896484D02*
X13599872Y-10696484D01*
X13599872Y-10696484D02*
X13580825Y-10725055D01*
X13580825Y-10725055D02*
X13561777Y-10744103D01*
X13561777Y-10744103D02*
X13542729Y-10753627D01*
X13771301Y-10782198D02*
X13752253Y-10772674D01*
X13752253Y-10772674D02*
X13742729Y-10763150D01*
X13742729Y-10763150D02*
X13733206Y-10744103D01*
X13733206Y-10744103D02*
X13733206Y-10734579D01*
X13733206Y-10734579D02*
X13742729Y-10715531D01*
X13742729Y-10715531D02*
X13752253Y-10706008D01*
X13752253Y-10706008D02*
X13771301Y-10696484D01*
X13771301Y-10696484D02*
X13809396Y-10696484D01*
X13809396Y-10696484D02*
X13828444Y-10706008D01*
X13828444Y-10706008D02*
X13837968Y-10715531D01*
X13837968Y-10715531D02*
X13847491Y-10734579D01*
X13847491Y-10734579D02*
X13847491Y-10744103D01*
X13847491Y-10744103D02*
X13837968Y-10763150D01*
X13837968Y-10763150D02*
X13828444Y-10772674D01*
X13828444Y-10772674D02*
X13809396Y-10782198D01*
X13809396Y-10782198D02*
X13771301Y-10782198D01*
X13771301Y-10782198D02*
X13752253Y-10791722D01*
X13752253Y-10791722D02*
X13742729Y-10801246D01*
X13742729Y-10801246D02*
X13733206Y-10820293D01*
X13733206Y-10820293D02*
X13733206Y-10858389D01*
X13733206Y-10858389D02*
X13742729Y-10877436D01*
X13742729Y-10877436D02*
X13752253Y-10886960D01*
X13752253Y-10886960D02*
X13771301Y-10896484D01*
X13771301Y-10896484D02*
X13809396Y-10896484D01*
X13809396Y-10896484D02*
X13828444Y-10886960D01*
X13828444Y-10886960D02*
X13837968Y-10877436D01*
X13837968Y-10877436D02*
X13847491Y-10858389D01*
X13847491Y-10858389D02*
X13847491Y-10820293D01*
X13847491Y-10820293D02*
X13837968Y-10801246D01*
X13837968Y-10801246D02*
X13828444Y-10791722D01*
X13828444Y-10791722D02*
X13809396Y-10782198D01*
X14085587Y-10896484D02*
X14085587Y-10696484D01*
X14171301Y-10896484D02*
X14171301Y-10791722D01*
X14171301Y-10791722D02*
X14161777Y-10772674D01*
X14161777Y-10772674D02*
X14142730Y-10763150D01*
X14142730Y-10763150D02*
X14114158Y-10763150D01*
X14114158Y-10763150D02*
X14095110Y-10772674D01*
X14095110Y-10772674D02*
X14085587Y-10782198D01*
X14295110Y-10896484D02*
X14276063Y-10886960D01*
X14276063Y-10886960D02*
X14266539Y-10877436D01*
X14266539Y-10877436D02*
X14257015Y-10858389D01*
X14257015Y-10858389D02*
X14257015Y-10801246D01*
X14257015Y-10801246D02*
X14266539Y-10782198D01*
X14266539Y-10782198D02*
X14276063Y-10772674D01*
X14276063Y-10772674D02*
X14295110Y-10763150D01*
X14295110Y-10763150D02*
X14323682Y-10763150D01*
X14323682Y-10763150D02*
X14342730Y-10772674D01*
X14342730Y-10772674D02*
X14352253Y-10782198D01*
X14352253Y-10782198D02*
X14361777Y-10801246D01*
X14361777Y-10801246D02*
X14361777Y-10858389D01*
X14361777Y-10858389D02*
X14352253Y-10877436D01*
X14352253Y-10877436D02*
X14342730Y-10886960D01*
X14342730Y-10886960D02*
X14323682Y-10896484D01*
X14323682Y-10896484D02*
X14295110Y-10896484D01*
X14476063Y-10896484D02*
X14457015Y-10886960D01*
X14457015Y-10886960D02*
X14447491Y-10867912D01*
X14447491Y-10867912D02*
X14447491Y-10696484D01*
X14628444Y-10886960D02*
X14609396Y-10896484D01*
X14609396Y-10896484D02*
X14571301Y-10896484D01*
X14571301Y-10896484D02*
X14552253Y-10886960D01*
X14552253Y-10886960D02*
X14542730Y-10867912D01*
X14542730Y-10867912D02*
X14542730Y-10791722D01*
X14542730Y-10791722D02*
X14552253Y-10772674D01*
X14552253Y-10772674D02*
X14571301Y-10763150D01*
X14571301Y-10763150D02*
X14609396Y-10763150D01*
X14609396Y-10763150D02*
X14628444Y-10772674D01*
X14628444Y-10772674D02*
X14637968Y-10791722D01*
X14637968Y-10791722D02*
X14637968Y-10810770D01*
X14637968Y-10810770D02*
X14542730Y-10829817D01*
X14714158Y-10886960D02*
X14733206Y-10896484D01*
X14733206Y-10896484D02*
X14771301Y-10896484D01*
X14771301Y-10896484D02*
X14790349Y-10886960D01*
X14790349Y-10886960D02*
X14799872Y-10867912D01*
X14799872Y-10867912D02*
X14799872Y-10858389D01*
X14799872Y-10858389D02*
X14790349Y-10839341D01*
X14790349Y-10839341D02*
X14771301Y-10829817D01*
X14771301Y-10829817D02*
X14742730Y-10829817D01*
X14742730Y-10829817D02*
X14723682Y-10820293D01*
X14723682Y-10820293D02*
X14714158Y-10801246D01*
X14714158Y-10801246D02*
X14714158Y-10791722D01*
X14714158Y-10791722D02*
X14723682Y-10772674D01*
X14723682Y-10772674D02*
X14742730Y-10763150D01*
X14742730Y-10763150D02*
X14771301Y-10763150D01*
X14771301Y-10763150D02*
X14790349Y-10772674D01*
X14866539Y-10972674D02*
X14876063Y-10963150D01*
X14876063Y-10963150D02*
X14895111Y-10934579D01*
X14895111Y-10934579D02*
X14904634Y-10915531D01*
X14904634Y-10915531D02*
X14914158Y-10886960D01*
X14914158Y-10886960D02*
X14923682Y-10839341D01*
X14923682Y-10839341D02*
X14923682Y-10801246D01*
X14923682Y-10801246D02*
X14914158Y-10753627D01*
X14914158Y-10753627D02*
X14904634Y-10725055D01*
X14904634Y-10725055D02*
X14895111Y-10706008D01*
X14895111Y-10706008D02*
X14876063Y-10677436D01*
X14876063Y-10677436D02*
X14866539Y-10667912D01*
D10*
X9901000Y-11069000D02*
G75*
G03*
X9901000Y-11069000I-20000J0D01*
G01*
D11*
X10199872Y-10960484D02*
X10218920Y-10960484D01*
X10218920Y-10960484D02*
X10237967Y-10970008D01*
X10237967Y-10970008D02*
X10247491Y-10979531D01*
X10247491Y-10979531D02*
X10257015Y-10998579D01*
X10257015Y-10998579D02*
X10266539Y-11036674D01*
X10266539Y-11036674D02*
X10266539Y-11084293D01*
X10266539Y-11084293D02*
X10257015Y-11122389D01*
X10257015Y-11122389D02*
X10247491Y-11141436D01*
X10247491Y-11141436D02*
X10237967Y-11150960D01*
X10237967Y-11150960D02*
X10218920Y-11160484D01*
X10218920Y-11160484D02*
X10199872Y-11160484D01*
X10199872Y-11160484D02*
X10180824Y-11150960D01*
X10180824Y-11150960D02*
X10171301Y-11141436D01*
X10171301Y-11141436D02*
X10161777Y-11122389D01*
X10161777Y-11122389D02*
X10152253Y-11084293D01*
X10152253Y-11084293D02*
X10152253Y-11036674D01*
X10152253Y-11036674D02*
X10161777Y-10998579D01*
X10161777Y-10998579D02*
X10171301Y-10979531D01*
X10171301Y-10979531D02*
X10180824Y-10970008D01*
X10180824Y-10970008D02*
X10199872Y-10960484D01*
X10352253Y-11141436D02*
X10361777Y-11150960D01*
X10361777Y-11150960D02*
X10352253Y-11160484D01*
X10352253Y-11160484D02*
X10342729Y-11150960D01*
X10342729Y-11150960D02*
X10352253Y-11141436D01*
X10352253Y-11141436D02*
X10352253Y-11160484D01*
X10533205Y-11027150D02*
X10533205Y-11160484D01*
X10485586Y-10950960D02*
X10437967Y-11093817D01*
X10437967Y-11093817D02*
X10561777Y-11093817D01*
X10676063Y-10960484D02*
X10695110Y-10960484D01*
X10695110Y-10960484D02*
X10714158Y-10970008D01*
X10714158Y-10970008D02*
X10723682Y-10979531D01*
X10723682Y-10979531D02*
X10733205Y-10998579D01*
X10733205Y-10998579D02*
X10742729Y-11036674D01*
X10742729Y-11036674D02*
X10742729Y-11084293D01*
X10742729Y-11084293D02*
X10733205Y-11122389D01*
X10733205Y-11122389D02*
X10723682Y-11141436D01*
X10723682Y-11141436D02*
X10714158Y-11150960D01*
X10714158Y-11150960D02*
X10695110Y-11160484D01*
X10695110Y-11160484D02*
X10676063Y-11160484D01*
X10676063Y-11160484D02*
X10657015Y-11150960D01*
X10657015Y-11150960D02*
X10647491Y-11141436D01*
X10647491Y-11141436D02*
X10637967Y-11122389D01*
X10637967Y-11122389D02*
X10628444Y-11084293D01*
X10628444Y-11084293D02*
X10628444Y-11036674D01*
X10628444Y-11036674D02*
X10637967Y-10998579D01*
X10637967Y-10998579D02*
X10647491Y-10979531D01*
X10647491Y-10979531D02*
X10657015Y-10970008D01*
X10657015Y-10970008D02*
X10676063Y-10960484D01*
X10866539Y-10960484D02*
X10885586Y-10960484D01*
X10885586Y-10960484D02*
X10904634Y-10970008D01*
X10904634Y-10970008D02*
X10914158Y-10979531D01*
X10914158Y-10979531D02*
X10923682Y-10998579D01*
X10923682Y-10998579D02*
X10933205Y-11036674D01*
X10933205Y-11036674D02*
X10933205Y-11084293D01*
X10933205Y-11084293D02*
X10923682Y-11122389D01*
X10923682Y-11122389D02*
X10914158Y-11141436D01*
X10914158Y-11141436D02*
X10904634Y-11150960D01*
X10904634Y-11150960D02*
X10885586Y-11160484D01*
X10885586Y-11160484D02*
X10866539Y-11160484D01*
X10866539Y-11160484D02*
X10847491Y-11150960D01*
X10847491Y-11150960D02*
X10837967Y-11141436D01*
X10837967Y-11141436D02*
X10828444Y-11122389D01*
X10828444Y-11122389D02*
X10818920Y-11084293D01*
X10818920Y-11084293D02*
X10818920Y-11036674D01*
X10818920Y-11036674D02*
X10828444Y-10998579D01*
X10828444Y-10998579D02*
X10837967Y-10979531D01*
X10837967Y-10979531D02*
X10847491Y-10970008D01*
X10847491Y-10970008D02*
X10866539Y-10960484D01*
X11018920Y-11160484D02*
X11018920Y-11027150D01*
X11018920Y-11046198D02*
X11028444Y-11036674D01*
X11028444Y-11036674D02*
X11047491Y-11027150D01*
X11047491Y-11027150D02*
X11076063Y-11027150D01*
X11076063Y-11027150D02*
X11095110Y-11036674D01*
X11095110Y-11036674D02*
X11104634Y-11055722D01*
X11104634Y-11055722D02*
X11104634Y-11160484D01*
X11104634Y-11055722D02*
X11114158Y-11036674D01*
X11114158Y-11036674D02*
X11133205Y-11027150D01*
X11133205Y-11027150D02*
X11161777Y-11027150D01*
X11161777Y-11027150D02*
X11180825Y-11036674D01*
X11180825Y-11036674D02*
X11190348Y-11055722D01*
X11190348Y-11055722D02*
X11190348Y-11160484D01*
X11285586Y-11160484D02*
X11285586Y-11027150D01*
X11285586Y-11046198D02*
X11295110Y-11036674D01*
X11295110Y-11036674D02*
X11314158Y-11027150D01*
X11314158Y-11027150D02*
X11342729Y-11027150D01*
X11342729Y-11027150D02*
X11361777Y-11036674D01*
X11361777Y-11036674D02*
X11371301Y-11055722D01*
X11371301Y-11055722D02*
X11371301Y-11160484D01*
X11371301Y-11055722D02*
X11380824Y-11036674D01*
X11380824Y-11036674D02*
X11399872Y-11027150D01*
X11399872Y-11027150D02*
X11428443Y-11027150D01*
X11428443Y-11027150D02*
X11447491Y-11036674D01*
X11447491Y-11036674D02*
X11457015Y-11055722D01*
X11457015Y-11055722D02*
X11457015Y-11160484D01*
X11847491Y-10950960D02*
X11676063Y-11208103D01*
X12104634Y-10960484D02*
X12123682Y-10960484D01*
X12123682Y-10960484D02*
X12142729Y-10970008D01*
X12142729Y-10970008D02*
X12152253Y-10979531D01*
X12152253Y-10979531D02*
X12161777Y-10998579D01*
X12161777Y-10998579D02*
X12171301Y-11036674D01*
X12171301Y-11036674D02*
X12171301Y-11084293D01*
X12171301Y-11084293D02*
X12161777Y-11122389D01*
X12161777Y-11122389D02*
X12152253Y-11141436D01*
X12152253Y-11141436D02*
X12142729Y-11150960D01*
X12142729Y-11150960D02*
X12123682Y-11160484D01*
X12123682Y-11160484D02*
X12104634Y-11160484D01*
X12104634Y-11160484D02*
X12085586Y-11150960D01*
X12085586Y-11150960D02*
X12076063Y-11141436D01*
X12076063Y-11141436D02*
X12066539Y-11122389D01*
X12066539Y-11122389D02*
X12057015Y-11084293D01*
X12057015Y-11084293D02*
X12057015Y-11036674D01*
X12057015Y-11036674D02*
X12066539Y-10998579D01*
X12066539Y-10998579D02*
X12076063Y-10979531D01*
X12076063Y-10979531D02*
X12085586Y-10970008D01*
X12085586Y-10970008D02*
X12104634Y-10960484D01*
X12257015Y-11141436D02*
X12266539Y-11150960D01*
X12266539Y-11150960D02*
X12257015Y-11160484D01*
X12257015Y-11160484D02*
X12247491Y-11150960D01*
X12247491Y-11150960D02*
X12257015Y-11141436D01*
X12257015Y-11141436D02*
X12257015Y-11160484D01*
X12390348Y-10960484D02*
X12409396Y-10960484D01*
X12409396Y-10960484D02*
X12428444Y-10970008D01*
X12428444Y-10970008D02*
X12437967Y-10979531D01*
X12437967Y-10979531D02*
X12447491Y-10998579D01*
X12447491Y-10998579D02*
X12457015Y-11036674D01*
X12457015Y-11036674D02*
X12457015Y-11084293D01*
X12457015Y-11084293D02*
X12447491Y-11122389D01*
X12447491Y-11122389D02*
X12437967Y-11141436D01*
X12437967Y-11141436D02*
X12428444Y-11150960D01*
X12428444Y-11150960D02*
X12409396Y-11160484D01*
X12409396Y-11160484D02*
X12390348Y-11160484D01*
X12390348Y-11160484D02*
X12371301Y-11150960D01*
X12371301Y-11150960D02*
X12361777Y-11141436D01*
X12361777Y-11141436D02*
X12352253Y-11122389D01*
X12352253Y-11122389D02*
X12342729Y-11084293D01*
X12342729Y-11084293D02*
X12342729Y-11036674D01*
X12342729Y-11036674D02*
X12352253Y-10998579D01*
X12352253Y-10998579D02*
X12361777Y-10979531D01*
X12361777Y-10979531D02*
X12371301Y-10970008D01*
X12371301Y-10970008D02*
X12390348Y-10960484D01*
X12647491Y-11160484D02*
X12533206Y-11160484D01*
X12590348Y-11160484D02*
X12590348Y-10960484D01*
X12590348Y-10960484D02*
X12571301Y-10989055D01*
X12571301Y-10989055D02*
X12552253Y-11008103D01*
X12552253Y-11008103D02*
X12533206Y-11017627D01*
X12828444Y-10960484D02*
X12733206Y-10960484D01*
X12733206Y-10960484D02*
X12723682Y-11055722D01*
X12723682Y-11055722D02*
X12733206Y-11046198D01*
X12733206Y-11046198D02*
X12752253Y-11036674D01*
X12752253Y-11036674D02*
X12799872Y-11036674D01*
X12799872Y-11036674D02*
X12818920Y-11046198D01*
X12818920Y-11046198D02*
X12828444Y-11055722D01*
X12828444Y-11055722D02*
X12837967Y-11074770D01*
X12837967Y-11074770D02*
X12837967Y-11122389D01*
X12837967Y-11122389D02*
X12828444Y-11141436D01*
X12828444Y-11141436D02*
X12818920Y-11150960D01*
X12818920Y-11150960D02*
X12799872Y-11160484D01*
X12799872Y-11160484D02*
X12752253Y-11160484D01*
X12752253Y-11160484D02*
X12733206Y-11150960D01*
X12733206Y-11150960D02*
X12723682Y-11141436D01*
X12904634Y-10960484D02*
X13037967Y-10960484D01*
X13037967Y-10960484D02*
X12952253Y-11160484D01*
X13104634Y-10960484D02*
X13104634Y-10998579D01*
X13180825Y-10960484D02*
X13180825Y-10998579D01*
X13476063Y-11236674D02*
X13466539Y-11227150D01*
X13466539Y-11227150D02*
X13447491Y-11198579D01*
X13447491Y-11198579D02*
X13437968Y-11179531D01*
X13437968Y-11179531D02*
X13428444Y-11150960D01*
X13428444Y-11150960D02*
X13418920Y-11103341D01*
X13418920Y-11103341D02*
X13418920Y-11065246D01*
X13418920Y-11065246D02*
X13428444Y-11017627D01*
X13428444Y-11017627D02*
X13437968Y-10989055D01*
X13437968Y-10989055D02*
X13447491Y-10970008D01*
X13447491Y-10970008D02*
X13466539Y-10941436D01*
X13466539Y-10941436D02*
X13476063Y-10931912D01*
X13657015Y-11160484D02*
X13542729Y-11160484D01*
X13599872Y-11160484D02*
X13599872Y-10960484D01*
X13599872Y-10960484D02*
X13580825Y-10989055D01*
X13580825Y-10989055D02*
X13561777Y-11008103D01*
X13561777Y-11008103D02*
X13542729Y-11017627D01*
X13837968Y-10960484D02*
X13742729Y-10960484D01*
X13742729Y-10960484D02*
X13733206Y-11055722D01*
X13733206Y-11055722D02*
X13742729Y-11046198D01*
X13742729Y-11046198D02*
X13761777Y-11036674D01*
X13761777Y-11036674D02*
X13809396Y-11036674D01*
X13809396Y-11036674D02*
X13828444Y-11046198D01*
X13828444Y-11046198D02*
X13837968Y-11055722D01*
X13837968Y-11055722D02*
X13847491Y-11074770D01*
X13847491Y-11074770D02*
X13847491Y-11122389D01*
X13847491Y-11122389D02*
X13837968Y-11141436D01*
X13837968Y-11141436D02*
X13828444Y-11150960D01*
X13828444Y-11150960D02*
X13809396Y-11160484D01*
X13809396Y-11160484D02*
X13761777Y-11160484D01*
X13761777Y-11160484D02*
X13742729Y-11150960D01*
X13742729Y-11150960D02*
X13733206Y-11141436D01*
X14085587Y-11160484D02*
X14085587Y-10960484D01*
X14171301Y-11160484D02*
X14171301Y-11055722D01*
X14171301Y-11055722D02*
X14161777Y-11036674D01*
X14161777Y-11036674D02*
X14142730Y-11027150D01*
X14142730Y-11027150D02*
X14114158Y-11027150D01*
X14114158Y-11027150D02*
X14095110Y-11036674D01*
X14095110Y-11036674D02*
X14085587Y-11046198D01*
X14295110Y-11160484D02*
X14276063Y-11150960D01*
X14276063Y-11150960D02*
X14266539Y-11141436D01*
X14266539Y-11141436D02*
X14257015Y-11122389D01*
X14257015Y-11122389D02*
X14257015Y-11065246D01*
X14257015Y-11065246D02*
X14266539Y-11046198D01*
X14266539Y-11046198D02*
X14276063Y-11036674D01*
X14276063Y-11036674D02*
X14295110Y-11027150D01*
X14295110Y-11027150D02*
X14323682Y-11027150D01*
X14323682Y-11027150D02*
X14342730Y-11036674D01*
X14342730Y-11036674D02*
X14352253Y-11046198D01*
X14352253Y-11046198D02*
X14361777Y-11065246D01*
X14361777Y-11065246D02*
X14361777Y-11122389D01*
X14361777Y-11122389D02*
X14352253Y-11141436D01*
X14352253Y-11141436D02*
X14342730Y-11150960D01*
X14342730Y-11150960D02*
X14323682Y-11160484D01*
X14323682Y-11160484D02*
X14295110Y-11160484D01*
X14476063Y-11160484D02*
X14457015Y-11150960D01*
X14457015Y-11150960D02*
X14447491Y-11131912D01*
X14447491Y-11131912D02*
X14447491Y-10960484D01*
X14628444Y-11150960D02*
X14609396Y-11160484D01*
X14609396Y-11160484D02*
X14571301Y-11160484D01*
X14571301Y-11160484D02*
X14552253Y-11150960D01*
X14552253Y-11150960D02*
X14542730Y-11131912D01*
X14542730Y-11131912D02*
X14542730Y-11055722D01*
X14542730Y-11055722D02*
X14552253Y-11036674D01*
X14552253Y-11036674D02*
X14571301Y-11027150D01*
X14571301Y-11027150D02*
X14609396Y-11027150D01*
X14609396Y-11027150D02*
X14628444Y-11036674D01*
X14628444Y-11036674D02*
X14637968Y-11055722D01*
X14637968Y-11055722D02*
X14637968Y-11074770D01*
X14637968Y-11074770D02*
X14542730Y-11093817D01*
X14714158Y-11150960D02*
X14733206Y-11160484D01*
X14733206Y-11160484D02*
X14771301Y-11160484D01*
X14771301Y-11160484D02*
X14790349Y-11150960D01*
X14790349Y-11150960D02*
X14799872Y-11131912D01*
X14799872Y-11131912D02*
X14799872Y-11122389D01*
X14799872Y-11122389D02*
X14790349Y-11103341D01*
X14790349Y-11103341D02*
X14771301Y-11093817D01*
X14771301Y-11093817D02*
X14742730Y-11093817D01*
X14742730Y-11093817D02*
X14723682Y-11084293D01*
X14723682Y-11084293D02*
X14714158Y-11065246D01*
X14714158Y-11065246D02*
X14714158Y-11055722D01*
X14714158Y-11055722D02*
X14723682Y-11036674D01*
X14723682Y-11036674D02*
X14742730Y-11027150D01*
X14742730Y-11027150D02*
X14771301Y-11027150D01*
X14771301Y-11027150D02*
X14790349Y-11036674D01*
X14866539Y-11236674D02*
X14876063Y-11227150D01*
X14876063Y-11227150D02*
X14895111Y-11198579D01*
X14895111Y-11198579D02*
X14904634Y-11179531D01*
X14904634Y-11179531D02*
X14914158Y-11150960D01*
X14914158Y-11150960D02*
X14923682Y-11103341D01*
X14923682Y-11103341D02*
X14923682Y-11065246D01*
X14923682Y-11065246D02*
X14914158Y-11017627D01*
X14914158Y-11017627D02*
X14904634Y-10989055D01*
X14904634Y-10989055D02*
X14895111Y-10970008D01*
X14895111Y-10970008D02*
X14876063Y-10941436D01*
X14876063Y-10941436D02*
X14866539Y-10931912D01*
D10*
X9851000Y-11283000D02*
X9851000Y-11383000D01*
X9801000Y-11333000D02*
X9901000Y-11333000D01*
D11*
X10266539Y-11424484D02*
X10152253Y-11424484D01*
X10209396Y-11424484D02*
X10209396Y-11224484D01*
X10209396Y-11224484D02*
X10190348Y-11253055D01*
X10190348Y-11253055D02*
X10171301Y-11272103D01*
X10171301Y-11272103D02*
X10152253Y-11281627D01*
X10352253Y-11405436D02*
X10361777Y-11414960D01*
X10361777Y-11414960D02*
X10352253Y-11424484D01*
X10352253Y-11424484D02*
X10342729Y-11414960D01*
X10342729Y-11414960D02*
X10352253Y-11405436D01*
X10352253Y-11405436D02*
X10352253Y-11424484D01*
X10485586Y-11224484D02*
X10504634Y-11224484D01*
X10504634Y-11224484D02*
X10523682Y-11234008D01*
X10523682Y-11234008D02*
X10533205Y-11243531D01*
X10533205Y-11243531D02*
X10542729Y-11262579D01*
X10542729Y-11262579D02*
X10552253Y-11300674D01*
X10552253Y-11300674D02*
X10552253Y-11348293D01*
X10552253Y-11348293D02*
X10542729Y-11386388D01*
X10542729Y-11386388D02*
X10533205Y-11405436D01*
X10533205Y-11405436D02*
X10523682Y-11414960D01*
X10523682Y-11414960D02*
X10504634Y-11424484D01*
X10504634Y-11424484D02*
X10485586Y-11424484D01*
X10485586Y-11424484D02*
X10466539Y-11414960D01*
X10466539Y-11414960D02*
X10457015Y-11405436D01*
X10457015Y-11405436D02*
X10447491Y-11386388D01*
X10447491Y-11386388D02*
X10437967Y-11348293D01*
X10437967Y-11348293D02*
X10437967Y-11300674D01*
X10437967Y-11300674D02*
X10447491Y-11262579D01*
X10447491Y-11262579D02*
X10457015Y-11243531D01*
X10457015Y-11243531D02*
X10466539Y-11234008D01*
X10466539Y-11234008D02*
X10485586Y-11224484D01*
X10676063Y-11224484D02*
X10695110Y-11224484D01*
X10695110Y-11224484D02*
X10714158Y-11234008D01*
X10714158Y-11234008D02*
X10723682Y-11243531D01*
X10723682Y-11243531D02*
X10733205Y-11262579D01*
X10733205Y-11262579D02*
X10742729Y-11300674D01*
X10742729Y-11300674D02*
X10742729Y-11348293D01*
X10742729Y-11348293D02*
X10733205Y-11386388D01*
X10733205Y-11386388D02*
X10723682Y-11405436D01*
X10723682Y-11405436D02*
X10714158Y-11414960D01*
X10714158Y-11414960D02*
X10695110Y-11424484D01*
X10695110Y-11424484D02*
X10676063Y-11424484D01*
X10676063Y-11424484D02*
X10657015Y-11414960D01*
X10657015Y-11414960D02*
X10647491Y-11405436D01*
X10647491Y-11405436D02*
X10637967Y-11386388D01*
X10637967Y-11386388D02*
X10628444Y-11348293D01*
X10628444Y-11348293D02*
X10628444Y-11300674D01*
X10628444Y-11300674D02*
X10637967Y-11262579D01*
X10637967Y-11262579D02*
X10647491Y-11243531D01*
X10647491Y-11243531D02*
X10657015Y-11234008D01*
X10657015Y-11234008D02*
X10676063Y-11224484D01*
X10866539Y-11224484D02*
X10885586Y-11224484D01*
X10885586Y-11224484D02*
X10904634Y-11234008D01*
X10904634Y-11234008D02*
X10914158Y-11243531D01*
X10914158Y-11243531D02*
X10923682Y-11262579D01*
X10923682Y-11262579D02*
X10933205Y-11300674D01*
X10933205Y-11300674D02*
X10933205Y-11348293D01*
X10933205Y-11348293D02*
X10923682Y-11386388D01*
X10923682Y-11386388D02*
X10914158Y-11405436D01*
X10914158Y-11405436D02*
X10904634Y-11414960D01*
X10904634Y-11414960D02*
X10885586Y-11424484D01*
X10885586Y-11424484D02*
X10866539Y-11424484D01*
X10866539Y-11424484D02*
X10847491Y-11414960D01*
X10847491Y-11414960D02*
X10837967Y-11405436D01*
X10837967Y-11405436D02*
X10828444Y-11386388D01*
X10828444Y-11386388D02*
X10818920Y-11348293D01*
X10818920Y-11348293D02*
X10818920Y-11300674D01*
X10818920Y-11300674D02*
X10828444Y-11262579D01*
X10828444Y-11262579D02*
X10837967Y-11243531D01*
X10837967Y-11243531D02*
X10847491Y-11234008D01*
X10847491Y-11234008D02*
X10866539Y-11224484D01*
X11018920Y-11424484D02*
X11018920Y-11291150D01*
X11018920Y-11310198D02*
X11028444Y-11300674D01*
X11028444Y-11300674D02*
X11047491Y-11291150D01*
X11047491Y-11291150D02*
X11076063Y-11291150D01*
X11076063Y-11291150D02*
X11095110Y-11300674D01*
X11095110Y-11300674D02*
X11104634Y-11319722D01*
X11104634Y-11319722D02*
X11104634Y-11424484D01*
X11104634Y-11319722D02*
X11114158Y-11300674D01*
X11114158Y-11300674D02*
X11133205Y-11291150D01*
X11133205Y-11291150D02*
X11161777Y-11291150D01*
X11161777Y-11291150D02*
X11180825Y-11300674D01*
X11180825Y-11300674D02*
X11190348Y-11319722D01*
X11190348Y-11319722D02*
X11190348Y-11424484D01*
X11285586Y-11424484D02*
X11285586Y-11291150D01*
X11285586Y-11310198D02*
X11295110Y-11300674D01*
X11295110Y-11300674D02*
X11314158Y-11291150D01*
X11314158Y-11291150D02*
X11342729Y-11291150D01*
X11342729Y-11291150D02*
X11361777Y-11300674D01*
X11361777Y-11300674D02*
X11371301Y-11319722D01*
X11371301Y-11319722D02*
X11371301Y-11424484D01*
X11371301Y-11319722D02*
X11380824Y-11300674D01*
X11380824Y-11300674D02*
X11399872Y-11291150D01*
X11399872Y-11291150D02*
X11428443Y-11291150D01*
X11428443Y-11291150D02*
X11447491Y-11300674D01*
X11447491Y-11300674D02*
X11457015Y-11319722D01*
X11457015Y-11319722D02*
X11457015Y-11424484D01*
X11847491Y-11214960D02*
X11676063Y-11472103D01*
X12104634Y-11224484D02*
X12123682Y-11224484D01*
X12123682Y-11224484D02*
X12142729Y-11234008D01*
X12142729Y-11234008D02*
X12152253Y-11243531D01*
X12152253Y-11243531D02*
X12161777Y-11262579D01*
X12161777Y-11262579D02*
X12171301Y-11300674D01*
X12171301Y-11300674D02*
X12171301Y-11348293D01*
X12171301Y-11348293D02*
X12161777Y-11386388D01*
X12161777Y-11386388D02*
X12152253Y-11405436D01*
X12152253Y-11405436D02*
X12142729Y-11414960D01*
X12142729Y-11414960D02*
X12123682Y-11424484D01*
X12123682Y-11424484D02*
X12104634Y-11424484D01*
X12104634Y-11424484D02*
X12085586Y-11414960D01*
X12085586Y-11414960D02*
X12076063Y-11405436D01*
X12076063Y-11405436D02*
X12066539Y-11386388D01*
X12066539Y-11386388D02*
X12057015Y-11348293D01*
X12057015Y-11348293D02*
X12057015Y-11300674D01*
X12057015Y-11300674D02*
X12066539Y-11262579D01*
X12066539Y-11262579D02*
X12076063Y-11243531D01*
X12076063Y-11243531D02*
X12085586Y-11234008D01*
X12085586Y-11234008D02*
X12104634Y-11224484D01*
X12257015Y-11405436D02*
X12266539Y-11414960D01*
X12266539Y-11414960D02*
X12257015Y-11424484D01*
X12257015Y-11424484D02*
X12247491Y-11414960D01*
X12247491Y-11414960D02*
X12257015Y-11405436D01*
X12257015Y-11405436D02*
X12257015Y-11424484D01*
X12390348Y-11224484D02*
X12409396Y-11224484D01*
X12409396Y-11224484D02*
X12428444Y-11234008D01*
X12428444Y-11234008D02*
X12437967Y-11243531D01*
X12437967Y-11243531D02*
X12447491Y-11262579D01*
X12447491Y-11262579D02*
X12457015Y-11300674D01*
X12457015Y-11300674D02*
X12457015Y-11348293D01*
X12457015Y-11348293D02*
X12447491Y-11386388D01*
X12447491Y-11386388D02*
X12437967Y-11405436D01*
X12437967Y-11405436D02*
X12428444Y-11414960D01*
X12428444Y-11414960D02*
X12409396Y-11424484D01*
X12409396Y-11424484D02*
X12390348Y-11424484D01*
X12390348Y-11424484D02*
X12371301Y-11414960D01*
X12371301Y-11414960D02*
X12361777Y-11405436D01*
X12361777Y-11405436D02*
X12352253Y-11386388D01*
X12352253Y-11386388D02*
X12342729Y-11348293D01*
X12342729Y-11348293D02*
X12342729Y-11300674D01*
X12342729Y-11300674D02*
X12352253Y-11262579D01*
X12352253Y-11262579D02*
X12361777Y-11243531D01*
X12361777Y-11243531D02*
X12371301Y-11234008D01*
X12371301Y-11234008D02*
X12390348Y-11224484D01*
X12523682Y-11224484D02*
X12647491Y-11224484D01*
X12647491Y-11224484D02*
X12580825Y-11300674D01*
X12580825Y-11300674D02*
X12609396Y-11300674D01*
X12609396Y-11300674D02*
X12628444Y-11310198D01*
X12628444Y-11310198D02*
X12637967Y-11319722D01*
X12637967Y-11319722D02*
X12647491Y-11338769D01*
X12647491Y-11338769D02*
X12647491Y-11386388D01*
X12647491Y-11386388D02*
X12637967Y-11405436D01*
X12637967Y-11405436D02*
X12628444Y-11414960D01*
X12628444Y-11414960D02*
X12609396Y-11424484D01*
X12609396Y-11424484D02*
X12552253Y-11424484D01*
X12552253Y-11424484D02*
X12533206Y-11414960D01*
X12533206Y-11414960D02*
X12523682Y-11405436D01*
X12742729Y-11424484D02*
X12780825Y-11424484D01*
X12780825Y-11424484D02*
X12799872Y-11414960D01*
X12799872Y-11414960D02*
X12809396Y-11405436D01*
X12809396Y-11405436D02*
X12828444Y-11376865D01*
X12828444Y-11376865D02*
X12837967Y-11338769D01*
X12837967Y-11338769D02*
X12837967Y-11262579D01*
X12837967Y-11262579D02*
X12828444Y-11243531D01*
X12828444Y-11243531D02*
X12818920Y-11234008D01*
X12818920Y-11234008D02*
X12799872Y-11224484D01*
X12799872Y-11224484D02*
X12761777Y-11224484D01*
X12761777Y-11224484D02*
X12742729Y-11234008D01*
X12742729Y-11234008D02*
X12733206Y-11243531D01*
X12733206Y-11243531D02*
X12723682Y-11262579D01*
X12723682Y-11262579D02*
X12723682Y-11310198D01*
X12723682Y-11310198D02*
X12733206Y-11329246D01*
X12733206Y-11329246D02*
X12742729Y-11338769D01*
X12742729Y-11338769D02*
X12761777Y-11348293D01*
X12761777Y-11348293D02*
X12799872Y-11348293D01*
X12799872Y-11348293D02*
X12818920Y-11338769D01*
X12818920Y-11338769D02*
X12828444Y-11329246D01*
X12828444Y-11329246D02*
X12837967Y-11310198D01*
X13009396Y-11291150D02*
X13009396Y-11424484D01*
X12961777Y-11214960D02*
X12914158Y-11357817D01*
X12914158Y-11357817D02*
X13037967Y-11357817D01*
X13104634Y-11224484D02*
X13104634Y-11262579D01*
X13180825Y-11224484D02*
X13180825Y-11262579D01*
X13476063Y-11500674D02*
X13466539Y-11491150D01*
X13466539Y-11491150D02*
X13447491Y-11462579D01*
X13447491Y-11462579D02*
X13437968Y-11443531D01*
X13437968Y-11443531D02*
X13428444Y-11414960D01*
X13428444Y-11414960D02*
X13418920Y-11367341D01*
X13418920Y-11367341D02*
X13418920Y-11329246D01*
X13418920Y-11329246D02*
X13428444Y-11281627D01*
X13428444Y-11281627D02*
X13437968Y-11253055D01*
X13437968Y-11253055D02*
X13447491Y-11234008D01*
X13447491Y-11234008D02*
X13466539Y-11205436D01*
X13466539Y-11205436D02*
X13476063Y-11195912D01*
X13657015Y-11424484D02*
X13542729Y-11424484D01*
X13599872Y-11424484D02*
X13599872Y-11224484D01*
X13599872Y-11224484D02*
X13580825Y-11253055D01*
X13580825Y-11253055D02*
X13561777Y-11272103D01*
X13561777Y-11272103D02*
X13542729Y-11281627D01*
X13733206Y-11243531D02*
X13742729Y-11234008D01*
X13742729Y-11234008D02*
X13761777Y-11224484D01*
X13761777Y-11224484D02*
X13809396Y-11224484D01*
X13809396Y-11224484D02*
X13828444Y-11234008D01*
X13828444Y-11234008D02*
X13837968Y-11243531D01*
X13837968Y-11243531D02*
X13847491Y-11262579D01*
X13847491Y-11262579D02*
X13847491Y-11281627D01*
X13847491Y-11281627D02*
X13837968Y-11310198D01*
X13837968Y-11310198D02*
X13723682Y-11424484D01*
X13723682Y-11424484D02*
X13847491Y-11424484D01*
X14085587Y-11424484D02*
X14085587Y-11224484D01*
X14171301Y-11424484D02*
X14171301Y-11319722D01*
X14171301Y-11319722D02*
X14161777Y-11300674D01*
X14161777Y-11300674D02*
X14142730Y-11291150D01*
X14142730Y-11291150D02*
X14114158Y-11291150D01*
X14114158Y-11291150D02*
X14095110Y-11300674D01*
X14095110Y-11300674D02*
X14085587Y-11310198D01*
X14295110Y-11424484D02*
X14276063Y-11414960D01*
X14276063Y-11414960D02*
X14266539Y-11405436D01*
X14266539Y-11405436D02*
X14257015Y-11386388D01*
X14257015Y-11386388D02*
X14257015Y-11329246D01*
X14257015Y-11329246D02*
X14266539Y-11310198D01*
X14266539Y-11310198D02*
X14276063Y-11300674D01*
X14276063Y-11300674D02*
X14295110Y-11291150D01*
X14295110Y-11291150D02*
X14323682Y-11291150D01*
X14323682Y-11291150D02*
X14342730Y-11300674D01*
X14342730Y-11300674D02*
X14352253Y-11310198D01*
X14352253Y-11310198D02*
X14361777Y-11329246D01*
X14361777Y-11329246D02*
X14361777Y-11386388D01*
X14361777Y-11386388D02*
X14352253Y-11405436D01*
X14352253Y-11405436D02*
X14342730Y-11414960D01*
X14342730Y-11414960D02*
X14323682Y-11424484D01*
X14323682Y-11424484D02*
X14295110Y-11424484D01*
X14476063Y-11424484D02*
X14457015Y-11414960D01*
X14457015Y-11414960D02*
X14447491Y-11395912D01*
X14447491Y-11395912D02*
X14447491Y-11224484D01*
X14628444Y-11414960D02*
X14609396Y-11424484D01*
X14609396Y-11424484D02*
X14571301Y-11424484D01*
X14571301Y-11424484D02*
X14552253Y-11414960D01*
X14552253Y-11414960D02*
X14542730Y-11395912D01*
X14542730Y-11395912D02*
X14542730Y-11319722D01*
X14542730Y-11319722D02*
X14552253Y-11300674D01*
X14552253Y-11300674D02*
X14571301Y-11291150D01*
X14571301Y-11291150D02*
X14609396Y-11291150D01*
X14609396Y-11291150D02*
X14628444Y-11300674D01*
X14628444Y-11300674D02*
X14637968Y-11319722D01*
X14637968Y-11319722D02*
X14637968Y-11338769D01*
X14637968Y-11338769D02*
X14542730Y-11357817D01*
X14714158Y-11414960D02*
X14733206Y-11424484D01*
X14733206Y-11424484D02*
X14771301Y-11424484D01*
X14771301Y-11424484D02*
X14790349Y-11414960D01*
X14790349Y-11414960D02*
X14799872Y-11395912D01*
X14799872Y-11395912D02*
X14799872Y-11386388D01*
X14799872Y-11386388D02*
X14790349Y-11367341D01*
X14790349Y-11367341D02*
X14771301Y-11357817D01*
X14771301Y-11357817D02*
X14742730Y-11357817D01*
X14742730Y-11357817D02*
X14723682Y-11348293D01*
X14723682Y-11348293D02*
X14714158Y-11329246D01*
X14714158Y-11329246D02*
X14714158Y-11319722D01*
X14714158Y-11319722D02*
X14723682Y-11300674D01*
X14723682Y-11300674D02*
X14742730Y-11291150D01*
X14742730Y-11291150D02*
X14771301Y-11291150D01*
X14771301Y-11291150D02*
X14790349Y-11300674D01*
X14866539Y-11500674D02*
X14876063Y-11491150D01*
X14876063Y-11491150D02*
X14895111Y-11462579D01*
X14895111Y-11462579D02*
X14904634Y-11443531D01*
X14904634Y-11443531D02*
X14914158Y-11414960D01*
X14914158Y-11414960D02*
X14923682Y-11367341D01*
X14923682Y-11367341D02*
X14923682Y-11329246D01*
X14923682Y-11329246D02*
X14914158Y-11281627D01*
X14914158Y-11281627D02*
X14904634Y-11253055D01*
X14904634Y-11253055D02*
X14895111Y-11234008D01*
X14895111Y-11234008D02*
X14876063Y-11205436D01*
X14876063Y-11205436D02*
X14866539Y-11195912D01*
D12*
X9878741Y-11650741D02*
X9878741Y-11543259D01*
X9771259Y-11543259D01*
X9771259Y-11650741D01*
X9878741Y-11650741D01*
D11*
X10266539Y-11688484D02*
X10152253Y-11688484D01*
X10209396Y-11688484D02*
X10209396Y-11488484D01*
X10209396Y-11488484D02*
X10190348Y-11517055D01*
X10190348Y-11517055D02*
X10171301Y-11536103D01*
X10171301Y-11536103D02*
X10152253Y-11545627D01*
X10352253Y-11669436D02*
X10361777Y-11678960D01*
X10361777Y-11678960D02*
X10352253Y-11688484D01*
X10352253Y-11688484D02*
X10342729Y-11678960D01*
X10342729Y-11678960D02*
X10352253Y-11669436D01*
X10352253Y-11669436D02*
X10352253Y-11688484D01*
X10542729Y-11488484D02*
X10447491Y-11488484D01*
X10447491Y-11488484D02*
X10437967Y-11583722D01*
X10437967Y-11583722D02*
X10447491Y-11574198D01*
X10447491Y-11574198D02*
X10466539Y-11564674D01*
X10466539Y-11564674D02*
X10514158Y-11564674D01*
X10514158Y-11564674D02*
X10533205Y-11574198D01*
X10533205Y-11574198D02*
X10542729Y-11583722D01*
X10542729Y-11583722D02*
X10552253Y-11602769D01*
X10552253Y-11602769D02*
X10552253Y-11650388D01*
X10552253Y-11650388D02*
X10542729Y-11669436D01*
X10542729Y-11669436D02*
X10533205Y-11678960D01*
X10533205Y-11678960D02*
X10514158Y-11688484D01*
X10514158Y-11688484D02*
X10466539Y-11688484D01*
X10466539Y-11688484D02*
X10447491Y-11678960D01*
X10447491Y-11678960D02*
X10437967Y-11669436D01*
X10628444Y-11507531D02*
X10637967Y-11498008D01*
X10637967Y-11498008D02*
X10657015Y-11488484D01*
X10657015Y-11488484D02*
X10704634Y-11488484D01*
X10704634Y-11488484D02*
X10723682Y-11498008D01*
X10723682Y-11498008D02*
X10733205Y-11507531D01*
X10733205Y-11507531D02*
X10742729Y-11526579D01*
X10742729Y-11526579D02*
X10742729Y-11545627D01*
X10742729Y-11545627D02*
X10733205Y-11574198D01*
X10733205Y-11574198D02*
X10618920Y-11688484D01*
X10618920Y-11688484D02*
X10742729Y-11688484D01*
X10866539Y-11488484D02*
X10885586Y-11488484D01*
X10885586Y-11488484D02*
X10904634Y-11498008D01*
X10904634Y-11498008D02*
X10914158Y-11507531D01*
X10914158Y-11507531D02*
X10923682Y-11526579D01*
X10923682Y-11526579D02*
X10933205Y-11564674D01*
X10933205Y-11564674D02*
X10933205Y-11612293D01*
X10933205Y-11612293D02*
X10923682Y-11650388D01*
X10923682Y-11650388D02*
X10914158Y-11669436D01*
X10914158Y-11669436D02*
X10904634Y-11678960D01*
X10904634Y-11678960D02*
X10885586Y-11688484D01*
X10885586Y-11688484D02*
X10866539Y-11688484D01*
X10866539Y-11688484D02*
X10847491Y-11678960D01*
X10847491Y-11678960D02*
X10837967Y-11669436D01*
X10837967Y-11669436D02*
X10828444Y-11650388D01*
X10828444Y-11650388D02*
X10818920Y-11612293D01*
X10818920Y-11612293D02*
X10818920Y-11564674D01*
X10818920Y-11564674D02*
X10828444Y-11526579D01*
X10828444Y-11526579D02*
X10837967Y-11507531D01*
X10837967Y-11507531D02*
X10847491Y-11498008D01*
X10847491Y-11498008D02*
X10866539Y-11488484D01*
X11018920Y-11688484D02*
X11018920Y-11555150D01*
X11018920Y-11574198D02*
X11028444Y-11564674D01*
X11028444Y-11564674D02*
X11047491Y-11555150D01*
X11047491Y-11555150D02*
X11076063Y-11555150D01*
X11076063Y-11555150D02*
X11095110Y-11564674D01*
X11095110Y-11564674D02*
X11104634Y-11583722D01*
X11104634Y-11583722D02*
X11104634Y-11688484D01*
X11104634Y-11583722D02*
X11114158Y-11564674D01*
X11114158Y-11564674D02*
X11133205Y-11555150D01*
X11133205Y-11555150D02*
X11161777Y-11555150D01*
X11161777Y-11555150D02*
X11180825Y-11564674D01*
X11180825Y-11564674D02*
X11190348Y-11583722D01*
X11190348Y-11583722D02*
X11190348Y-11688484D01*
X11285586Y-11688484D02*
X11285586Y-11555150D01*
X11285586Y-11574198D02*
X11295110Y-11564674D01*
X11295110Y-11564674D02*
X11314158Y-11555150D01*
X11314158Y-11555150D02*
X11342729Y-11555150D01*
X11342729Y-11555150D02*
X11361777Y-11564674D01*
X11361777Y-11564674D02*
X11371301Y-11583722D01*
X11371301Y-11583722D02*
X11371301Y-11688484D01*
X11371301Y-11583722D02*
X11380824Y-11564674D01*
X11380824Y-11564674D02*
X11399872Y-11555150D01*
X11399872Y-11555150D02*
X11428443Y-11555150D01*
X11428443Y-11555150D02*
X11447491Y-11564674D01*
X11447491Y-11564674D02*
X11457015Y-11583722D01*
X11457015Y-11583722D02*
X11457015Y-11688484D01*
X11847491Y-11478960D02*
X11676063Y-11736103D01*
X12104634Y-11488484D02*
X12123682Y-11488484D01*
X12123682Y-11488484D02*
X12142729Y-11498008D01*
X12142729Y-11498008D02*
X12152253Y-11507531D01*
X12152253Y-11507531D02*
X12161777Y-11526579D01*
X12161777Y-11526579D02*
X12171301Y-11564674D01*
X12171301Y-11564674D02*
X12171301Y-11612293D01*
X12171301Y-11612293D02*
X12161777Y-11650388D01*
X12161777Y-11650388D02*
X12152253Y-11669436D01*
X12152253Y-11669436D02*
X12142729Y-11678960D01*
X12142729Y-11678960D02*
X12123682Y-11688484D01*
X12123682Y-11688484D02*
X12104634Y-11688484D01*
X12104634Y-11688484D02*
X12085586Y-11678960D01*
X12085586Y-11678960D02*
X12076063Y-11669436D01*
X12076063Y-11669436D02*
X12066539Y-11650388D01*
X12066539Y-11650388D02*
X12057015Y-11612293D01*
X12057015Y-11612293D02*
X12057015Y-11564674D01*
X12057015Y-11564674D02*
X12066539Y-11526579D01*
X12066539Y-11526579D02*
X12076063Y-11507531D01*
X12076063Y-11507531D02*
X12085586Y-11498008D01*
X12085586Y-11498008D02*
X12104634Y-11488484D01*
X12257015Y-11669436D02*
X12266539Y-11678960D01*
X12266539Y-11678960D02*
X12257015Y-11688484D01*
X12257015Y-11688484D02*
X12247491Y-11678960D01*
X12247491Y-11678960D02*
X12257015Y-11669436D01*
X12257015Y-11669436D02*
X12257015Y-11688484D01*
X12390348Y-11488484D02*
X12409396Y-11488484D01*
X12409396Y-11488484D02*
X12428444Y-11498008D01*
X12428444Y-11498008D02*
X12437967Y-11507531D01*
X12437967Y-11507531D02*
X12447491Y-11526579D01*
X12447491Y-11526579D02*
X12457015Y-11564674D01*
X12457015Y-11564674D02*
X12457015Y-11612293D01*
X12457015Y-11612293D02*
X12447491Y-11650388D01*
X12447491Y-11650388D02*
X12437967Y-11669436D01*
X12437967Y-11669436D02*
X12428444Y-11678960D01*
X12428444Y-11678960D02*
X12409396Y-11688484D01*
X12409396Y-11688484D02*
X12390348Y-11688484D01*
X12390348Y-11688484D02*
X12371301Y-11678960D01*
X12371301Y-11678960D02*
X12361777Y-11669436D01*
X12361777Y-11669436D02*
X12352253Y-11650388D01*
X12352253Y-11650388D02*
X12342729Y-11612293D01*
X12342729Y-11612293D02*
X12342729Y-11564674D01*
X12342729Y-11564674D02*
X12352253Y-11526579D01*
X12352253Y-11526579D02*
X12361777Y-11507531D01*
X12361777Y-11507531D02*
X12371301Y-11498008D01*
X12371301Y-11498008D02*
X12390348Y-11488484D01*
X12637967Y-11488484D02*
X12542729Y-11488484D01*
X12542729Y-11488484D02*
X12533206Y-11583722D01*
X12533206Y-11583722D02*
X12542729Y-11574198D01*
X12542729Y-11574198D02*
X12561777Y-11564674D01*
X12561777Y-11564674D02*
X12609396Y-11564674D01*
X12609396Y-11564674D02*
X12628444Y-11574198D01*
X12628444Y-11574198D02*
X12637967Y-11583722D01*
X12637967Y-11583722D02*
X12647491Y-11602769D01*
X12647491Y-11602769D02*
X12647491Y-11650388D01*
X12647491Y-11650388D02*
X12637967Y-11669436D01*
X12637967Y-11669436D02*
X12628444Y-11678960D01*
X12628444Y-11678960D02*
X12609396Y-11688484D01*
X12609396Y-11688484D02*
X12561777Y-11688484D01*
X12561777Y-11688484D02*
X12542729Y-11678960D01*
X12542729Y-11678960D02*
X12533206Y-11669436D01*
X12742729Y-11688484D02*
X12780825Y-11688484D01*
X12780825Y-11688484D02*
X12799872Y-11678960D01*
X12799872Y-11678960D02*
X12809396Y-11669436D01*
X12809396Y-11669436D02*
X12828444Y-11640865D01*
X12828444Y-11640865D02*
X12837967Y-11602769D01*
X12837967Y-11602769D02*
X12837967Y-11526579D01*
X12837967Y-11526579D02*
X12828444Y-11507531D01*
X12828444Y-11507531D02*
X12818920Y-11498008D01*
X12818920Y-11498008D02*
X12799872Y-11488484D01*
X12799872Y-11488484D02*
X12761777Y-11488484D01*
X12761777Y-11488484D02*
X12742729Y-11498008D01*
X12742729Y-11498008D02*
X12733206Y-11507531D01*
X12733206Y-11507531D02*
X12723682Y-11526579D01*
X12723682Y-11526579D02*
X12723682Y-11574198D01*
X12723682Y-11574198D02*
X12733206Y-11593246D01*
X12733206Y-11593246D02*
X12742729Y-11602769D01*
X12742729Y-11602769D02*
X12761777Y-11612293D01*
X12761777Y-11612293D02*
X12799872Y-11612293D01*
X12799872Y-11612293D02*
X12818920Y-11602769D01*
X12818920Y-11602769D02*
X12828444Y-11593246D01*
X12828444Y-11593246D02*
X12837967Y-11574198D01*
X12952253Y-11574198D02*
X12933206Y-11564674D01*
X12933206Y-11564674D02*
X12923682Y-11555150D01*
X12923682Y-11555150D02*
X12914158Y-11536103D01*
X12914158Y-11536103D02*
X12914158Y-11526579D01*
X12914158Y-11526579D02*
X12923682Y-11507531D01*
X12923682Y-11507531D02*
X12933206Y-11498008D01*
X12933206Y-11498008D02*
X12952253Y-11488484D01*
X12952253Y-11488484D02*
X12990348Y-11488484D01*
X12990348Y-11488484D02*
X13009396Y-11498008D01*
X13009396Y-11498008D02*
X13018920Y-11507531D01*
X13018920Y-11507531D02*
X13028444Y-11526579D01*
X13028444Y-11526579D02*
X13028444Y-11536103D01*
X13028444Y-11536103D02*
X13018920Y-11555150D01*
X13018920Y-11555150D02*
X13009396Y-11564674D01*
X13009396Y-11564674D02*
X12990348Y-11574198D01*
X12990348Y-11574198D02*
X12952253Y-11574198D01*
X12952253Y-11574198D02*
X12933206Y-11583722D01*
X12933206Y-11583722D02*
X12923682Y-11593246D01*
X12923682Y-11593246D02*
X12914158Y-11612293D01*
X12914158Y-11612293D02*
X12914158Y-11650388D01*
X12914158Y-11650388D02*
X12923682Y-11669436D01*
X12923682Y-11669436D02*
X12933206Y-11678960D01*
X12933206Y-11678960D02*
X12952253Y-11688484D01*
X12952253Y-11688484D02*
X12990348Y-11688484D01*
X12990348Y-11688484D02*
X13009396Y-11678960D01*
X13009396Y-11678960D02*
X13018920Y-11669436D01*
X13018920Y-11669436D02*
X13028444Y-11650388D01*
X13028444Y-11650388D02*
X13028444Y-11612293D01*
X13028444Y-11612293D02*
X13018920Y-11593246D01*
X13018920Y-11593246D02*
X13009396Y-11583722D01*
X13009396Y-11583722D02*
X12990348Y-11574198D01*
X13104634Y-11488484D02*
X13104634Y-11526579D01*
X13180825Y-11488484D02*
X13180825Y-11526579D01*
X13476063Y-11764674D02*
X13466539Y-11755150D01*
X13466539Y-11755150D02*
X13447491Y-11726579D01*
X13447491Y-11726579D02*
X13437968Y-11707531D01*
X13437968Y-11707531D02*
X13428444Y-11678960D01*
X13428444Y-11678960D02*
X13418920Y-11631341D01*
X13418920Y-11631341D02*
X13418920Y-11593246D01*
X13418920Y-11593246D02*
X13428444Y-11545627D01*
X13428444Y-11545627D02*
X13437968Y-11517055D01*
X13437968Y-11517055D02*
X13447491Y-11498008D01*
X13447491Y-11498008D02*
X13466539Y-11469436D01*
X13466539Y-11469436D02*
X13476063Y-11459912D01*
X13637968Y-11488484D02*
X13599872Y-11488484D01*
X13599872Y-11488484D02*
X13580825Y-11498008D01*
X13580825Y-11498008D02*
X13571301Y-11507531D01*
X13571301Y-11507531D02*
X13552253Y-11536103D01*
X13552253Y-11536103D02*
X13542729Y-11574198D01*
X13542729Y-11574198D02*
X13542729Y-11650388D01*
X13542729Y-11650388D02*
X13552253Y-11669436D01*
X13552253Y-11669436D02*
X13561777Y-11678960D01*
X13561777Y-11678960D02*
X13580825Y-11688484D01*
X13580825Y-11688484D02*
X13618920Y-11688484D01*
X13618920Y-11688484D02*
X13637968Y-11678960D01*
X13637968Y-11678960D02*
X13647491Y-11669436D01*
X13647491Y-11669436D02*
X13657015Y-11650388D01*
X13657015Y-11650388D02*
X13657015Y-11602769D01*
X13657015Y-11602769D02*
X13647491Y-11583722D01*
X13647491Y-11583722D02*
X13637968Y-11574198D01*
X13637968Y-11574198D02*
X13618920Y-11564674D01*
X13618920Y-11564674D02*
X13580825Y-11564674D01*
X13580825Y-11564674D02*
X13561777Y-11574198D01*
X13561777Y-11574198D02*
X13552253Y-11583722D01*
X13552253Y-11583722D02*
X13542729Y-11602769D01*
X13895110Y-11688484D02*
X13895110Y-11488484D01*
X13980825Y-11688484D02*
X13980825Y-11583722D01*
X13980825Y-11583722D02*
X13971301Y-11564674D01*
X13971301Y-11564674D02*
X13952253Y-11555150D01*
X13952253Y-11555150D02*
X13923682Y-11555150D01*
X13923682Y-11555150D02*
X13904634Y-11564674D01*
X13904634Y-11564674D02*
X13895110Y-11574198D01*
X14104634Y-11688484D02*
X14085587Y-11678960D01*
X14085587Y-11678960D02*
X14076063Y-11669436D01*
X14076063Y-11669436D02*
X14066539Y-11650388D01*
X14066539Y-11650388D02*
X14066539Y-11593246D01*
X14066539Y-11593246D02*
X14076063Y-11574198D01*
X14076063Y-11574198D02*
X14085587Y-11564674D01*
X14085587Y-11564674D02*
X14104634Y-11555150D01*
X14104634Y-11555150D02*
X14133206Y-11555150D01*
X14133206Y-11555150D02*
X14152253Y-11564674D01*
X14152253Y-11564674D02*
X14161777Y-11574198D01*
X14161777Y-11574198D02*
X14171301Y-11593246D01*
X14171301Y-11593246D02*
X14171301Y-11650388D01*
X14171301Y-11650388D02*
X14161777Y-11669436D01*
X14161777Y-11669436D02*
X14152253Y-11678960D01*
X14152253Y-11678960D02*
X14133206Y-11688484D01*
X14133206Y-11688484D02*
X14104634Y-11688484D01*
X14285587Y-11688484D02*
X14266539Y-11678960D01*
X14266539Y-11678960D02*
X14257015Y-11659912D01*
X14257015Y-11659912D02*
X14257015Y-11488484D01*
X14437968Y-11678960D02*
X14418920Y-11688484D01*
X14418920Y-11688484D02*
X14380825Y-11688484D01*
X14380825Y-11688484D02*
X14361777Y-11678960D01*
X14361777Y-11678960D02*
X14352253Y-11659912D01*
X14352253Y-11659912D02*
X14352253Y-11583722D01*
X14352253Y-11583722D02*
X14361777Y-11564674D01*
X14361777Y-11564674D02*
X14380825Y-11555150D01*
X14380825Y-11555150D02*
X14418920Y-11555150D01*
X14418920Y-11555150D02*
X14437968Y-11564674D01*
X14437968Y-11564674D02*
X14447491Y-11583722D01*
X14447491Y-11583722D02*
X14447491Y-11602769D01*
X14447491Y-11602769D02*
X14352253Y-11621817D01*
X14523682Y-11678960D02*
X14542730Y-11688484D01*
X14542730Y-11688484D02*
X14580825Y-11688484D01*
X14580825Y-11688484D02*
X14599872Y-11678960D01*
X14599872Y-11678960D02*
X14609396Y-11659912D01*
X14609396Y-11659912D02*
X14609396Y-11650388D01*
X14609396Y-11650388D02*
X14599872Y-11631341D01*
X14599872Y-11631341D02*
X14580825Y-11621817D01*
X14580825Y-11621817D02*
X14552253Y-11621817D01*
X14552253Y-11621817D02*
X14533206Y-11612293D01*
X14533206Y-11612293D02*
X14523682Y-11593246D01*
X14523682Y-11593246D02*
X14523682Y-11583722D01*
X14523682Y-11583722D02*
X14533206Y-11564674D01*
X14533206Y-11564674D02*
X14552253Y-11555150D01*
X14552253Y-11555150D02*
X14580825Y-11555150D01*
X14580825Y-11555150D02*
X14599872Y-11564674D01*
X14676063Y-11764674D02*
X14685587Y-11755150D01*
X14685587Y-11755150D02*
X14704634Y-11726579D01*
X14704634Y-11726579D02*
X14714158Y-11707531D01*
X14714158Y-11707531D02*
X14723682Y-11678960D01*
X14723682Y-11678960D02*
X14733206Y-11631341D01*
X14733206Y-11631341D02*
X14733206Y-11593246D01*
X14733206Y-11593246D02*
X14723682Y-11545627D01*
X14723682Y-11545627D02*
X14714158Y-11517055D01*
X14714158Y-11517055D02*
X14704634Y-11498008D01*
X14704634Y-11498008D02*
X14685587Y-11469436D01*
X14685587Y-11469436D02*
X14676063Y-11459912D01*
M02*
